<?xml version="1.0" encoding="UTF-8"?>
<svg xmlns="http://www.w3.org/2000/svg" viewBox="0 0 306.07 431.49">
  <defs>
    <style>
      .cls-1 {
        fill: #b6d4ff;
      }

      .cls-1, .cls-2, .cls-3, .cls-4 {
        opacity: .6;
      }

      .cls-5 {
        fill: #1e0933;
      }

      .cls-6 {
        fill: #6e259e;
      }

      .cls-2 {
        fill: #697acc;
      }

      .cls-7 {
        fill: #a00d5a;
      }

      .cls-8 {
        isolation: isolate;
      }

      .cls-9 {
        fill: #fffef3;
      }

      .cls-10, .cls-11 {
        fill: #3a1466;
      }

      .cls-12 {
        fill: #fff;
      }

      .cls-13 {
        opacity: .58;
      }

      .cls-13, .cls-14, .cls-15 {
        fill: #ebd4ff;
      }

      .cls-14 {
        opacity: .46;
      }

      .cls-11 {
        stroke: #3a1466;
        stroke-linecap: round;
        stroke-miterlimit: 10;
        stroke-width: .75px;
      }

      .cls-16 {
        fill: #de75dd;
      }

      .cls-17 {
        fill: #c15dc0;
      }

      .cls-18 {
        fill: #4b2b5c;
      }

      .cls-3, .cls-19 {
        fill: #644d82;
      }

      .cls-3, .cls-19, .cls-4, .cls-20 {
        mix-blend-mode: multiply;
      }

      .cls-19 {
        opacity: .5;
      }

      .cls-21 {
        fill: #a675be;
      }

      .cls-4, .cls-20 {
        fill: #8b69af;
      }

      .cls-20 {
        opacity: .8;
      }

      .cls-22 {
        fill: #c898ea;
      }

      .cls-23 {
        fill: #efc9c7;
        opacity: .3;
      }
    </style>
  </defs>
  <g class="cls-8">
    <g id="Layer_2">
      <g id="Layer_1-2" data-name="Layer_1">
        <g>
          <g>
            <path class="cls-16" d="M80.91,324.29c-2.73-2.3-.78-10.69-.93-14.21.89-12.81,1.59-25.67,3.58-38.36.34-3.25,1.55-6.32,2.09-9.49.26-1.36.03-3.72,1.83-3.97.79-.06,1.44.58,1.59,1.32-.14,8.23.9,16.49,1.27,24.75,1.07-5.5,1.88-21.95,8.71-22.6.21.06.34.29.43.46-1.69-.26-1.75,2.83-2.37,3.98-3.8,11.35-4.38,23.42-5.82,35.22-.09,4.36.93,18.35-2.37,20.79-4.04,1.18-1.5-8.19-1.63-10.3.55-5.53,1.46-11.02.86-16.59-.35,6.2-1.26,12.33-2.25,18.44.43.17.44.2-.02.23-.57,2.71-.55,11.84-4.95,10.32Z"/>
            <path class="cls-16" d="M124.37,251.11c-.66-4.58,1.95-10.59,7.03-11.04.43,4.85-2.7,9.1-7.02,11.05,0,0,0,0,0,0Z"/>
            <path class="cls-16" d="M73.57,327.5c-4.43-.73-5.29-5.67-4.99-9.39-1.2,4.86-3.93-11.29-4.08-12.64-.69-5.7-.58-11.5.27-17.18,1.1-7.09,1.4-14.45,3.8-21.25,1.73-3.9,7.47-4.76,10.24-1.48,1.33-5.08,2.03-16.72,6.51-19.42,3.33-2.26,8.25-.29,9.03,3.68,6.33-2.67,9.83,2.99,8.61,8.79,3.4-11.47,5.8-23.43,10.61-34.39,3.81-5.69,12.62-1.21,10.63,5.25,1.04-.7,2.84-3.07,4.09-2.02-1.31,1-.58,5.34-.97,7.13-.12,1.73-.27,3.48-.52,5.2-1.47,10.85-6.45,20.83-9.77,31.19-2.49,6.99-4.96,13.99-7.43,20.99-1.73,4.04-2.23,10.34-7.53,11.1-1.03,4.32-3.9,9.2-9.07,7.73-.95,4.66-6.97,7.06-10.54,3.66-1.09,5.15-1.46,14.25-8.89,13.06Z"/>
            <path class="cls-16" d="M83.67,427.41c-6.43-.94-13.69-2.43-17.94-7.79-7.64-8.75-13.59-18.9-16.14-30.32.06.23.11.43.17.65-.55-2.07-1.21-4.26-1.15-6.42.02-.58.14-1.15.34-1.69-2.95-9.04-4.91-18.66-5.45-28.18.29-4.64-1.52-9.04-1.99-13.63,0,.01,0,.03,0,.05,0,.03,0,.06.02.15-1.91-13.7-2.04-27.38-1.4-41.14.19-3.66.58-7.24,1.03-10.74.15-4.21,2.35-9.05,7.3-8.46.95-.52,2.04-.77,3.17-.7,1.91.12,3.77,1.23,4.74,2.89,0,0,.01,0,.02,0,.92-7.68,12.24-6.87,11.9.86-.45,3.62-1.19,7.21-1.63,10.84-1.2,9.59-2,19.23-2.2,28.89,1.37,4.71,2.94,9.38,3.83,14.22,4.42,1.9,4.35,7.45,5.61,11.44,3.3,13.48,6.32,27.03,9.83,40.45,1.25,6.12,4.68,11.88,4.88,18.17,1.68,6.65,5.95,20.23-4.94,20.47Z"/>
            <path class="cls-17" d="M11.11,378.75s0,.01.01.02c0,.01.02.03.03.04-.01-.02-.03-.04-.04-.05Z"/>
            <path class="cls-17" d="M11.09,378.73s0,0,0,0c0,0,0,.01.01.02,0,0,0,0,.01.01,0,0-.01-.02-.02-.03Z"/>
            <path class="cls-17" d="M56.55,130.52v.02s-.01,0-.01.01c0,0,0-.02.01-.03Z"/>
            <path class="cls-17" d="M61.35,118.7s0,0,0,0c-.02.04-.03.07-.05.11.02-.03.03-.07.05-.1Z"/>
            <path class="cls-17" d="M61.38,118.66s0,0,0-.01c0,0,0,0,0,0,0,0,0,0,0,0,0,0,0,0,0,0,0,0,0,0,0,0,0,.01-.01.02-.02.03,0,0,0,0,0,0Z"/>
            <path class="cls-22" d="M148.2,242.75c.06,0,.11,0,.16,0,.03-.04.05-.07.08-.11-.08.04-.17.08-.25.11ZM86.67,430.26c-.51-.06-1.01-.15-1.51-.26-.5-.13-1-.28-1.49-.46-.19-.08-.38-.16-.56-.24-.11-.07-.22-.13-.33-.2-.35-.2-.69-.4-1.09-.49-.02,0-.05,0-.07-.01-.02,0-.04,0-.05,0-.02,0-.04,0-.07,0-.03,0-.06,0-.09,0-.43-.02-.84.13-1.17.39-.19-.06-.38-.13-.57-.19-.13-.04-.27-.09-.4-.13-1.93-.63-3.88-1.2-5.84-1.74-.02,0-.03,0-.05-.01-.01,0-.02,0-.03,0,0,0-.01,0-.02,0-.02,0-.04,0-.05-.01-.03,0-.06-.02-.09-.02.01,0,.02,0,.03,0-.02,0-.03,0-.04-.01-.26-.07-.51-.14-.77-.21-2.45-1.91-4.39-4.58-6.68-6.69-10.5-10.15-17.01-23.9-19.18-38.27-.83-6.62-2.44-13.09-3.78-19.62-.39-2.79-1.48-5.77-.3-8.49-.33-2.99-1.18-5.86-1.45-8.86.02.19.04.32.06.5-.45-4.2-1.13-8.48-1.3-12.74-.33-.32-.6-.69-.84-1.08-2.07,2.93-4.09,5.9-6.51,8.56-1.02,1.05-1.89,2.41-3.29,2.96-.49,1.36-1.03,2.7-1.6,4.03-.22,2.25-.2,4.88-1.23,6.6.61,2.1,1.21,4.2,1.7,6.33,1.66,4.85,2.41,10.09.86,15.08-.88,4.06-4.39,7.67-8.53,7.67-.69,0-1.39-.1-2.11-.32-2.52-.46-4.73-1.45-6.63-2.83-.15-.19-.29-.39-.44-.58-.01-.02-.03-.04-.04-.06,0-.01-.02-.03-.03-.04,0,0-.01-.02-.02-.02,0,0,0,0,0,0,0,0,0,0,0,0,0,0,0,0,0-.01,0,0,0,0,0,0,0,0,0-.01-.01-.02,0,0,0,0,0,0,0,0,0-.01-.01-.02,0,0,0,0,0,0,0,0,0,0,0-.01,0,0,0,0,0,0,0,0,0,0,0,0t0,0s0,0,0,0c0,0,0,0,0,0,0,0,0,0,0,0h0s0,0,0,0c0,0,0,0,0,0,0,0,0,0,0,0,0,0,0,0,0,0,0,0,0,0,0,0,0,0,0,0,0,0h0s0,0,0,0c0-.01-.02-.02-.02-.03,0,0,0,0,0,0,0,0,0,0-.01-.01h0s0,0,0,0c-.66-.89-1.32-1.77-1.95-2.67-.24-.44-.48-.87-.72-1.31,0,0,0-.02-.01-.03-.01-.02-.02-.04-.03-.06,0,0,0,0,0,0,0,0,0-.01,0-.02h0s0-.02,0-.02c0,0,0,0,0,0,0,0,0,0,0,0,0,0,0,0,0,0,0,0,0,0,0-.01-.02-.03-.04-.07-.05-.1-.26-.48-.52-.97-.79-1.45-.14-.25-.27-.5-.42-.74-.28-.46-.57-.94-1.07-1.18-.96-2.87-1.91-5.74-2.85-8.61-.13-.38-.36-.71-.67-.93-.09-.79-.16-1.57-.19-2.35-1.85-5.69-.85-11.83.5-17.54.29-1.23.6-2.54,1.51-3.45-.07-.23-.16-.45-.29-.66-1.64-1.86-.75-4.34.04-6.37.89-3.24,3.11-14.14,6.08-15.33.7-1.85,2.08-5.82,3.79-8.7-.08-.35-.13-.73-.13-1.14,0-.28.02-.55.04-.82.68-.04,1.32-.47,1.59-1.13.38-.96.74-1.93,1.1-2.9.04-.1.08-.2.13-.29.31-.72.63-1.45.95-2.17,0-.02.02-.04.03-.06.65-1.44,1.32-2.88,1.92-4.34.18-.45.36-.89.48-1.36.18-.73.04-1.52-.55-2.04-.04-.03-.08-.07-.12-.1.74-1.45,1.5-2.88,2.27-4.32,1.63-2.83,3.32-5.64,4.62-8.65.87-1.95,1.58-3.97,2.45-5.92.69-1.55,1.49-3.05,2.16-4.61.03-.39.06-.78.1-1.17.32-.2.57-.51.73-.87.2-.46.32-.97.46-1.46.11-.38.23-.77.34-1.16.05-.15.1-.3.14-.45.02-.07.04-.15.05-.22.1-.37.2-.73.3-1.1.13-.5.29-1.03.31-1.56.28-.78.56-1.56.85-2.34.39-1.07.77-2.13,1.16-3.2.19-.53.39-1.06.58-1.59.1-.29.2-.57.29-.86.07-.24.11-.49.1-.74.06-.17.13-.34.19-.51.21-.57.42-1.14.63-1.71.26-.73.6-1.49.62-2.28,0-.03,0-.06,0-.1.38-.94.77-1.87,1.17-2.8.25-.58.49-1.17.73-1.75.28-.67.68-1.43.62-2.17-1.48-1.22-2.69-2.78-3.92-4.25-.75-.9-1.47-1.82-2.14-2.78-.81-.6-1.36-1.49-1.9-2.36-2.07-3.33-3.74-7.49-1.45-9.86-1.26-.92-2.05-2.26-2.61-3.75-.67-1.7-1.22-3.45-1.75-5.2-.56-1.66-1.03-3.34-1.42-5.04-.07-.28-.13-.56-.2-.84-1.77-1.95-1.94-4.87-2.66-7.32-1-2.95-.89-6.07-1.25-9.13-.22-3.89-.34-7.8.27-11.66.38-3.58,1.52-7,2.89-10.31.96-3.06,3.79-9.35,6.42-11.09,1.39-1.56,2.73-3.53,4.86-4.07.29-.2.61-.37.94-.51.43-.78,1.1-1.45,1.96-1.88,2.1-1.1,3.83-2.75,5.97-3.77,2.42-1.26,5.13-1.77,7.84-1.84.48-.03.96-.07,1.44-.12-.04-3.47.61-6.98,1.45-10.38.23-.1.45-.24.65-.43.3-.28.47-.71.64-1.08.14-.3.28-.61.42-.92,0,0,0-.02.01-.03,0,0,0,0,0-.01,1.1-2.38,2.18-4.77,3.24-7.16,0,0,0-.01,0-.02,0,0,0,0,0,0,.64-1.46,1.28-2.92,1.91-4.38.31-.72.62-1.44.93-2.16.15-.34.3-.68.45-1.02.17-.38.36-.77.48-1.18,1.06-.99,2.13-1.98,3.16-3-.29-.84-.28-1.78.09-2.62.54-1.52,1.28-3.05,2.55-4.08.1-.08.21-.16.32-.23-.75-1.38-1.45-2.79-1.98-4.26-.65-.89-1.32-1.76-1.93-2.67-.92-1.39-1.47-3.01-2.6-4.26-.79-1.07-2.09-1.43-3.17-2.13-1.57-1.18-3.27-2.07-4.98-3.01-.72-.47-1.44-.96-2.21-1.36-1.84-.64-3.6-1.47-5.06-2.8-2.35.5-4.28-1.27-5.19-3.28-1.55-2.71-3.01-5.47-4.32-8.31-3.04-6.88-5.57-14.21-5.65-21.81.07-1.82-.04-3.89.88-5.51-.49-2.42-.71-5.01.24-7.29.81-1.4,2.36-1.53,3.65-.94.06-.04.11-.07.16-.1.4-.25.84-.41,1.3-.51.33-.22.67-.41,1.02-.58,1.29-.63,2.76-.56,4.15-.31,1.57-.48,3.2-.8,4.84-.97,3.53-.54,7.09-.4,10.56.43,2.17.46,4.2,1.38,6.28,2.11,2.49,1.02,5.19,1.57,7.41,3.18.05.03.1.07.15.1.55-.25,1.19-.32,1.79-.13,2.5.82,4.4,2.91,5.42,5.28.16.37.33.69.67.92.93.81,1.75,1.75,2.52,2.71.71.88,1.26,1.88,1.81,2.86,1.47,2.7,2.46,5.63,3.25,8.48.99,1.84,2.4,7.12,1.43,9.98.12.57.24,1.14.36,1.71.37,2.57,1.97,6.79,1.39,9.39.72-.21,1.44-.36,2.18-.48.08-.25.21-.48.38-.7.49-.66,1.33-.96,1.96-1.49,6.17-4.04,13.45-6.1,20.6-7.66,7.56-1.53,15.31-1.71,22.99-1.88.25.02.51.02.76.02.32-.81,1.02-1.46,1.99-1.56,2.4-.13,4.83-.14,7.24-.14,7.74-.12,15.42,1.1,23.04,2.31,6.03,1.2,12.14,2.11,18.03,3.92,4.24,1.07,8.2,2.97,11.84,5.37,1.09.3,2.18.64,3.28.89.96.14,1.92.23,2.84.55,1.42.47,2.75,1.2,3.48,2.56.27.56.59,1.11.85,1.68.25-.34.51-.67.77-1,.09-.83.36-1.64.49-2.46.67-2.94,1.28-5.98,2.61-8.7-.66-3.81-2.61-7.41-2.68-11.28-3.11-7.19-5.26-15.01-5.08-22.9.17-2.89.67-5.76,1.3-8.58.49-2,.97-4,1.53-5.98.43-1.24.78-2.78,2.11-3.34.23-.49.47-.97.75-1.44-.35-1.82,1.21-3.34,1.97-4.87.96-1.4,1.74-3.48,3.72-3.52,1.17-1.25,2.03-3.03,3.65-3.73.68-.63,1.41-1.23,2.07-1.89.83-.79,1.36-1.78,2.11-2.64,1.43-1.44,3.78-2,5.16-.18,1.19,1.43,2.22,3,3.18,4.6.55.93,1.04,1.89,1.49,2.87,1.47,1.66,2.62,3.59,3.83,5.45,1.09.26,1.68,1.29,2.09,2.25.82,1.72,1.65,3.45,2.45,5.19.89,1.89,1.68,3.83,2.3,5.83.29.51.58,1.05.63,1.64-.01.77.35,1.47.52,2.21,1.53,1.58,1.65,4.2,2.39,6.22,1.22,3.9,2.71,7.75,3.68,11.68,1.56,1.13.98,3.3,1.2,4.96.13,3.63.76,7.26.5,10.9-.32,2.82-.66,5.64-.91,8.47-.25,2.94-1.26,5.72-2.3,8.46-.63,1.65-.87,3.43-1.87,4.95-.61.91-1.29,1.97-2.31,2.42-.7,1.34-1.41,2.66-2.17,3.97-1.76,3.12-4.24,5.69-6.62,8.33,1.2,1.97,2.37,3.96,3.39,6.04,2.34.7,3.12,3.52,4.32,5.4,2.47,4.13,3.51,8.82,3.24,13.54,1.47.21,2.82,1.15,3.36,2.74.8,2.76.72,5.69.84,8.54.66,4.42,1.44,8.96.51,13.4.07,1.73.12,3.46.1,5.2.52,1.02.91,2.12,1.34,3.18.98,2.27,1.64,4.64,2.2,7.05,1.14,3.68,1.76,7.53,1.92,11.38.03,2.49-.63,4.95-1.22,7.35.1,1.4.16,2.8.17,4.21.02,2.8-.09,5.62-.66,8.36-.19.81-.43,1.73-.75,2.68.07,1.14,0,2.32.03,3.41,1.75,2.17.61,5.15.61,7.68.16,1.81-.79,3.46-2.04,4.7-.02.29-.03.44-.04.7,1.33,1.39,1.08,3.41,1.23,5.17.21,3.64.78,7.25,1.46,10.83.55,2.9,1.29,5.78,1.39,8.73,0,.21,0,.42-.02.64.2.27.39.57.57.9,2.57,1.58,2.15,5.02,3.4,7.45.58,1.5.97,3.07,1.35,4.63.49,1.25,1.01,2.48,1.54,3.71.43,1.08,1.04,2.11,1.4,3.2.13,1.04.75,1.85,1.18,2.78,2.01,4.35,4.41,8.49,7.35,12.29,1.41,2.08,2.99,4.19,4.22,6.43,1.13.65,2.02,1.72,2.93,2.67,2.49,2.68,4.77,5.55,6.92,8.51,1.67.94,2.73,2.67,3.92,4.13,2.35,1.67,4.95,3.45,5.77,6.37.27.22.51.48.73.76.08.51.18,1.03.26,1.54.1.74.19,1.48.24,2.22.03.52.03,1.04.02,1.57-.03.69-.1,1.37-.18,2.05-.06.41-.13.81-.22,1.2-.03.14-.07.27-.1.4-1.56,1.89-4.27,3.01-6.47,1.78-2.19,1.12-4.63,1.85-7.11,1.64-.74-.05-1.47.04-2.21.12-.58.07-1.17.14-1.76.14-.16,0-.33,0-.49-.02-4.31-.3-11.93-3.91-13.54-8.15-.29-.64-.55-1.31-.76-1.99-.12,1.21-.28,2.41-.53,3.61.32,2.93.53,5.88.39,8.83,0,0,0,.02,0,.03.36,1.41.69,2.86.74,4.33-.11,1.4-.24,2.8-.3,4.2-.24,2.34-.09,4.7-.17,7.04-.12,2.42-.55,4.8-1.06,7.17-.23,1.13-.32,2.3-.59,3.42-.43,1.76-1.17,3.41-1.66,5.15-.4,2.03-1.3,3.89-1.86,5.87-.54,2.71-1.68,5.25-3.66,7.22-2.59,2.94-5.51,5.46-9.7,4.5-3.82-.64-5.18-3.42-6.12-6.75-.88-2.81-.32-5.76-.32-8.64.07-2.27-.82-4.99.95-6.82.06-1.15-.01-2.35.34-3.45-1.69-5.17-2.28-10.77-1.73-16.21-1.72-1.16-3.01-3.5-4.07-5.05,0,0,0,0,0,0-.17-.31-.33-.63-.46-.95-.23-.58-.27-1.26-.17-1.89-.27-.54-.59-1.09-.9-1.65-1.81.2-3.57-1.05-5.11-1.93-.87-.41-1.82-.64-2.6-1.31-2.79.95-5.24,3.25-8.4,2.57-.11-.02-.22-.05-.33-.08-.51.43-1.01.86-1.51,1.29-1.49,1.26-3.04,2.46-4.4,3.84-2.94,3.81-5.72,7.76-8.76,11.5-.73,1.56-1.43,3.14-2.12,4.72-.3.78-.6,1.55-.92,2.32-.32.8-.69,1.57-1.08,2.33-.04.09-.07.17-.11.26,1.91,2.16.4,4.94-.31,7.27-.88,2.9-1.92,5.76-3.56,8.32-1.18,2.84-1.63,6.54-5.05,6.72-1.82,4.19-4.63,7.93-7.43,11.51-2.67,3.18-4.86,6.8-8.01,9.55-4.18,3.41-8.66,6.64-13.69,8.64-2.88,1.4-5.96,2.41-9.21,2.04-5.46-.36-11.28-1.61-15.12-5.82-3.33-1.7-6.17-4.77-7.37-8.33-1.13-3.15-.92-7.36,2.38-9.08.8-.48,1.75-.78,2.65-.98,1.16-.31,2.52-.08,3.42-1.02,2-1.91,4.19-3.62,6.25-5.45,1.41-1.45,2.3-3.47,4.09-4.5.64-1.31,1.26-2.83,2.68-3.45-.42-1.18-.22-2.44.01-3.66.23-2.44.77-4.87,1.7-7.14.35-1.21.72-2.47,1.49-3.49-1.98-4.64-4.23-9.21-5.49-14.11-1.88-1.76-3.81-3.62-5.5-5.64-.31-.04-.64-.12-.96-.27-3.05-1.44-6.17-2.79-9.27-4.14-4.37-1.48-9.03-1.86-13.54-2.78-.78-.08-1.56-.26-2.29-.56-.12.06-.23.11-.34.17-4.23,2.09-8.67,3.77-13.24,4.89-4.2,4.47-7.55,9.63-10.32,15.08-1.21,1.72-1.06,4.14-2.89,5.42-.11.08-.22.15-.33.21-.36,5.65-.69,11.3-1.08,16.95-.12.78-.12,1.59-.13,2.38-.01,2.58.32,5.15.86,7.67.57,2.66,1.3,5.28,2.13,7.87,1.07,3.36,2.34,6.64,3.66,9.91.04.12.07.24.11.35,0,.01,0,.02,0,.04h0c0,.12,0,.23.02.35,0,.04,0,.08,0,.12.01.15.03.3.05.45.01.08.03.17.04.25.01.07.03.15.04.22,0,0,0,0,0,0,0,.04.01.08.02.11.02.11.05.23.07.34.14.61.28,1.21.44,1.82.28,1.09.6,2.16.92,3.24.08.28.16.57.24.85.16.57.32,1.14.47,1.71.08.29.15.57.23.86.13.51.25,1.02.37,1.53.19.8.37,1.61.55,2.41,0,.02,0,.03.01.05.33,1.56.66,3.11.99,4.67.02.12.05.24.07.36,0,.07.01.14.02.21.06.74.14,1.47.23,2.2-.06.29-.09.59-.09.87,0,.24,0,.48,0,.72-.29.32-.49.73-.67,1.1-.17.33-.32.67-.48,1.01-.32.68-.63,1.35-.94,2.03,0,0,0,0,0,0h0s0,0,0,0t0,0h0s0,0,0,0c0,0,0,0,0,.01,0,0,0,0,0,.01-.02.05-.04.1-.07.15-.62,1.35-1.23,2.7-1.89,4.03-.38.73-.76,1.48-1.22,2.16-.04.06-.08.12-.12.18,0,.01-.02.02-.02.03-.28.39-.58.77-.89,1.13-.29.3-.58.59-.89.87-.55.46-1.12.89-1.71,1.3-.34.07-.68.14-1.02.22-.86.2-1.71.43-2.56.71h0s-.01,0-.02,0c-.96-.07-1.87-.38-2.65-.87-.61,1.02-1.49,1.87-2.56,2.39-.1.1-.19.19-.3.28-.32.03-.64.05-.96.07-.08,0-.15,0-.22,0-.4,0-.8-.01-1.2-.04Z"/>
            <path class="cls-21" d="M18.61,295.24s0-.02.01-.03c-.01.04-.03.08-.04.12l.03-.09Z"/>
          </g>
          <g>
            <path class="cls-7" d="M258.43,131.65c.34.1.68.23,1.02.36-2.76-1.7-5.27-3.76-7.95-5.56.78.89.93,2.26.22,3.25,2.17.88,4.47,1.33,6.71,1.95ZM259.36,137.36c-2.01-.84-4.11-1.36-6.23-1.87-2.79-.79-5.51-1.9-7.93-3.51-1.8.29-3.09-1.29-4.43-2.22-2.56-1.35-4.77-3.32-6.43-5.69-1.1-.3-2.02-1.03-2.93-1.69-1.21-.95-2.16-1.57-3.06-2.67-.81-.47-1.29-1.31-1.7-2.12-.7-.87-1.36-1.81-1.64-2.91-.64-2.77-.9-6.06.81-8.51,1.27-1.64,3.1-3.56,5.38-3.01,1.04.16,2.28.54,2.93,1.41,3.16,1.46,5.77,3.96,7.59,6.91,1.23,1.8,2.39,3.64,3.61,5.44,1.02,1.48,2.22,3.58.69,5.14.89.66,1.77,1.32,2.65,1.99.79-.55,1.91-.16,2.8-.1,2.79.3,5.5,1.13,8.02,2.36,1.26-1.68,3.57-.95,5.21-.32,1.23.51,2.61.85,3.53,1.88.99,1.15.95,2.91.22,4.18,0,1.64-1.04,3.02-2.41,3.83-1.78,1.7-4.35,2.39-6.68,1.46Z"/>
            <path class="cls-7" d="M256.28,134.06c-.95-.03-1.77-.56-2.52-1.15-.75-.58-1.61-.98-2.43-1.44-2.89-1.75-9.51-4.83-10.16-8.29-2-1.82-1.67-5.14,1.41-5.19,1.33.09,2.23,1.22,3.25,1.96.46.45,1.05.59,1.61.88.9.5,1.76,1.07,2.62,1.65,1.86,1.37,3.82,2.6,5.89,3.64,1.76.89,4.5,2.09,3.61,4.53.89,2.03-1.26,4.18-3.28,3.41Z"/>
            <path class="cls-7" d="M29.34,140.78c-1.03-.29-1.95-.89-2.65-1.69-2.93.23-4.75-2.86-4.19-5.5.28-1.34.99-2.53,1.58-3.75,1.43-1.98,3.95-3.24,6.39-3.17.53-.24,1.08-.45,1.64-.57.34-.07.69-.11,1.03-.1,2.8-2.86,5.86-5.47,8.95-8.02-.33-1.26.48-2.43.85-3.59.83-2.17,2.16-4.22,4.28-5.3,2.34-2.76,5.39-2.79,7.89-.18,1.55.51,2.31,2.3,1.94,3.82.62,3.61-.29,8.33-3.71,10.24-3.2,6.41-6.9,10.58-13.5,13.55-2.76,2.65-6.46,5.38-10.49,4.26Z"/>
          </g>
          <g>
            <path class="cls-18" d="M21.12,360.62c-.25-2.31-.67-4.96.21-7.16.74-1.37,2.68-1.68,3.8-.58,1.14,1.06.66,2.69.77,4.06-.04,1.08.23,2.18.15,3.25-.23,2.68-4.23,3.04-4.93.43Z"/>
            <path class="cls-18" d="M21.29,359.86c-.55-.94-.62-2.2-.17-3.19.2-.38.67-1.22,1.17-1.03-.08.05-.04.15-.04.23.32,1.43-.24,2.79-.95,3.99Z"/>
            <path class="cls-18" d="M20.12,359.78c-.71-1.63-.14-4.07,1.69-4.65.14-.02.3,0,.28.16-.02,0-.03-.01-.05-.01-.15,1.68-.85,3.2-1.92,4.5Z"/>
            <path class="cls-6" d="M38.06,329.8c.03-.26-.02-.53-.21-.78-.02-.03-.04-.05-.06-.07.12-.42.42-.88.11-1.31.07-1.21-.4-2.38-.61-3.56.41-.39.45-1.08,0-1.46.09-.36.17-.72.24-1.09.06-.32.09-.67-.01-.98.55-.8-.23-1.88-1.15-1.49-.36.14-.59.54-.79.85-.39.58-.71,1.19-1.05,1.8-.69.92-1.39,1.75-2.14,2.64-2.05,2.19-4.12,4.54-5.8,7.04-1.69,2.15-2.99,4.92-2.6,7.7,0,.02.02.02.03.04-.31.63-.56,1.23-.74,1.55-.6.21-1.01.76-1.4,1.24-.71.92-1.47,1.81-2.1,2.79-1.92,1.16-2.24,5.11.36,5.62,0,.04,0,.08.01.12-.36.47-.21,1.1-.19,1.65,0,.66,0,1.35.15,2,.04.16.12.29.21.4-.01.07-.02.15-.03.22-1.51,1.64-2.38,4.78-1.32,6.84.62,1.04.95,2.23,1.64,3.23.08.55.18,1.09.25,1.64-.02.43,0,.86.17,1.27-.85,1.67-1.24,4.13.49,5.38.19.44.48.83.96.87.02,1.06.24,2.12.23,3.17-.09.9-.25,2.15.8,2.55,1.85.49,2.2-2.02,2.49-3.31,1.66-1.02,1.22-3.4,1.63-5.02.15-.45.03-.92,0-1.38.07-1.26.11-2.52.1-3.79.64-.6.27-1.56.26-2.32-.2-2.06-.58-4.08-.79-6.14-.08-.78-.1-1.56-.04-2.34.01-.44.08-.89.02-1.33-.04-.29-.22-.53-.46-.67.03-.11.06-.23.09-.34.2-.92.29-1.85.36-2.79.08-.98.19-1.96.33-2.94.28-.38.45-.83.65-1.26.47.3,1.22.07,1.39-.48.09-.3.18-.61.27-.91.33-1.09.72-2.17,1.2-3.2.79-1.64,1.73-3.19,2.79-4.66.29-.45.67-.87.93-1.34.82-.05,1.29-1.13,1.82-1.66.49-.62.94-1.27,1.36-1.94.39-.55.87-1.54.14-2.05Z"/>
            <path class="cls-18" d="M95.76,391.2c-.37-.06-.71-.28-.84-.64-.08-.22-.16-.43-.23-.65-1.16-.44-.98-2.28-1.28-3.3-.33-1.83-.8-3.67-.81-5.53.05-.66.85-1.06,1.42-.73.8.52.71,1.68,1.02,2.5.49,1.96,1.02,3.91,1.52,5.87.28.88.64,2.56-.78,2.49Z"/>
            <path class="cls-6" d="M105.82,408.25c0-2.39-.21-4.77-.83-7.09.19-.49-.12-.97-.27-1.43-.29-.77-.57-1.54-.86-2.31-1.15-3.32-2.6-6.53-3.43-9.95-.8-2.93-1.52-5.88-2.32-8.81-.43-1-.37-3.16-1.89-3.01-.45-1.89-.84-3.82-1.49-5.66-.13-.31-.37-.52-.63-.64-.08-.72-.15-1.44-.21-2.16-.24-3.15-.22-6.31-.1-9.46.12-.66-.05-1.48-.85-1.54.43-2.52,1.16-5.03,1.65-7.55.16-.64.52-1.31.41-1.98-.11-.86-1.26-1.15-1.77-.45-.4.75-.45,1.67-.73,2.48-.35,1.52-.82,3.02-1.18,4.53-.21,2.65-.78,5.36-1.08,8.08-.12.83-.59,1.54-.93,2.29-.45.83-.65,1.82-1.27,2.54-1.51.92-1.9,1.83-2.32,3.52-.65,2.82,1.67,5.05,2.85,7.37.47.95.86,1.95,1.13,2.98-.46,1.27-.88,2.56-1.07,3.9-.17,1.9-.28,3.86.04,5.75.2,1.08.9,1.95,1.48,2.84.47.57.89,1.54,1.47,2.08.64.9.69,2.26,1.62,2.92-.62,1.95-1.85,3.72-2.06,5.79-.19,1.48.96,4.67,2.52,5.04.48,1.09,1.1,2.01,1.25,3.22-.52,1.61-.33,3.5.63,4.91.52.68,1.3,1.09,2.09,1.35.2.24.43.45.76.48.5.46.64,1.36,1.43,1.39,0,0,.01,0,.02.01.09.07.18.11.28.14.07.57.24,1.17.13,1.74-.35.73.14,1.67.96,1.74,3.12-.1,3.71-3.9,4.09-6.34.53-2.88.63-5.8.46-8.71Z"/>
            <path class="cls-6" d="M170.29,350.52s-.04-.07-.07-.1c-.03-.88-.15-2.22-1.26-2.31-.24-.64-.62-1.35-1.38-1.33-.05,0-.1.02-.15.03-.07-.79-.91-1.53-1.17-2.28-1.21-2.06-2.13-4.33-3.55-6.25-.28-1.54-.84-3.02-1.51-4.43-.56-1.75-1.42-3.42-2.72-4.73-.59-.73-1.28-2.53-2.38-2.33-1.27-1.36-3.03-2.56-4.96-2.43-.89.13-2.3-.22-2.21,1.15.08.56.56.78,1.04.91,1.06.56,2.17,1.01,3.29,1.45-.1.51.25.98.51,1.4.31,1.24.82,2.43,1.4,3.58.58.86,1.38,3.57,2.63,3.27.33.56.55,1.3,1.16,1.63.77,2.62,1.28,5.3,1.99,7.93-.73.65-.22,1.53.22,2.29-.63.69-.44,2.51-.63,3.33-.16,1.72-.29,3.45-.25,5.18.05.64.02,1.32.06,1.97-.44.77-.75,1.71-1.16,2.39-.64,1.39-1.25,2.81-1.78,4.25-.19.67-.65,1.36-.53,2.08-2.51,2.97-5.46,5.31-8.37,7.94-.54-.32-1.15.03-1.56.4-.69-.13-1.25.36-1.76.76-.51-.48-1.25-.2-1.65.29-.67.52-1.35,1.01-1.96,1.6-.34.06-.66.22-.94.43-1.98-.8-3.45,1.5-3.52,3.24-.46,1.29-.48,2.98.78,3.81.03.95.78,1.94,1.82,1.75.1,1.25,1.38,2.38,2.61,1.71.02.08.05.15.09.22.15.26.43.44.74.48.58.06,1.08-.37,1.46-.76,2.05-.54,2.36-3.09,2.81-4.84.88.17,1.4-.84,2.19-1.08.7.57,1.43-.13,1.88-.66,1.21-.03,2.66.45,3.64-.49,1.11-1.29,1.48-3.08,1.82-4.71.92-1.28,1.89-2.55,2.5-4.01,1.04-.42,2.04-.96,2.89-1.68,1.25.05,4.93-2.98,3.4-4.22.31-.88.99-2.06.33-2.91.22-2.33.88-4.61,1.15-6.98.1-.12.2-.24.28-.35.83-.3,1.36-1.11,1.78-1.85.3-.38.73-.66.92-1.12.88-.27,1.3-3.54.12-3.62Z"/>
            <path class="cls-18" d="M275.63,314.89c-1.44-.33-1.11-3.31-1.61-4.49-.2-.73-.41-1.47-.57-2.21-.24-.64-.74-1.69.1-2.09-.19-1.13.41-2.75,1.76-1.88.81.83.93,2.11,1.35,3.16.22,1.24,2.51,5.73-.09,5.41.27.84.27,2.23-.95,2.11Z"/>
            <path class="cls-6" d="M299.37,315.7c-.3-.49-.89-.7-1.17-1.19-.79-1.34-2.14-1.97-3.64-2.3-1.13-.32-2.27-.48-3.44-.33-.76-.04-1.53-.3-2.29-.04-1.19.36-2.45.58-3.7.54-.54-.27-1.08-.53-1.61-.82-.85-.58-1.64-1.26-2.37-2-.09-.39-.16-.79-.2-1.2-.31-1.54-.39-3.02-.45-4.62-.08-1.36-.66-2.83-1.96-3.44-.53-.27-1.15-.21-1.69-.44-.73-.38-1.56-.53-2.29-.89-.62-.69-.92-1.59-1.57-2.33-.62-.93-2.04-.61-1.99.56.13.74.44,1.46.51,2.22.23,2.49.6,4.97.77,7.47.11,1.99.37,3.98.89,5.91.09.22.23.41.34.63.36.59,1.31.54,1.64-.05.79.99,3.39,4.35,4.57,4.27.22.13.45.25.67.37.23.12.45.21.7.27.06.01.12.01.18.01.11.07.23.13.36.19,2.21,1.19,4.73,1.69,7.19,2.04,1.91.05,3.83-.27,5.68-.75,1.4-.41,2.64-1.26,4.11-1.48,1.34-.16,1.44-1.71.76-2.62Z"/>
          </g>
          <g>
            <path class="cls-9" d="M262.67,183.8c.02-2.47-.11-4.94-.48-7.38-.3-1.49-.33-3.1-1.05-4.46.68-.96.36-2.16-.03-3.17-.56-1.72-1.22-3.39-1.91-5.06-1.06-2.11-1.89-6.69-4.9-6.41-.75-1.18-1.57-2.33-2.49-3.38-.69-1-1.42-2-2.2-2.96-.02-.04-.03-.08-.04-.12-.66-1.34-1.87-2.37-3.03-3.28-.12-.07-.23-.15-.35-.23-.51-.45-1.03-.87-1.57-1.27-1.32-1.3-2.4-2.87-3.89-4.01-1.79-1.49-3.91-2.48-5.92-3.62-1.84-.84-3.87-1.14-5.8-1.71-1.38-.44-2.75-.96-4.17-1.23-2.48-.45-5.05-.48-7.56-.4-2.02.11-3.98.58-5.89,1.21-1.19-.12-2.58.26-3.65.65-.84.3-1.67.57-2.56.59-2.56.44-4.84,1.85-6.96,3.3-7.19,3.6-13.95,8.44-18.98,14.76-2.92,3.42-5.9,7.04-7.61,11.24-.27.77-.28,1.45-.12,2.02-.94,2.12-1.69,4.24-2.17,5.53-1.55,4.52-3.02,9.15-3.19,14-.43,8.31,1.84,17.07,7.66,23.2,4.11,4.53,7.97,9.5,13.42,12.46,3.11,1.9,6.21,4.11,9.95,4.45,2.22.32,4.48.41,6.7.76,2.39.49,4.75,1.31,7.08,1.98,5.35,3.75,10.84,3.68,15.63.1,1.81.25,4.09-.97,5.84-.99,3.16-.25,6.01-1.71,8.64-3.38,2.2-1.53,5.37-3.01,5.73-5.96,1.15-1.11,2.09-2.4,2.93-3.74,3.17-2.87,6.29-5.92,8.13-9.85.89-1.77,1.57-3.68,1.93-5.64.15-.31.27-.63.39-.96,1.01-1.99,1.78-4.09,2.15-6.3.48-3.56.26-7.17.33-10.75Z"/>
            <path class="cls-9" d="M83.18,169.33c-.79-3.88-2.58-7.5-4.74-10.8-1.1-1.45-1.75-3.66-3.69-4.15-2.05-3.31-4.54-6.61-8.22-8.19-2.3-.94-4.74-1.5-7.2-1.87-2.33-.25-4.8-1.1-7.12-.43-.5.2-.87.57-1.13,1.01-1.94.24-3.84.78-5.62,1.59-1.84-.85-3.64.56-5.08,1.58-4.31-.1-9.1,6.95-11.33,10.29-2.06,2.36-3.55,5.13-4.69,8.03-.75,2.18-2.18,4.44-1.89,6.8-.32,1.22-.58,2.46-.81,3.71-.8,1.58-.84,3.45-.91,5.19.04,1.39-.59,2.88.08,4.2.24,4.09.85,8.18,2.28,12.03.85,2.45,3.68,9.35,6.86,8.92.14.2.36.35.4.6.75,1.89,2.13,4.3,4.18,4.92,1.07.03,2.06.43,3.09.71,1.3,2.2,6.05,2.9,8.18,2.92,1.18,0,2.35-.03,3.53.01,6.26.47,11.96-.77,17.27-4.17,3.31-1.72,6.75-3.58,9.03-6.61,1.75-2.15,3.43-4.47,4.14-7.19.24-.74.3-1.38.23-1.94.5-.97.85-2.04,1.23-3.06,1.53-4.15,2.26-8.5,2.35-12.91.2-1.04.35-2.25.22-3.32.32-2.6-.24-5.3-.63-7.87Z"/>
            <path class="cls-12" d="M119.58,242.18s.06.03.09.05c-.02-.07-.03-.13-.04-.2,0-.04-.01-.07-.02-.11h0c-.03.06-.06.11-.09.17,0,.02-.02.03-.02.05.03.01.06.03.09.04ZM115.25,251.19c-.19-.01-.36-.06-.51-.15-.85-.02-1.68-.89-1.45-1.78.22-.49.42-.97.68-1.44.34-1.47.93-2.88,1.33-4.33.54-2.24,1.67-4.86,4.15-5.4.05-1.61,2.17-.91,3.17-.75,3.23.64,3.79,4.31,5.34,6.62.06.02.12.04.18.07.43.2.52.63.53,1.06,1.17,1.55-2.84,4.03-3.99,3.06-1.72.59-3.69-.74-3.84-2.54-.39-.76-.16-1.69-.73-2.37-.4,1.37.06,2.55-.33,3.87,0,.66.09,1.4-.29,1.99-.62.73-1.55,1.98-2.62,1.8-.47.29-1.08.27-1.62.29Z"/>
          </g>
          <path class="cls-3" d="M23.28,203.83l10.74,28.26,7.24,14.17s12.31,19.75,36.04-18.49c0,0,12.8-29.59,12.16-36.92-.65-7.33,2.89-16.26-2.6-22.79-2.2-2.62-10.7-14.42-8.96-12.49,7.17,7.9,7.71,25.19,7.71,25.19l-4.4,17.72s-16.93,18.24-28.05,19.85-29.89-14.49-29.89-14.49Z"/>
          <path class="cls-3" d="M162.06,176.51s-9.03,46.7,30.95,71.42c21.14,13.07,45.85,7.31,66.96-14.12l1.61-29.1s-12.61,24.2-32.88,27.92c-33.58,6.15-56.32-19.46-58.02-25.11-4.38-14.53-8.63-31.01-8.63-31.01Z"/>
          <path class="cls-20" d="M231.84,7.38s-15.63,17.22-14.3,34.33c1.32,17.11,8.75,28.55,3.26,45.43,0,0,9.51,1.95,13.24-14.07,3.72-16.02-5.51-29.89-2.81-39.2,2.7-9.31,3.73-21.75.62-26.49Z"/>
          <path class="cls-19" d="M22.08,381.04s9.84,2.36,7.57-15.19-.07-22.87,1.37-24.39,8.78-8.99,8.78-8.99l-1.36-44.22,1.35-44.12-8.96,21.86s-38.22,83.16-8.74,115.05Z"/>
          <path class="cls-3" d="M129.52,319s-62.33-8.72-52.18,60.26c6.91,47.02,20.84,48.24,20.84,48.24,0,0,10.6-6.55,10.37-12.76s-11.13-38.37-11.13-38.37l-3.37-21.25,5.43-19.03c8.98-10.93,19.35-16.31,30.04-17.1Z"/>
          <path class="cls-3" d="M144.15,377.92s7.26,13.58,24.14,4.67c16.89-8.91,26.93-57.14,38.74-63.59,11.81-6.46,24.74-11.53,32.98,0,0,0-18.6-5.59-29.03,20.42s-24.82,48.48-24.82,48.48c0,0-21.24,17.66-37.85,9.25s-9.6-20.8-9.6-20.8l5.43,1.56Z"/>
          <path class="cls-3" d="M265.34,258.57s16.11,54.96,25.72,61.4c0,0-12.17,3.7-19.3-6.3l-4.47-35.33-1.95-19.77Z"/>
          <path class="cls-3" d="M115.24,271.24s2.21-18.01,18.13-13.46l-3.57-11.32s-3.9,5.05-8.7.27c0,0-1.81,6.56-7.85,5.1,0,0-1.28,13.04,1.99,19.42Z"/>
          <path class="cls-4" d="M226.19,106.49s9.83,22.74,41.06,27.14c0,0-6,9.97-31.21-7.47-8.3-5.74-13.15-7.81-9.86-19.66Z"/>
          <path class="cls-4" d="M31.2,127.31s-3.41,8.32,3.24,5.99,22.25-17.67,20.04-24.07l2.56,3.5s-1.66,16.34-14.84,22.6-15.77,5.23-17.52,3.34-3.08-5.91-1.11-8.12,8.33-4.92,8.33-4.92l-.69,1.67Z"/>
          <path class="cls-23" d="M20.79,188.59s19.61,15.28,39.58-4.02c19.97-19.3,5.52-36.65,5.52-36.65,0,0,33.59,17.61,8.37,60.46,0,0-44.58,28.84-53.47-19.79Z"/>
          <path class="cls-23" d="M195.12,142.51s-11.88,34.46,13.16,52.48,52.51-1.18,52.51-1.18c0,0-.78,37.86-41,39.75-40.22,1.9-49.1-26.04-49.1-26.04,0,0-9.32-23.43.95-40.66s23.48-24.35,23.48-24.35Z"/>
          <path class="cls-15" d="M84.54,60.42c-3.13-6.93-7.22-13.61-14.43-16.82-8.17-3.65-17.84-4.66-26.7-4.8-6.44-.11-6.2,4.98,0,10,5.52,4.47,14.55.88,21.27,3.36,6,2.21,12.75,6.67,15.24,12.17,2.64,5.86,7.25,1.92,4.62-3.9Z"/>
          <path class="cls-15" d="M250.65,58.97c-.3-12.49-3.67-24.52-10.07-35.26-2.67-4.48-6.3-3.57-3.61.94,5.67,9.51,5.29,23.01,5.56,34.09.13,5.21,8.25,5.48,8.12.24Z"/>
          <path class="cls-14" d="M215.29,103.83c-2.33-3.74-5.48-6.85-9.11-9.47-10.04-10.49-25.32-15.27-39.31-18.03-14.28-2.82-32.98-4.33-46.98,2.41-9.09,2.4-17.83,6.13-25.84,11.17-13.14,8.28-27.44,21.1-13.16,36.92,6.09,6.74,11.98,9.93,18.38,16.09,5.41,5.2,7.04,12.19,9.96,21.05,2.46,7.45,6.39,23.04,15.26,25.82,7.35,2.31,14.54-2.97,17.49-9.73,3.27-7.49,7.16-18.8,12.85-24.51,12.12-12.17,21.12-23.45,36.76-28.47,14.74-4.74,33.23-7.96,23.7-23.26Z"/>
          <ellipse class="cls-13" cx="49.26" cy="114.17" rx="5.4" ry="2.99" transform="translate(-70.54 80.84) rotate(-51.11)"/>
          <ellipse class="cls-13" cx="233.43" cy="111.14" rx="2.99" ry="5.4" transform="translate(-10.22 197.61) rotate(-45)"/>
          <path class="cls-1" d="M72.5,296.96c-.29-.52-.75-1.22-1.11-1.69-.31-.41-.05-1.46-.37-1.87.18.23.18.22,0-.01-.04-.06-.17-.27-.29-.48.81-1.91,0-4.3-1.8-5.35-2.06-1.21-4.65-.43-5.88,1.54-1.31,2.08-1.3,4.61-.39,6.84.8,1.94,3.11,2.9,3.92,4.34,1.14,2.02,2.83,2.84,4.81,1.68,2.03-1.19,2.24-2.98,1.1-5.01Z"/>
          <path class="cls-2" d="M53.42,276.91c.09-.16-.37-.92-.26-1.07.39-.55.3-2.26.81-2.7,1.8-1.5,3.55-2.62,2-4.17-1.78-1.78-3.27-1.73-5.07-.23-2.15,1.79-4.91,4.56-5.49,7.32-.31,1.47-.22,3.01.42,4.38.18.38.16,2.37.39,2.71-.19.16-1.88,4.08-.33,5.63,1.78,1.78,4.33.83,6.13-.68,2.43-2.04,3.86-4.63,2.88-8.04-.07-.23-.78-2.32-1.48-3.18Z"/>
          <path class="cls-2" d="M54.16,313.01c-.11-1.31-.42-2.24-1.01-3.41-.04-.08-.08-.15-.12-.23,0-.06.02-.11.02-.17,0-.99-.44-2.17-1.18-2.86-1.47-1.35-4.3-1.76-5.71,0-.56.7-1.01,1.37-1.24,2.25-.29,1.13-.2,1.47.24,2.52.22.51,1.29,1.01,1.52,1.52s.97,1.34,1.05,1.48c.45,1.78.38,3.03,2.39,2.94,2.04-.09,4.23-1.78,4.04-4.04Z"/>
          <path class="cls-2" d="M73.52,312.93c-.11-2.56-4.05-4.97-6.84-4.78-1.95.13-1.77.31-3.54,1.11-2.38,1.07-3.82,2.97-3.98,5.64-.16,2.62-1.25,4.25,1.34,4.13,1.57-.07,5.29-.66,6.17-1.72.27-.07,3.27-.21,3.54-.27,2.53-.27,3.43-1.37,3.3-4.12Z"/>
          <path class="cls-2" d="M68.4,337.81c-.12-.28-.22-.57-.31-.87.04-.18.06-.37.06-.58,0-.76-.34-1.66-.9-2.18-.59-.54-1.36-.94-2.18-.9-.76.03-1.68.28-2.18.9-.42.52-.78,1.04-.94,1.7-.17.69-.1,1.35.03,2.04.1.52.27,1.03.48,1.53.33.78.66,1.4,1.42,1.84.66.39,1.63.55,2.37.31.75-.24,1.47-.7,1.84-1.42.36-.68.62-1.63.31-2.37Z"/>
          <path class="cls-1" d="M59.57,362.04c-.67-2.3-1.7-4.31-3.15-6.09-1.27-1.55-3.74-1.57-5,0-1.33,1.66-1.35,4.07,0,5.72.11.14.22.27.33.41.24.34.21.28-.09-.16.22.18.41.67.54.93.09.17.5.79.46.99-.19-.54-.21-.6-.07-.19.06.18.11.35.16.53.58,2,2.47,3.52,4.35,2.82,1.74-.65,3.1-2.82,2.47-4.97Z"/>
          <path class="cls-2" d="M60.73,379.02c-.69-1.44.03-2.52-.66-3.96-.91-1.9-3.77-2.55-5.49-1.44-1.95,1.26-1.68,4.51-.71,6.54.69,1.44,1.82,1.83,2.51,3.27.91,1.9,1.47,3.38,3.19,2.27,1.95-1.26,2.13-4.64,1.15-6.67Z"/>
          <path class="cls-2" d="M77.03,394.55c-1.19-1.69-1.2-3.32-3.19-3.86-.44-.12-2.17-2.94-3.6-3.78-2.12-1.24-4.77-.67-5.87,1.82-1.46,3.31-3.16,5.63-.3,8.46,1.09,1.08,2.62,3.12,4.14,3.31-.16.49-.25,1.01-.25,1.56,0,3.23,3.48,4.31,6.33,4.53,3.6.28,6.25-1.81,5.31-5.13.19-.35.59-.72.46-1.13-.71-2.27-1.75-3.97-3.03-5.78Z"/>
          <path class="cls-2" d="M169.35,387.82c-3.52-.33-2.74,2.77-4.26,5.81-2.87,5.74,8.68,2.14,9.04,1.95-.47.25.95.28,1.24.3,2.24.14,3.57-4.05,5.61-4.91,4.2-1.75,7.58-5.6,8.75-10.25.41-1.63-9.58.73-9.58.73-4.43,6.91-7.61,6.65-10.8,6.35Z"/>
          <path class="cls-2" d="M196.92,331.58c-6.43,0-7.89,7.4-1.44,7.4s7.89-7.4,1.44-7.4Z"/>
          <path class="cls-2" d="M264.99,297.27c-.19-1.12.43-2.01.99-2.99,2.72-4.74-4.6-9.02-7.32-4.28-1.08,1.88-.52,2.75-.24,4.89.12.95.84,2.88,1.09,3.8.1.34-.48,2.56-.3,2.88-.77,1.26-1.07,1.64-.22,3.1,1.05,1.79,2.28,1.66,4.12.26,2.37-1.8,2.38-4.74,1.88-7.67Z"/>
          <path class="cls-1" d="M252.22,285.01c-.8-.69-1.6-1.38-2.4-2.07-.63-.54-1.82-.7-2.6-.55-.84.16-1.77.71-2.22,1.45-.48.76-.76,1.7-.55,2.6.22.95.71,1.59,1.45,2.22.8.69,2.1.67,2.9,1.36.63.54,1.31,1.4,2.09,1.26.84-.16,1.77-.71,2.22-1.45.48-.76.76-1.7.55-2.6-.22-.95-.71-1.59-1.45-2.22Z"/>
          <path class="cls-2" d="M255.6,261.86c-.2-1.63.08-2.74.08-3.93,0-.09-.31-.79-.39-.83-1.44-3.79-1.42-7.48-5.69-6.11-3.21,1.03-5.49,2.08-5.39,5.75.08,2.88,2.63,4.71,2.74,8.31-.33,1.2.19,1.56-.08,2.66-1.34,5.53,7.18,7.89,8.53,2.35.63-2.6.52-5.51.19-8.2Z"/>
          <path class="cls-2" d="M93.33,110.88c-.55-2.64-8.16-4.57-10.65-3.89-2.56.7-5.35,9.84-8.42,13.78-3.95,5.06-2.64,9.75,2.39,8.19,4.1-1.27,7.47-5.31,10.48-8.33,3.36-3.38,7.25-4.7,6.2-9.75Z"/>
          <path class="cls-1" d="M102.88,96.4c1.37-.83,2.87-1.17,4.23-.91,2.04.39,2.99-1.78,3.57-3.89.52-1.88.53-3.13-1.52-3.53-3.54-.68-5.85,2.16-8.96,4.05-4.23,2.57-1.56,6.86,2.69,4.28Z"/>
          <path class="cls-1" d="M107.14,108.89c-1.67-1.54-2.79.02-4.47,1.51-1.38,1.23-3.41,3.18-4.36,4.76-1.07,1.8-.81,2.5,1.09,3.5,1.93,1.02,4.32.48,5.47-1.43.18-.31.38-.61.58-.91.03-.05.13-.17.18-.24.46-.55.64-2.95,1.17-3.42,1.57-1.39,1.86-2.36.33-3.76Z"/>
          <path class="cls-1" d="M189.47,123.88c-2.74-1.11-4.57.4-6.83,2.15-2.32,1.79-4.31,4.84-5.15,7.59-1.49,4.88,1.35,3.62,5.45.77.89-.62,3.98-1.98,4.1-1.99,2.98-.33,4.68-1.77,5.2-3.66.62-2.26-.78-4.06-2.76-4.87Z"/>
          <path class="cls-2" d="M200.99,107.82c-.33.12-2.25.75-3.47,1.07-6.34,1.66-7.05,5.28-3.4,8.16,1.42,1.12,3.58,1.2,5.46,1.14,1.88,1.1,5.65,2.75,7.14,1.13.7-.76.54-1.36.72-2.27.26-.31-.07-2.27.07-2.66,1.4-3.91-.58-8.72-6.53-6.57Z"/>
          <path class="cls-1" d="M195.67,352.52c.68-2.49.88-2.84-1.77-3.4-3.87-.82-6.13-2-7.31,1.81-.38,1.22-2.71,2.24-2.62,3.51.03.4-.53,1.24-.44,1.62-1.01,1.21,1.62,2.69,2.07,4.32.7,2.56.1,5.48,2.7,4.69,3.07-.93,6.62-2.24,6.61-5.72,0-.82.64-2.91.28-3.73.85-.61.18-1.97.49-3.1Z"/>
          <g>
            <path class="cls-11" d="M303.18,303.55c-1.82-3.27-4.2-6.18-6.78-8.88-4.18-4.49-8.67-8.72-12.54-13.49-3.29-4.16-6.06-8.72-8.49-13.44-2.2-4.14-4.25-8.36-6.12-12.66-2.15-4.59-3.94-9.82-4.95-14.91-.11-.49-.21-.99-.32-1.48-.25-2.17-.44-4.34-.62-6.51-.44-5.58-.79-11.09-1.15-16.66.41-3.05.46-6.34.26-10.01-.09-1.19-.22-2.38-.34-3.57-.03-.32-.07-.64-.11-.96.44-2.19.77-4.41,1.07-6.61.44-4.79.35-9.62.18-14.43-.41-6.06-1.48-12.27-3.85-17.91.07-.15.12-.31.14-.48-.05-2.93,0-5.88-.06-8.81-.12-4.59-1.03-9.48-2.12-14.1,2.74.9,5.74.89,8.26-.65,3.77-1.82,6.8-7.47,3.42-10.95-1.95-2.16-4.78-2.84-7.51-3.49-1.8-.49-3.61-.97-5.4-1.54-.89-.31-1.77-.66-2.64-1.04,0-.41-.1-.82-.34-1.11-1.8-4.22-3.7-8.42-6.2-12.27-.91-1.46-1.91-2.83-2.99-4.16.29-.33.55-.7.78-.97,0,0,0,0-.01.01-.01.02-.03.03-.04.05,13.22-15.74,17.43-27.7,14.39-48.25-1.98-14.51-11.07-37.26-21.53-47.55.02.02.05.05.07.07,0,0,0,0,0,0-1.58-1.59-2.91-3.39-4.4-5.06.02-.06.04-.12.05-.19-.07-4.25-10.34,4.12-11.82,5.32-11.18,10.91-13.35,19.69-13.71,34.85-.27,5.66.83,11.41,2.85,16.69,1.18,3.28,3.06,6.25,4.09,9.58,1.32,4.24.62,8.83-1.19,12.85-.45-.31-.93-.59-1.35-.84-4.56-2.93-9.44-5.3-14.56-7.08-21.04-8.17-44.26-9.46-66.52-6.84-9.91.89-19.76,3.07-28.7,7.53-3.25,1.53-6.43,3.26-9.47,5.2-.17-1.77-.33-3.55-.52-5.32-.63-5.41-.83-10.63-2.77-15.83-2.36-6.03-5.63-12.43-10.91-16.38-9.02-6.36-20.53-7.98-31.34-7.51-4,.42-10.37.12-13.31,3.06-.47.44-1.11,1.05-1.04,1.72-.72,2.08-.7,4.49-1.06,6.66-1.37,12.95,3.13,34.09,15.48,40.69,3.1,1.67,6.58,2.4,9.76,3.88,5.06,2.38,8.59,6.98,10.72,12.05.36.87.7,1.75.99,2.65-.24.15-.47.47-.66,1.01-1.39,3.67-3.71,6.8-5.67,10.2-2.81,5.31-5.87,10.57-7.6,16.35-.3,1.43-1.81,6.14-2.06,9.16-.78,0-1.55.03-2.3.14-9.7,2.68-14.48,7.38-15.31,8.25-9.21,7.4-15.12,18.88-15.51,30.8-.62,7.87-.43,16.41,3.48,23.43.03.21.06.41.07.62.09.79.16,1.58.26,2.37.53,3.88,1.43,7.77,3.14,11.31.39.84.89,1.61,1.43,2.36,1.87,6.33,4.8,14.55,10.26,18.45-.15.56-.13,1.21-.08,1.85,0,0,0,.02,0,.03-.12.45-.22.9-.32,1.36-.28,1.22-.59,2.43-.91,3.65-2.09,8.01-4.66,15.91-8.03,23.48-3.85,8.62-8.19,17.28-12.02,25.94-3.99,10.02-8.23,19.94-11.63,30.19-4.26,11.61-7.01,23.74-3.43,35.93,1.94,7.24,4.7,14.92,10.94,19.54,1.72,1.26,3.58,2.52,5.75,2.73,6.77.8,10.53-6.72,10.89-12.52.57-5.49-.81-10.91-1.12-16.37-.1-1.47-.08-2.99.19-4.46,1.05-5.84,5.04-10.44,8.51-15.05,1.15,14.51,3.38,28.92,6.93,43.06,4.45,24.02,15.25,48.85,42.18,52.74,5.46.51,11.11-1.23,15.67-4.21,4.52-3.09,6.56-8.67,6.54-13.99.07-15.74-8.57-29.68-11.89-44.69-1.63-9.8-.41-20.41,4.42-29.18,4.99-7.9,12.9-15.02,22.48-16.19,6.63-.51,13.39.16,19.36,3.27,3.34,1.8,6.86,3.63,9.21,6.7,6.54,8.11,7.36,19.99,2.96,29.29-1.89,4.74-5.73,8.5-10.18,10.89-3.2,1.4-7.51,1.1-9.22,4.77-2.19,3.76-.53,8.08,1.98,11.21,2.67,3.95,5.52,8.18,9.97,10.24,14.67,6.19,31.34-2.11,40.73-13.74,10.63-12.98,15.97-28.77,21.82-44.22,4.7-10.31,11.32-19.13,23.07-21.49,18.37.18,11.6,34.53,15.03,46.56,3.45,13.07,15.28,5.08,19.7-2.77,5.41-8.8,6.6-19.53,6.8-29.67.11-5.75-.13-11.49-.58-17.22,1.74,1.67,3.81,2.95,5.9,4.15,2.15,1.2,4.53,2.14,7.03,2.15,4.35-.21,8.89-.3,12.9-2.17,2.34-1.03,4.59-2.73,5.32-5.29,1.11-3.64-.32-8.63-2.13-11.89ZM259.85,195.79c-.65,3.46-1.49,6.92-2.9,10.16-.81,1.78-1.73,3.49-2.73,5.17-2.76,4.6-6.23,8.85-10.64,11.95-8.39,5.89-15.64,7.63-25.82,7.33-9.06-.27-18.13-1.7-26.34-5.71-4.06-1.95-7.88-4.42-11.18-7.49-2.5-2.38-4.53-5.36-6.32-8.32-3.31-5.5-5.99-11.59-6.35-18.08-.18-3.41.2-6.82.78-10.18,1.53-8.85,5.2-17.29,10.91-24.26.02-.03.04-.05.06-.08,0,0,.01-.01.02-.02,5.43-7.06,13.25-11.79,21.11-15.74,1.26-.59,10.73-3.64,17.65-3.64,1.59.04,3.18.16,4.76.29,3.11.23,6.71.78,9.61,2.31,8.26,3.74,14.88,9.82,20.49,16.85,8.22,10.25,8.92,26.93,6.89,39.44ZM259.86,126.65c2.29.72,4.9.76,6.87,2.26,1.6.9,1.58,2.4.62,3.8-1.27,1.9-3.55,2.98-5.79,3.14-2.57-.02-4.98-1.17-7.44-1.8-2.78-.87-5.61-1.84-8.08-3.45-4.31-2.82-9-5.11-12.92-8.48-2.78-2.29-6.03-4.62-6.94-8.3-.58-3.76-.67-9.63,4.71-8.88,3.43.56,6.09,3.01,8.18,5.68,1.26,1.77,2.05,3.81,3.28,5.6,1.87,2.87,4.26,5.45,7.37,6.97,3.19,1.66,6.65,2.68,10.14,3.46ZM22.61,181.76c.13-10.92,4.76-21.11,12.62-28.43.47-.37.95-.73,1.47-1.07,3.26-2.33,6.82-4.28,10.68-5.41,3.18-.83,6.44-1.07,9.73-1.03,2.97.43,5.95.99,8.77,2.1,1.59.8,3.13,1.72,4.61,2.71.96.74,1.86,1.56,2.78,2.36,4.77,4.95,8.15,11.44,9.57,17.91,1.87,13.05-2.33,27.02-11.55,36.52-5.06,4.84-12.03,7.28-18.89,8.06-10.58,1.43-20.64-5-26.24-13.68-3.62-5.96-3.84-13.27-3.56-20.05ZM26.62,210.49c-.3-.98-.56-1.97-.82-2.97,5,6.23,12.14,11.58,20.18,12.37,10.27.71,21.47-2.46,28.6-10.1-3.54,4.69-7.95,8.66-13.17,11.69-5.47,3.45-13.78,6.47-20.21,4.67-4.43-1.25-7.94-4.19-10.88-7.69-1.84-2.33-2.83-5.18-3.71-7.98ZM33.37,336.14c-3.93,4.92-7.43,10.77-7.22,17.28.1,4.44,1.03,8.8,1.27,13.23.22,3.94-.22,8.32-2.79,11.51-2.72,3.4-6.47,3.2-9.74.7-2.52-1.68-4.51-4.02-6.05-6.61-2.85-4.83-4.26-10.37-5.41-15.82-.92-5.33-.63-10.77.36-16.07.87-5.13,2.77-9.98,4.4-14.89,2.21-6.5,4.66-12.91,7.32-19.24,1.46-3.63,2.76-7.33,4.35-10.91,4.23-9.28,8.66-18.42,12.44-27.91,2.63-6.86,4.63-13.95,6.16-21.14.04,2.42.1,4.84.13,7.26-1.1,20.87-2.87,41.85-2.34,62.8.1,5.1.31,10.19.65,15.28-1.22,1.48-2.42,2.98-3.55,4.54ZM255.6,369.34c-6.06-.18-4.81-11.41-5.31-15.69-.44-7.7.02-15.62-2.02-23.12-5.12-19.75-20.16-16.96-31.99-4.69-8.55,9.67-11.19,22.58-16.4,34.05-2.36,6.28-5.68,12.07-9.46,17.6-5.41,9.06-13.96,16.07-24.16,18.98-7.9,2.24-17.78,1.13-22.86-5.98-1.57-2.57-5.36-6.19-5.22-9.19.49-3.67,7.02-2.44,10.23-5.26,8.07-4.86,12.4-14.03,13.27-23.2.71-10-2.52-20.87-10.6-27.26-10.32-7.7-25.07-10.52-36.87-4.67-19.51,10.04-25.5,33.73-19.22,53.71,3.83,12.09,13.51,30.14,9.99,42.57-1.84,6.41-8.99,9.1-15.01,9.94-6.88.36-13.74-2.47-19.41-6.2-8.4-5.58-13.26-14.72-16.56-23.99-3.55-8.77-4.71-18.22-6.91-27.37-2.57-10.67-4.06-21.55-5.08-32.47-2.13-21.39-.8-42.93-.08-64.37.53-8.21,1.02-16.46.15-24.66-.26-1.12-.17-4.93-.69-7.6.52.19,1.06.34,1.61.45,5.19.66,10.64-1.6,14.39-5.15,1.79-1.62,2.89-3.8,3.84-5.98-1.59.9-3.2,1.85-4.61,3.03-2.96,2.44-6.66,4.06-10.48,4.51-7.1.72-11.32-6.37-14.24-12.72,3.15,2.95,7.15,5.17,11.51,5.42,8.46.13,16.67-4.51,23.11-9.66,5.69-4.62,10.56-10.33,13.7-16.98,1.53-3.12,2.87-6.38,3.57-9.8,4.24-12.56,3.6-26.83-4.44-37.67-5.16-7.63-13.3-13.92-22.73-14.62-.19,0-.38,0-.57-.01.05-.36.08-.7.12-.98.55-2.91,1.04-5.85,1.92-8.69,1.64-5.26,4.27-10.17,6.83-15.04,1.66-3.03,3.61-5.94,4.73-9.22.02-.05.04-.09.05-.14.36,1.61.58,3.25.56,4.89.2,1.66-1.72,5.34-.32,6.29,2.05.82,2.4-5.91,2.41-7.36-.76-8.64-4.64-17.6-11.86-22.72-2.91-2.05-6.35-3.08-9.54-4.6-8.53-3.67-12.48-12.75-15.06-21.1-2.06-7.01-2.48-14.4-1.64-21.65.1-.73.15-1.48.28-2.2.06-.06.12-.11.18-.16,2.3-2.76,13.29-2.44,17.13-2.54,9.05.17,18.39,2.14,25.81,7.59,5.08,4.01,8.95,12.37,10.59,18.56,1.07,4.05,1.04,8.28,1.59,12.42.29,1.37.18,4.07.54,5.9-1.99,1.4-3.91,2.9-5.72,4.53-1.11,1.32-3.57,2.47-3.11,4.47.11.92,1.21.87,1.42.1,1.59-1.17,3.14-2.39,4.77-3.53,6.33-4.31,13.19-7.76,20.36-10.46,9-3.62,18.69-4.84,28.29-5.65,11.93-1.17,24.22-1.08,36.21.82,8.42,1.17,16.77,2.97,24.64,6.26,3.49,1.26,6.91,2.72,10.13,4.55,1.45.84,2.91,1.67,4.35,2.53-.69,1.11-1.42,2.19-2.2,3.24-.72,1.22-2.38,2.26-2.07,3.83.12.54.54,1.01,1.11,1.02,1.32-.21,3.14-3.42,4.19-4.53,3.6-4.69,5.74-10.55,5.41-16.49-.43-5.97-3.99-11.1-5.68-16.75-1.47-5.04-2.08-10.24-1.57-15.49.24-4.37.62-8.77,1.77-13,2.52-7.4,7.46-14.02,13.53-18.89,1.62-1.49,3.37-2.81,5.28-3.9.14-.1.3-.19.47-.27.28.43.63.84.87,1.17,1.11,1.56,2.25,3.11,3.57,4.51,1.89,2.17,3.55,4.47,5.12,6.91,4.85,7.92,8.37,16.5,11.24,25.33,3.65,10.12,4.86,21.12,3.96,31.82-.74,8.33-4.88,15.9-9.73,22.55-.97,1.39-1.95,2.77-3.02,4.08-.45.64-1.22,1.32-1.72,2.05-2.44-2.67-5.16-5.1-7.99-7.35-1.34-1.07-1.66.99-.51,1.52,4.26,3.62,8.21,7.68,11.11,12.5,2.34,3.52,3.87,7.51,5.6,11.35-2.17-1.29-4.11-2.9-5.55-5.05-2.27-3.15-3.93-6.8-7.18-9.14-4.71-4.21-12.6-4.77-13.58,2.93-.63,2.91-.39,6.01,1.01,8.67.56,1.1,6.6,8.31,17.01,15.25,1.55,1.03,3.07,2.12,4.74,2.95,2.69,1.38,5.61,2.19,8.51,3.03.67,4.17,1.53,8.35,1.71,12.58.14,2.18-.03,4.41-.09,6.62-.44-.73-.9-1.44-1.41-2.14-1.39-1.87-2.94-3.63-4.48-5.39-4.48-5.16-9.91-9.55-16.03-12.62-4.52-2.46-7.66-3.02-12.71-3.46-.23-.02-.45-.04-.68-.05-.11,0-.22,0-.33,0-.18,0-.36.01-.54.02.02,0,.03,0,.05,0-.02,0-.05,0-.07,0,0,0,.01,0,.02,0-.01,0-.03,0-.04,0h0s0,0,0,0c0,0-.01,0-.02,0h0s-.01,0-.02,0h0s0,0-.01,0c-.03,0-.05,0-.08,0,0,0,0,0,0,0-1.11.06-2.23.15-3.34.25-1,.1-2,.2-2.99.35-.91.14-1.83.29-2.74.44-.74.12-1.48.28-2.21.44-3.06.82-6.06,1.84-8.99,3.04-6.65,2.91-13.02,6.67-18.48,11.47-7.73,7.26-13.2,16.65-15.78,26.97-1.52,6-2.45,12.28-1.48,18.44,1.36,8.67,6.65,18.74,12.55,25.21,6.22,6.31,14.45,10.42,22.92,12.84,6.35,1.76,13.1,2.35,19.68,2.54.16,0,.31,0,.47,0,7.53,0,15.08-1.39,21.52-5.48,8.3-4.56,14.16-12.49,17.86-21.08-.45,4.13-1.11,8.31-2.75,12.13-2.39,5.19-6.36,9.6-11.03,12.84-2.32,1.67-4.99,2.82-7.13,4.74-.72.62-1.44,1.24-2.13,1.9.51.07,1.04.1,1.56.12,1.69.09,3.43.03,5.01-.65,3.09-1.26,5.88-3.17,8.39-5.35,3.38-3.09,5.82-6.14,7.54-9.34.03,1.58.33,3.53.58,5.22.02.1.03.2.04.31.17,1.19.3,2.22.25,2.84.55,7.19,2.07,14.3,2.58,21.51.74,5.94.94,11.94,1.94,17.84,1.05,5.87,2.89,11.58,3.44,17.54,2.21,19.22,11.4,70.78-12.34,78.64ZM300.71,316.05c-2.5,1.68-5.5,2.38-8.47,2.62-1.97.14-3.99.41-5.98.3-2.32-.25-4.42-1.37-6.39-2.55-2.55-1.44-4.83-3.18-6.25-5.79-.87-8.62-2.11-17.22-3.21-25.8-1.14-6.27-3.04-12.4-3.5-18.78-.47-4.8-.97-9.6-1.56-14.39,2.25,6.29,5.06,12.36,8,18.35,3.01,6.06,6.63,11.86,11.13,16.93,4.19,4.81,8.87,9.18,12.98,14.06,2.23,2.86,4.33,6.01,4.9,9.66.44,2.12.38,4.13-1.64,5.38Z"/>
            <path class="cls-5" d="M220.72,133.62h-.02s0,0,0,0c0,0,.02,0,.02,0,0,0,0,0,0,0,0,0,0,0-.01,0Z"/>
            <path class="cls-5" d="M220.68,133.62s.01,0,.02,0c0,0,0,0,0,0,0,0-.02,0-.03,0Z"/>
            <path class="cls-5" d="M220.65,133.63s.03,0,.05,0h0s-.02,0-.03,0c0,0,0,0,0,0h0s0,0,0,0c0,0,0,0,0,0-.03,0-.06,0-.08,0,.02,0,.04,0,.06,0h0s0,0,.01,0c0,0,0,0,0,0,0,0,0,0,0,0Z"/>
            <path class="cls-10" d="M85.95,156.87c-.21-.43-.6-1.92-1.24-1.74-1.07.49.01,1.71.17,2.58,1,3.72,2.05,7.45,2.75,11.24.48,2.97.98,6.02,1.18,9.04.32,5.16-.33,10.32-1.22,15.4-1.54,8.57-3.8,17.05-7.34,25.02-1.95,4.23-4.17,8.34-6.54,12.35-2.38,4.13-5.62,7.65-8.89,11.08-1.28,1.3-2.44,2.4-3.89,3.65-.54.46-.75,1.34-.34,1.95.35.53,1.1.49,1.52.07.95-.77,1.88-1.55,2.8-2.36,1.94-1.78,3.86-3.57,5.7-5.53,1.1-1.14,2.23-2.23,3.21-3.48,1.36-1.76,2.52-3.67,3.7-5.56,8.28-13.55,12.22-29.27,13.38-45.04.52-6.43-.57-12.83-2.07-19.06-.9-3.22-1.83-6.44-2.88-9.62Z"/>
            <path class="cls-11" d="M25.14,140.93c12.12,3.98,27.17-10.69,31.24-21.2,1.15-3.9,2.33-8.95-.61-12.32-3.09-4.08-9.29-.07-11.31,3.29-2.31,4.18-3.14,7.77-7.49,10.6-4.1,3.45-10.28,3.59-13.72,7.96-3.02,3.47-2.81,9.82,1.9,11.68ZM25.95,130.15c2.44-2.12,5.67-2.8,8.49-4.23,1.64-.88,3.15-1.99,4.57-3.2,5.67-3.86,4.82-11.4,10.58-14.26,1.07.49,1.98-.68,3.09-.45,5.6,2.05,2.19,11.62-.24,15.18-5.09,7.51-12.73,14.47-22.12,15.41-6.1.69-9.24-4.02-4.37-8.45Z"/>
            <path class="cls-5" d="M221.74,78.39c-.23,2.15-.6,4.15-1.2,6.26-.22.79-.64,1.74-.06,2.47.09.08.22.06.32.02.64-.27.83-.99.99-1.61.68-2.35,1.17-4.75,1.41-7.19.88-8.14-.48-16.31-1.99-24.31-1.45-7.67-3.22-15.6-1.61-23.38.63-2.77,1.56-5.24,2.67-7.92,1.53-3.67,3.27-7.33,5.92-10.33.93-1.05,1.83-2.14,2.82-3.13.24-.24.5-.46.74-.7.23-.1.33-.35.33-.59,0,.01,0,.02,0,.03,0-.01,0-.02,0-.04,0-.05-.01-.1-.02-.14-.03-.17-.09-.34-.23-.46-.72-.56-1.82.83-2.39,1.35-1.7,1.82-3.41,3.57-4.78,5.68-1.8,2.78-3.3,6.05-4.54,9.18-3,7.21-3.34,13.56-2.23,21.22,1.58,11.15,5.11,22.22,3.83,33.59ZM231.5,8.58s-.03,0-.04-.01c-.02-.01-.04-.02-.06-.03h0s-.04-.03-.06-.04c0,0,0,0,0,0-.04-.05-.09-.1-.12-.16.07.12.17.21.28.25Z"/>
            <path class="cls-10" d="M131.49,249.58c-1.24-4.95-3.04-10.22-7.23-13.44-6.47-4.53-10.96,5.26-11.87,10.49-1.23,6.26-.92,12.87.28,19.13.64,1.34.71,5.97,1.93,6.33,1.51,0-.1-4.54-.11-5.68-.9-3.95-.92-7.76-.88-11.84-.05-.53-.05-1.11-.04-1.73.67.14,1.44.15,1.98.22,2.35-.04,5.05-1.73,5.58-4.12.04-.38.05-.77.06-1.15.74.77,1.64,1.4,2.54,1.8,1.28.54,3.65-.34,5.17-1.52.37,1.17.69,2.37,1,3.55.49.89,1.73,11.15,3.42,8.44.56-1.68-.37-3.43-.57-5.12-.38-1.8-.79-3.59-1.25-5.36ZM119.35,248.43c-.94,2.12-3.47,2.65-5.6,2.21.54-4.25,2.2-9.27,4.58-11.6.51,3.1,1.2,6.26,1.02,9.39ZM124.62,247.93c-1.58-.44-2.89-1.64-3.57-3.12-.24-2.3-.73-4.6-1.07-6.87,1.92-.71,4.15.35,6.57,4.47.7,1.22,1.26,2.51,1.74,3.83-1.06.84-2.38,1.45-3.66,1.69Z"/>
            <path class="cls-10" d="M218.6,251.94c-1.13-.1-2.26.25-3.4.26-5.01.24-9.93-1.15-14.71-2.53-2.41-.81-4.8-1.72-7.04-2.91-2.76-1.54-5.72-3.41-8.34-5.29-2.75-2.23-5.37-4.68-7.66-7.39-1.25-1.57-2.44-3.18-3.55-4.85-1.75-2.65-3.03-5.56-4.33-8.44-.78-1.74-1.62-3.45-2.44-5.17.08.15.16.31.24.46,3.54,6.26,7.85,12.38,13.4,17.03,2.6,1.95,5.49,3.45,8.23,5.19,2.68,1.69,5.46,3.29,8.55,4.11,4.17,1,8.44,1.71,12.73,1.95,1.74.1,3.49,0,5.22-.21,1.43-.17,2.89-.16,3.05-1.61.02-.44-.32-.8-.69-.98-.4-.2-.84-.08-1.26-.03-1.08.13-2.17.24-3.26.31-4.06.18-8.1-.46-12.08-1.19-2.66-.45-5.28-1.18-7.67-2.45-2.66-1.44-5.18-3.12-7.79-4.66-2.74-1.55-5.31-3.38-7.46-5.69-5.01-5.22-9.22-11.24-12.37-17.77-1.3-2.71-2.45-5.51-3.26-8.41-.2-.73-.34-1.48-.47-2.22-.09-.57-.19-1.15-.27-1.72-.66-4.8-.31-9.68.42-14.45.73-5.71,1.43-11.47,3.32-16.94.36-.99.73-1.98,1.13-2.96.18-.4.37-1.16-.2-1.3-.09,0-.16.03-.22.09-.45.4-.6,1.01-.85,1.54-.7,1.66-1.31,3.36-1.79,5.1-1.38,4.45-1.93,9.08-2.6,13.67-.67,3.9-1.07,7.83-.96,11.8.09,3.4.74,7.04,1.44,10.43.74,3.56,7.21,19.43,9.51,23.79,1.1,2.03,2.55,4.12,3.95,6,2.42,3.25,5.34,6.02,8.45,8.69,1.33,1.06,2.74,2,4.17,2.93,2.14,1.42,4.31,2.81,6.63,3.91,4.83,2.22,10.05,3.43,15.26,4.35,2.86.47,5.78.37,8.63-.11.68-.15,1.32-.67,1.54-1.35.02-.09-.03-.17-.08-.24-.25-.38-.66-.64-1.11-.74Z"/>
          </g>
          <g>
            <path class="cls-10" d="M215.95,260.5c-4.48,1.15-9.18,1.25-13.73.51-4.74-.67-9.38-2.09-13.67-4.24-2.83-1.46-5.7-2.99-8.05-5.17-.05-.59-1.01-.79-1.22-.21-.39.9,3.66,3.58,4.46,4.09,6.6,4.24,14.2,6.82,22.02,7.48,3.58.26,7.22.05,10.75-.83,2.19-.34,1.2-2.19-.54-1.64Z"/>
            <path class="cls-10" d="M120.2,252.32c-.14-.77.07-2.28-.86-2.5-.43.03-.48.5-.51.84-.03,1.21-.04,7.55.95,7.87.94.32.97-1.12.79-1.71-.16-1.49-.25-2.99-.37-4.49Z"/>
            <path class="cls-10" d="M122.77,248.59c-.56-.59-.88-1.58-1.67-1.87-.88-.05-1.05,1.29-.43,1.74,2.7,3.64,5.05,7.51,7.6,11.25.65,1.01,1.75.55,1.5-.62-1.96-3.67-4.54-7.1-7-10.49Z"/>
            <path class="cls-10" d="M88.96,133.78c.43.76.86,1.51,1.29,2.26,2.09,3.22,3.37,7.09,5.7,10.06,2.56.16-1.01-4.56-1.34-5.62-1.26-2.45-2.64-4.9-4.05-7.3-.09-.1-.24-.34-.42-.66,2.62-2.66,5.69-4.9,9.02-6.57.47.02.67-.56.54-.95-.81-1.82-5.53,2.22-6.67,2.92-1.3.97-2.53,2.02-3.67,3.16-1.45-2.71-3.66-6.79-4.35-5.03-.32,1.25.96,2.25,1.41,3.35.6.97,1.17,1.96,1.74,2.95-1.41,1.55-2.67,3.22-3.75,5.01-.49,1.24-2.49,3.34-1.39,4.56.79.47,1.08-.62,1.32-1.15.63-1.46,1.46-2.82,2.36-4.12.7-1,1.47-1.95,2.28-2.87Z"/>
            <path class="cls-10" d="M101.14,422.18c-.44-3.18-2.95-4.95-5.53-6.39-1.01-1-.07-2.51-.12-3.73.34-2.87-1.84-4.81-3.27-6.96-.88-2.89,1.81-5.56,1.23-8.47-.43-2.49-2.89-3.84-3.79-6.11-2.75-7.91,4.08-8.77-2.58-17.38-1.8-3.7,1.14-6.79,3.15-9.59,1.68-4.99.64-10.61,3.21-15.44.49-1.24,1.32-2.28,2.13-3.32.28-.44.05-1.26-.54-1.19-1.05.64-1.76,2-2.42,3.08-2.66,4.7-2.47,10.15-3.36,15.29-2.13,3.72-5.22,6.27-3.64,11.14.57,1.93,2.09,3.36,2.95,5.15,1.07,5.05-3.23,8.84.9,14.91.85,1.37,2.41,2.42,2.57,4.14-.4,3.35-3.04,7.17-.22,10.21,3.68,3.33.68,5.6,1.98,9.12.89,1.83,3.16,2.14,4.36,3.66,1.32,1.62.93,4.34,3.19,5.2,1.14.73,2.04-.96,1.35-1.84-.45-.57-1.42-.65-1.54-1.49Z"/>
            <path class="cls-10" d="M145.51,322.63c-1.7-.96-1.74,2.25.77,1.99,4.97-.32,10.39,1.42,12.92,5.99,2.23,3.14,2.42,7.08,3.71,10.6,1.04,2.38,2.86,4.67,4.77,6.53,1.68,1.59,4.01,3.85,2.36,6.26-2.13,2.82-5.59,5.28-5.12,9.26.25,2.02,1.19,4.16-.04,6.05-.97,1.6-3.03,1.75-4.57,2.54-3.13,1.36-4.65,4.55-4.87,7.82-.86,5.74-3.09.76-6.29,2.61-2.56,1.19-2.49,4.53-4.45,6.22-.72.49-1.6.63-2.45.63-1.33.3-1.04,2.37.28,2.39,5.96.23,4.34-7.01,8.52-7.37,1.82.55,3.89,1.77,5.06-.54,1.76-2.55.66-6.28,3.11-8.42,1.45-1.52,3.61-1.76,5.35-2.78,3.63-2.18,2.55-6.58,2.03-10.01.29-3.47,4.06-5.05,5.27-8.09,2.26-6.17-5.95-8.92-7.61-14.12-2.28-10.71-6.41-18.43-18.73-17.58Z"/>
            <path class="cls-10" d="M36.51,317.44c-.36.26-.44.75-.67,1.11-.48.88-1,1.74-1.59,2.56-1.43,1.93-3,3.78-4.65,5.53-2.08,2.03-3.99,4.32-5.05,7.06-.27.65-.51,1.33-.69,2.02-.41,1.63-.41,3.46-1.57,4.8-1.42,1.63-3.11,3.08-4.09,5.05-1.06,2.27.48,4.12,1.13,6.22.29.91.4,1.9.06,2.82-.78,2.04-2.11,4.19-1.61,6.46.17.69.54,1.32.91,1.93.73,1.23,2.05,2.43,1.74,3.99-.26,1.15-.7,2.27-.64,3.47.02.65.14,1.3.44,1.88.43.86,1.29,1.44,1.59,2.38.25.93-.17,1.86-.13,2.8,0,1.37.7,2.77,2,3.34.88.35,1.15-1.12.38-1.4-1.48-.66-1.25-2.28-1.03-3.59.38-3.44-2.63-3.27-2.03-6.38.66-2.38,1.13-3.67-.37-5.91-.59-.93-1.33-1.79-1.7-2.84-.52-2.76,2.18-4.99,1.86-7.76-.08-1.24-.55-2.43-1.05-3.56-.44-.96-1.06-2.03-.56-3.09,1.03-2.06,2.98-3.4,4.31-5.24,1.18-1.58,1.1-3.61,1.65-5.42.87-3.14,3-5.66,5.33-7.84,2.35-2.52,4.58-5.21,6.21-8.28.24-.56.72-1.16.53-1.8-.1-.28-.41-.49-.7-.32Z"/>
            <path class="cls-10" d="M302.02,318.31c-.31-.73-.67-1.44-1.08-2.12-1.47-2.4-3.24-5.03-6.14-5.72-2.77-.74-5.53.48-8.29.59-1.89-.04-4.25-1.05-4.55-3.13-.15-1.43-.11-2.89-.53-4.28-.51-1.69-1.66-3.23-3.25-4.04-.74-.37-1.55-.58-2.33-.86-.98-.34-1.77-1-2.38-1.82-.44-.33-.85-.67-1.22-1.09-.37-.42-.67-.89-.97-1.35-.19-.3-.36-.6-.52-.91.05.17.1.35.15.52,1.02,3.64,2.41,5.67,6.17,6.69,1.84.63,3.09,2.43,3.31,4.34.22,1.53-.02,3.17.67,4.6.85,1.73,2.68,2.76,4.53,3.1,1.36.2,2.7-.04,4.04-.29,1.07-.19,2.13-.38,3.21-.36,3.58-.05,5.42,2.93,7.01,5.69.33.54.48,1.19.9,1.67.19.16.37.23.54.23.59,0,.99-.85.72-1.47Z"/>
            <path class="cls-10" d="M33.01,165.51c2.9,3.22,8.78-7.29,6.69-9.57-3.52-2.32-9.36,6.6-6.69,9.57Z"/>
            <path class="cls-10" d="M241.71,151.11c-.77-.58-1.62-1.02-2.53-1.35-1.39-.55-3.36-.95-4.26.59-1.27.78-.96,2.52-.41,3.66,1.58,3.18,5.67,6.57,9.08,7.54,1.63.41,2.68-1.04,2.59-2.55-.07-2.07-1.03-4-2.25-5.63-.64-.84-1.37-1.62-2.21-2.26Z"/>
            <path class="cls-10" d="M237.22,248.91s.05.02.05,0c0-.02-.05-.02-.05,0Z"/>
          </g>
          <g>
            <path class="cls-10" d="M177.65,137.37c-2.04-.49-.07-5.14.46-6.41.97-1.96,2.62-4.36,4.65-5.29.21-.1.4.12.45.3.05.22-.03.48-.25.57-.46.31-.91.64-1.32,1.03-1.75,1.66-2.95,3.75-3.62,6.02-.1.45-.92,2.85-.13,2.77,1.12-.23,2.02-.94,3.02-1.45,1.5-.85,3.05-1.59,4.68-2.16,1.31-.46,2.63-.9,3.89-1.5,1.18-.47,2.51-1.64,1.92-3.03,0,.01,0,.02.01.03,0,0,0,0,0,0-.24-.51-.83-.72-1.36-.77-.51,0-1.05-.05-1.44-.42.65-1.03,2.22-.66,3.01.03.72.65.84,1.74.59,2.64-.26,1.01-1.06,1.77-1.96,2.24-2.18,1.18-4.62,1.68-6.84,2.77-1.26.6-2.47,1.31-3.7,1.97-.63.32-1.31.73-2.04.66Z"/>
            <path class="cls-10" d="M204.05,120.9c-.76-.16-1.5-.4-2.19-.74-.92-.45-1.69-1.19-2.7-1.44-1.77-.51-3.7-.31-5.38-1.13-1.96-1.03-2.36-2.92-1.81-4.94.28-1.28,1-2.45,2.16-3.1.66-.42,2.66-1.63,2.75-.14.03.43-.41.93-.85.66-.84.16-1.56.68-2.21,1.21-.58.58-.82,1.41-.99,2.19-.26,1.11-.01,2.11.94,2.81,1.54,1.02,3.47.81,5.19,1.26,1.28.22,2.26,1.09,3.38,1.67.89.35,1.76.8,2.7.6.93-.32,1.57-1.2,1.84-2.12.21-.8.35-1.63.32-2.47-.04-.52-.12-1.04-.07-1.57.21-1.49,1.2-2.13-.35-3.32-.15-.17-.28-.36-.38-.55.33-.2.73-.23,1.08-.06.91.48,1.15,1.69.93,2.62-.15.63-.51,1.23-.44,1.9.24,2.08,0,4.6-1.69,6.04-.6.52-1.42.82-2.22.62Z"/>
            <path class="cls-10" d="M178.43,110.49c-.99-.48-.79-1.86,0-2.44.39-.32,1.03-.93,1.51-.43.44.45.13,1.52-.58,1.29-.19.11-.36.25-.5.42,1.14.27,2.3-.18,3.35-.51.3-.07.66,0,.9.21-.07.36-.29.69-.6.89-1.21.51-2.79,1.03-4.08.57Z"/>
            <path class="cls-10" d="M100.77,119.84c-4.27-.62-4.12-3.7-1.69-6.47.9-1.06,1.75-2.28,2.98-2.97.79-.38,1.01,1.03.23,1.04-1.04.68-1.82,1.72-2.61,2.65-.68.86-1.45,1.82-1.45,2.97.06,1.04,1.23,1.37,2.06,1.64,1.14.29,2.36.07,3.44-.34,1.29-.67,1.57-2.96,2.07-4.24.16-.5.35-.99.59-1.46.42-.88,1.51-1.73.91-2.79-.07-.17-.17-.32-.24-.49.17-.14.38-.19.59-.14.84.28.79,1.44.55,2.13-.27.8-.93,1.4-1.24,2.18-1.51,3.79-1.04,6.52-6.2,6.29Z"/>
            <path class="cls-10" d="M75.75,118.61c.09-1.12.76-2.02,1.21-3.01.76-1.61.94-3.5,2.07-4.91.54-.73,1.27,0,.93.69-.07.13-.17.23-.31.29-.23.25-.35.57-.5.86-.78,1.76-1.39,5.45-3.41,6.09Z"/>
            <path class="cls-10" d="M74.45,129.86c-1.18-.34-2.17-1.27-2.83-2.29-.4-.71-.64-1.87-.21-2.59.26-.3.7-.07.76.27.04.16.02.33-.05.48-.01.25,0,.49.07.73.34.95,1.2,1.61,2.04,2.1.74.39,1.57.06,2.27-.26,1.11-.53,2.19-1.14,3.18-1.86,1.5-1.15,3.25-1.95,4.66-3.21,1.66-1.58,3.01-3.43,4.57-5.1,1.25-1.38,2.78-2.58,3.68-4.24.39-1.06.73-2.62-.18-3.49-1.01-.8-2.17-1.49-3.48-1.57-.34-.08-.68-.25-.93-.5.39-.51,1.03-.65,1.64-.53.6.07,1.18.31,1.7.61.7.41,1.39.8,1.91,1.41.99,1.34.69,3.42-.01,4.84-.82,1.41-2.07,2.5-3.19,3.67-2.01,2.02-3.61,4.44-5.8,6.28-1.05.82-2.26,1.43-3.33,2.21-1.51,1.02-4.63,3.44-6.45,3.03Z"/>
            <path class="cls-10" d="M99.25,97.6c-1.39-.36-1.91-1.9-1.41-3.16.56-1.38,2.05-3.1,3.46-3.62.22-.06.46-.12.67-.03.43.15.54.81.14,1.05-.21.09-.51.07-.73.05-1.88.96-4.91,4.93-.78,4.78,1.14-.11,2.2-.58,3.22-1.07.85-.4,1.75-.94,2.72-.7,1.07.33,1.54.23,2.24-.69.72-.96,1.37-2.01,1.77-3.15.06-.24.14-.51.05-.75-.25-.51-.48-1.03-.72-1.54.78-.02,1.47.65,1.59,1.41.2,1.64-1.37,3.86-2.38,5.09-1.43,1.56-2.04.4-3.53.66-2.02.74-4.05,2.27-6.31,1.66Z"/>
            <path class="cls-10" d="M47.87,290.2c-1.15-.14-2.56-.64-2.98-1.83-.37-1.26.48-2.45.64-3.68.23-1.12-.08-2.22-.35-3.3-.88-3.28-.24-5.74,1.64-8.5,1.23-1.9,2.78-3.56,4.32-5.22.46-.44,1.44-1.86,1.92-.78.21.37-.07,1.04-.55.83-2.68,2.85-5.81,5.81-6.78,9.73-.48,2.49,1.07,4.84.67,7.31-.11.77-.39,1.56-.6,2.26-.52,1.14.46,1.59,1.39,1.88,2.12.52,4.11-.82,5.83-1.89,1.66-1.11,2.16-3.33,1.78-5.2-.32-2.32-2.49-3.97-2.34-6.38.15-1.02.46-2.33,1.47-2.69.28.47.18,1.08-.03,1.56-.82,1.45-.15,2.66.63,3.94.56.97,1.06,2,1.26,3.11.55,2.5-.19,5.47-2.46,6.86-1.65,1.03-3.47,2.12-5.48,2Z"/>
            <path class="cls-10" d="M68.59,303.4c-1.66-.79-1.95-2.85-3.35-3.94-1.64-1.51-3.98-2.81-4.2-5.25-.02-3.08,1.61-6.84,4.39-8.34.6-.2.95.6.74,1.07-.39.65-1.37.7-1.75,1.44-4.7,6.73-1.42,6.76,2.78,11.48,1.42,3.54,4.46,3.13,5.28-.46.2-1.62-1.04-2.85-1.65-4.24-.59-2.17-1.57-4.19-2.15-6.36,1.33.69,2.07,2.11,2.42,3.52.17,2.3,2.1,3.93,2.38,6.17.35,2.53-2.08,6.24-4.89,4.89Z"/>
            <path class="cls-10" d="M49.96,317.94c-2.06-.14-2.15-2.7-3.05-4.09-1.03-1.57-2.68-2.89-2.82-4.89-.18-1.71.86-3.34,2.32-4.17.57-.36,1.25-.31,1.89-.44.8-.39.97,1.14.17,1.06-.17-.01-.32.09-.48.14-.33.11-.68.14-1,.28-1.26.66-2.25,2.14-1.74,3.58.5,1.52,1.9,2.5,2.62,3.91.4.75.64,1.56.98,2.33.21.5.55,1.05,1.16,1.05.91.13,1.67-.49,1.99-1.31.27-.68.38-1.44.78-2.07.77.99.3,2.35-.3,3.3-.51.88-1.5,1.4-2.51,1.31Z"/>
            <path class="cls-10" d="M60,319.75c-2.89-.47-2.17-4.11-1.25-6.02.61-.81,2.02-6.97,3.28-5.26.32,1.58-5.15,9.03-2.15,9.95,2.18.34,3.93-1.57,6.09-1.57,2.73.36.23,1.29-1.09,1.46-1.62.48-3.1,1.64-4.87,1.44Z"/>
            <path class="cls-10" d="M73.28,315.29c.34-4.85-2.64-5.48-6.71-6.24-1.19.8-1.39-1.92.38-1.3,2.76.61,6.38,1.26,7.1,4.49.24.97.49,2.76-.78,3.05Z"/>
            <path class="cls-10" d="M63.47,342.08c-1.25-.96-2.38-3.28-2.41-4.85,0-1.3.82-2.45,1.68-3.35.55-.5,1.07-1.2,1.83-1.34.57-.02.83.77.51,1.18-.11.17-.32.27-.51.18-1.2.96-2.9,2.44-2.32,4.15.4,1.01,1.07,2.83,2.23,3.09.5-.02.93-.41,1.46-.37.16,1.44-1.38,2.15-2.48,1.31Z"/>
            <path class="cls-10" d="M57.56,365.95c-1.11-.3-2.27-1.23-1.97-2.5,1.25.37,2.42,1.78,3.81,1.13.99-1.59-1.13-3.11-1.76-4.45-.75-2.15-1.48-5.67-4.54-4.95-.65.93-1.5-.51-.81-1.08,1.02-.75,2.61-.43,3.6.23,1.85,1.19,1.99,3.53,2.85,5.35,2.2,2.01,3.49,7.52-1.19,6.26Z"/>
            <path class="cls-10" d="M57.54,386.31c-1.15-.45-1.21-1.8-1.78-2.73-1.28-1.76-3.33-3.26-3.09-5.71,0-.99,1.03-5.97,2.44-3.86.32.39.05,1.23-.53,1.04-1.81,3.68-.18,4.93,2.02,7.63,1.65,5.19,4.52,1.03,3.93-2.33,0-1.84,1.26.06,1.11.94.19,2.28-1.3,6.02-4.11,5.01Z"/>
            <path class="cls-10" d="M72.96,407.08c-1.69-.28-3.5-.78-4.46-2.29-.69-1.04-.51-2.31-.82-3.46-.45-1.58-2.05-2.24-3.32-3.03-2.11-1.2-2.41-3.59-1.98-5.79.19-1.03.61-1.99,1.06-2.93.35-.62.61-1.52,1.39-1.69.88-.1.95,1.46.13,1.54-1.13,1.9-2.21,4.37-1.22,6.53.63,1.01,1.81,1.43,2.75,2.08,1.11.72,2,1.8,2.28,3.11.29,1.11,0,2.48.96,3.32,1.47,1.26,4.66,1.83,6.52,1.35,1.63-.47,2.84-2.01,3.28-3.61.12-.75-.12-1.51-.32-2.23-.49-1.67-1.28-3.3-2.27-4.7-.23-.39-.46-.78-.65-1.18,1.07.06,1.82.88,2.28,1.78.97,1.83,1.84,3.84,1.95,5.93-.08,1.73-1.2,3.31-2.5,4.39-1.42,1.11-3.33,1.17-5.04.87Z"/>
            <path class="cls-10" d="M165.68,398.23c-.4-.16-.62-.54-.82-.9-.98-1.87-.56-4.11.18-5.99.72-1.7,1.8-3.7,3.63-4.36,1-.26,2.02,0,3.03,0,1.03-.01,2.08-.12,3.08-.38,1.38-.28,1.82-1.72,2.34-2.84,1.19-2.94,4.71-3.27,7.45-3.76,1.14-.18,2.3-.25,3.41-.54.32-.07.65-.3.97-.13.27.15.35.5.28.78-.05.75-2.88,1-3.55,1.12-2.13.39-4.45.58-6.34,1.71-1.4.98-1.47,2.91-2.58,4.13-.83.98-2.16,1.21-3.37,1.36-1.36.25-2.72,0-4.08.02-2.01.3-3.33,3.65-3.67,5.42-.14.81-.16,1.67.19,2.43.3.56.67,1.12.6,1.78-.07.3-.54.25-.76.16Z"/>
            <path class="cls-10" d="M186.84,365.84c-2.41-.31-1.44-2.84-1.57-4.46-.61-2.31-2.93-4.31-2.04-6.88.55-1.67,1.93-2.93,3.31-3.94.71-.53,1.84-.64,2.37.2.52.66-.44,1.73-.92.83-2.19.29-4.79,3.38-3.5,5.64.77,1.62,2.03,3.17,1.86,5.07.06.66-.49,1.5.02,2.04,2.48.94,4.72-1.4,6.51-2.83,2-1.72,1.94-4.51,2.02-6.93-.11-1.78.79-3.41.52-5.18,1.48.71,1.04,2.36.63,3.6-.19,1.54-.08,3.1-.29,4.64-.06,3.96-5.05,8.39-8.91,8.21Z"/>
            <path class="cls-10" d="M192.48,339.29c-2.58-.98-.83-4.13.4-5.57.37-.36.75-1.18,1.36-.9,1.41.94-2.23,2.73-2.02,4.74.99,1.39,3.08-.2,4.48.13,3.31.48,3.31.1,2.62-2.96,1.8.27,1.99,3.24.56,4.11-1.19.68-2.66.03-3.92.14-1.15.1-2.32.69-3.48.3Z"/>
            <path class="cls-10" d="M46.93,54.98c-2.05.05-3.23-2.01-3.82-3.71-.34-1.27-.71-2.53-1.05-3.79-.54-1.97-.06-4.3,1.7-5.5.36-.28.85-.61,1.3-.37.45.21.5,1-.02,1.13-.71.18-1.27.82-1.69,1.41-.82,1.42-.25,3.08.19,4.52.39,1.42.66,2.9,1.63,4.07.69,1.04,2.04,1.02,3.13.74,1.23-.19,1.35-1.53,1.27-2.55-.11-1.32-.58-2.63-1.41-3.68-.71-.85-1.58-1.64-1.8-2.77-.43-1.37-.03-3.57,1.73-3.62.46,0,.94.45.93.91-.12.22-.39.32-.62.39-1.67-.03-1.18,2.21-.42,3.03,1.27,1.3,2.27,2.88,2.56,4.7.48,2.94-.2,5.17-3.6,5.08Z"/>
            <path class="cls-10" d="M60.74,48.18c-2.54.05-7.28-3.23-4.51-5.69.73-.1.97,1.04.29,1.25-.14.35,0,.77.2,1.04,1.33,1.69,4.05,2.71,6.09,1.89,1.78-1.4.44-2.91-1.32-3.26-1.61-.14-5.32-1.4-1.49-1.7,6.35.31,6.06,7.01.75,6.47Z"/>
            <path class="cls-10" d="M58.42,59.34c-1.26-.53-2.51-2.1-2.05-3.51.4-.79,1.37-.04,1.01.64.26.99,1.61,2.2,2.6,1.42-.4-.73-1.63-1.31-1.3-2.27,1.03-.38,1.9.87,2.31,1.66.63,1.53-1.24,2.78-2.58,2.07Z"/>
            <path class="cls-10" d="M249.13,274.3c-2.13-1-3.05-3.49-3.06-5.72-.02-1.33.3-2.64.21-3.97-.08-.95-.27-1.89-.66-2.77-.57-1.23-1.36-2.37-1.78-3.66-.49-1.27-.5-2.79.41-3.88.83-1.08,1.86-2.01,2.99-2.76.55-.32,1.27-.68,1.9-.38.32.13.52.46.42.81-.06.28-.31.47-.59.4-1.4.05-2.79,1.75-3.69,2.72-1.82,1.87,1.35,4.94,1.81,7,.44,1.42.55,2.92.39,4.4-.2,1.61-.32,3.35.51,4.81.85,1.62,2.96,2.37,4.64,1.66,2.83-1.41,3.03-6.66,2.51-9.39-.19-1.32-.3-2.54-.23-3.85.02-.76.1-1.54-.09-2.29-.32-.88-.85-1.68-.97-2.63,2.23-.02,2.46,2.99,2.34,4.67-.09,1.38,0,2.73.23,4.09.93,4.64-.83,13.49-7.3,10.75Z"/>
            <path class="cls-10" d="M251.34,292.5c-1.12-.15-1.76-1.24-2.66-1.82-1.14-.83-2.68-.76-3.81-1.6-2.77-1.8-1.1-6.07,1.47-7.12,0,0,0,0,0,0,.46-.09.78.39.78.83s-.3.89-.75.83c-1.13.79-2.56,2.83-1.1,3.97.82.75,2,.77,2.98,1.22,1.32.39,2.02,1.88,3.3,2.2,2.49-2.36-1.94-5.01-2.9-7.07,3.58-.51,7.24,7.78,2.68,8.55Z"/>
            <path class="cls-10" d="M259.96,306.31c-3.41-1.31-.99-4.96-.97-7.44-.39-2.74-2.64-5.7-.92-8.4,1.86-3.09,3.76-.11,1.8.33-.35.09-.55.47-.75.74-1.15,2.43,1.2,4.84,1.19,7.3.17,1.75-.93,3.34-.92,5.01.67,1.91,3.11.85,3.94-.41,1.78-2.53.76-5.85,1.28-8.66,1.63-2.75,2.52,13.35-4.65,11.53Z"/>
          </g>
          <g>
            <path class="cls-10" d="M116.92,313.21c.52-2.88,2.5-5.18,3.81-7.74,1.99-3.44,3.65-7.06,5.44-10.61,1.42-3.61,3.26-1.2,1.76-.54-2.83,5.06-5.13,10.43-8.23,15.36-.73,1.31-1.51,2.68-2.79,3.53Z"/>
            <path class="cls-10" d="M122.33,312.26c.24-4.22,4.06-8.09,5.8-11.9.97-2.28,3.11-1.19,1.79.06-1.89,2.76-3.39,5.86-5.11,8.75-.65,1.15-1.14,2.57-2.47,3.09,0,0,0,0,0,0Z"/>
            <path class="cls-10" d="M127.31,312.62c-.42-.76-.12-1.71.3-2.41,1.13-1.75,1.6-4.06,3.16-5.47,1.52-.62,1.36,1.28.57,2-1.07,1.35-2.11,6.14-4.03,5.88Z"/>
            <path class="cls-10" d="M231.45,311.73c-.78-.26-1.13-1.09-1.65-1.67-.93-1.18-1.84-2.37-2.73-3.58-.3-.42-.6-.83-.92-1.24-.18-.19-.31-.43-.32-.7-.03-.34.13-.69.41-.87.87-.45,1.47,1,1.96,1.51,1.19,1.73,2.66,3.27,3.78,5.04.18.46.31,1.03.09,1.5-.18.12-.43.07-.62.01Z"/>
            <path class="cls-10" d="M236.33,310.27c-3.49-1.31-5.25-5.18-7.87-7.67-.66-.76-2.07-2.19-.75-3,1.08-.08,1.77,1.79,2.61,2.41,2.11,2.64,5.06,4.89,6.01,8.25Z"/>
            <path class="cls-10" d="M237.16,304.65c-2.5-2.64-4.56-5.71-6.87-8.53-.64-.95-2.53-2.54-1-3.51.8-.5,4,4.56,4.83,5.3.84.93,7.92,9.52,3.04,6.73Z"/>
            <path class="cls-10" d="M238.16,296.98c-.85-1.61-9.82-11.33-7.46-12,1.06-.1,2.8,3.57,3.76,4.43,1.58,2.11,3.18,4.21,4.8,6.28,1.37,1.85.88,3.46-1.09,1.28Z"/>
            <path class="cls-10" d="M82.25,79.48c-2.35-1.03-4.87-1.72-7.13-2.96-.4-.31-.4-1.04.07-1.28.15-.08.32-.05.47.02.46.19.92.38,1.38.56,1.87.78,3.85,1.32,5.66,2.23.6.37,1.08.89,1.46,1.48-.62.15-1.28.13-1.89-.05Z"/>
            <path class="cls-10" d="M85.66,76.31c-4.19-1.47-8.4-3.2-12.59-4.79-1.15-.55-.13-2.41.85-1.38,1.03.61,16.23,5.21,11.74,6.18Z"/>
            <path class="cls-10" d="M86.37,73.17c-3.46-1.37-6.92-2.76-10.31-4.3-1.62-.9-3.72-1.45-4.96-2.82-.41-.83.69-1.97,1.32-1,4.27,2.55,8.86,4.23,13.43,6.12,1.45.23,2.99,2.38.52,2.01Z"/>
            <path class="cls-10" d="M85.7,68.09c-3.17-1.23-6.32-2.58-9.4-4.03-.99-.72-3.98-1.22-3.19-2.88.6-.82,2.1.72,2.87.87,3.16,1.49,6.4,2.81,9.64,4.11,1.27.31,1.98,2.15.09,1.92Z"/>
            <path class="cls-10" d="M164.05,244.46c-1.37-1.38-2.68-2.82-4.05-4.2-.91-1.12-2.47-2-2.72-3.49-.04-1.08,1.24-1.35,1.5-.24,1.13,1.04,12.2,12.47,5.27,7.93Z"/>
            <path class="cls-10" d="M167.1,242.99c-.48-.24-.82-.66-1.22-1.01,0,0,0,0,.01.01.02.02.03.03.05.05-1.35-1.6-6.62-5.43-5.92-7.49.83-1.01,2.3,2.03,3.1,2.47,1.62,2.14,4.72,3.43,5.17,6.19-.41.06-.82-.04-1.2-.22Z"/>
            <path class="cls-10" d="M91.64,210.26c-1.11-2.85,1.15-5.98,1.6-8.8.18-.6,1-.6,1.17,0,.29.72.04,1.53-.17,2.25-.9,2.09-.6,5.18-2.6,6.55,0,0,0,0,0,0Z"/>
            <path class="cls-10" d="M93.24,215.12c-.92-2.74,2.39-7.57,2.74-10.64,0-.56.43-1.44,1.07-.98.83.89.04,2.33-.15,3.34-.55,1.8-1.25,3.55-1.81,5.35-.44.86-.38,3.58-1.84,2.93Z"/>
            <path class="cls-10" d="M109.5,239.72c-1.2-1.34,2.14-5.2,3.12-6.23,2.28-2.48,5.31-4.51,8.79-4.49.8.03.81,1.48,0,1.52-1.92.04-3.79.64-5.35,1.76-1.96,1.4-3.68,3.17-4.98,5.2-.3.52-.59,1.05-.77,1.63,0,.42-.37.91-.81.6Z"/>
            <path class="cls-10" d="M237.58,84.8c-1.37-3.03-3.96-6.02-4.15-9.36.58-1.27,1.62-.31,1.83.65,1.28,3.59,4.6,6.61,4.58,10.55,0,0,0,0,0,0-.97-.22-1.77-.99-2.25-1.84Z"/>
            <path class="cls-10" d="M241.28,81.42c-2.19-3.67-4-7.8-5.23-11.91-.09-.7.86-1.26,1.26-.58.43.9.74,1.86,1.16,2.76,1.16,3.49,4.23,6.67,3.89,10.47-.42-.15-.78-.42-1.09-.74Z"/>
            <path class="cls-10" d="M246.48,78.98c-1.16-.74-1.97-1.91-2.46-3.18,0,0,0,0,0,0,.01.03.02.05.06.14-1.75-4.1-3.8-8.04-4.98-12.34-.53-1.45,1.18-2.86,1.49-.87,1.08,3.71,2.95,7.15,4.49,10.69.86,1.73,1.63,3.58,1.4,5.55,0,0,0,0,0,0Z"/>
            <path class="cls-10" d="M190.42,313.16c.25-2.24,5.1-5.48,6.7-7.45,3.2-3.08,6.09-6.47,8.64-10.1,1.24-1.41,2.11-3.24,3.43-4.52.89-.38,1.2,1.18.35,1.3-3.72,5.78-8.1,11.13-13.08,15.87-1.63,1.16-4.06,5.29-6.03,4.9Z"/>
            <path class="cls-10" d="M198.98,313.25c-1.64-1.92-3.33-4.01-5.21-5.7-.7-1.08-4.66-2.86-3.03-4.19,1.04-.38,12.42,10.5,8.24,9.89Z"/>
            <path class="cls-10" d="M201.97,306.63c-.93-1.15-1.76-2.47-2.69-3.56-.5-1.03-3.88-3.49-1.96-4.31,1.96,1.55,3.4,4.03,5.01,6.01.72.54.99,2.56-.36,1.86Z"/>
            <path class="cls-10" d="M207.54,303.17c-.28-.12-.4-.39-.54-.65-.24-.44-.46-.88-.68-1.33-.71-1.48-1.41-2.95-2.26-4.35-.46-.74-.9-1.48-1.41-2.18-.36-.26-.38-.85,0-1.1.47-.31.93.27,1.18.6,1.51,2.1,2.64,4.43,3.77,6.75.25.63.94,1.27.59,1.98-.11.24-.39.39-.65.28Z"/>
          </g>
          <g>
            <path d="M107.28,62.79c2.64-.35,4.71-2.79,4.69-5.44.14-1.29-1.14-2.18-2.15-2.71-1.44-.73-3.03-.68-4.59-.63-.32.37-.9.36-1.28.66-1.39,1.04-2.41,2.83-2.11,4.6.53,2.31,3.16,3.8,5.44,3.52ZM105.69,64.22c-3.99-.69-6.44-5.01-4.19-8.61.74-1.28,2.02-2.72,3.58-2.73,2.4-1.25,6.36.28,7.66,2.58,1.81,4.24-2.46,9.64-7.04,8.76Z"/>
            <path d="M99.25,46.95c1.88-.29.57-1.9-.69-1.82-.06.09-.14.16-.24.21-1.62.68-.24,1.76.93,1.62ZM98.45,48.22c-1.3-.19-2.27-1.45-1.82-2.75.26-.61.82-1.38,1.54-1.37.2-.42.73-.36,1.1-.24,3.06.78,2.44,5.01-.82,4.36Z"/>
            <path d="M109.68,35.28c.44-.09,1.15-.31,1.27-.78-.32-.58-1.04-.72-1.64-.58-.1.11-.24.17-.4.15-.59.55.1,1.31.76,1.21ZM109.2,36.6c-1.98-.28-2.18-3.62-.15-3.89.81-.46,1.9-.03,2.49.62,1.48,1.56-.59,3.61-2.34,3.28Z"/>
            <path d="M282.58,256.17c1.73-.22,3.2-1.57,3.73-3.21.73-2.59-1.55-5.22-4.09-5.49-1.11.3-2.17.95-2.74,1.99-.84,1.36-.92,3.24-.15,4.66.67,1.14,1.84,2.19,3.25,2.05ZM280.46,257.3c-2.5-1.42-3.41-4.45-2.78-7.15.5-1.94,2.04-3.92,4.15-4.11.38-.52,1.09-.28,1.6-.12,2.43.73,4.18,3.06,4.36,5.56.34,3.62-3.76,7.7-7.34,5.82Z"/>
            <path d="M276.82,238.37c1.99-.4,1.68-2.95-.45-2.73-.05.09-.11.17-.19.23-.17.14-.38.16-.56.08-1.09.92-.15,2.64,1.2,2.42ZM276.59,239.76c-3.12.04-3.48-5.14-.39-5.51,3.93-.5,4.1,5.4.39,5.51Z"/>
            <path d="M286.63,227.84c1.66-.25,1.5-1.8-.2-1.75-1.25.38-1.32,1.9.2,1.75ZM285.72,229c-1.82-.53-1.51-3.68.26-4.04.31-.3.78-.13,1.16-.07,3.17.63,1.41,5.13-1.41,4.11Z"/>
          </g>
        </g>
      </g>
    </g>
  </g>
</svg>