<?xml version="1.0" encoding="UTF-8"?>
<svg xmlns="http://www.w3.org/2000/svg" xmlns:xlink="http://www.w3.org/1999/xlink" viewBox="0 0 485.82 299.77">
  <defs>
    <style>
      .cls-1 {
        fill: none;
      }

      .cls-2 {
        fill: #efc9c7;
      }

      .cls-3 {
        opacity: .8;
      }

      .cls-3, .cls-4 {
        fill: #257575;
      }

      .cls-5 {
        fill: #f4f3e1;
      }

      .cls-6 {
        fill: #ea2869;
      }

      .cls-7 {
        fill: #6bbbc1;
      }

      .cls-8, .cls-9 {
        fill: #b2ab7b;
      }

      .cls-8, .cls-9, .cls-10 {
        opacity: .6;
      }

      .cls-8, .cls-10 {
        mix-blend-mode: multiply;
      }

      .cls-11, .cls-12 {
        fill: #0c3435;
      }

      .cls-13 {
        fill: #a00d5a;
      }

      .cls-14 {
        fill: #dfdfcf;
      }

      .cls-15 {
        isolation: isolate;
      }

      .cls-16 {
        fill: #fffef3;
      }

      .cls-17 {
        fill: #a6d389;
      }

      .cls-18 {
        fill: #ebd4ff;
        opacity: .58;
      }

      .cls-19 {
        fill: #e8507e;
      }

      .cls-20 {
        fill: #e85053;
      }

      .cls-21 {
        fill: #acedef;
      }

      .cls-22 {
        fill: #d12845;
      }

      .cls-10 {
        fill: #8b69af;
      }

      .cls-12 {
        stroke: #000;
        stroke-miterlimit: 10;
        stroke-width: .5px;
      }

      .cls-23 {
        clip-path: url(#clippath);
      }
    </style>
    <clipPath id="clippath">
      <rect class="cls-1" x="330.68" y="13.84" width="82.9" height="80.66"/>
    </clipPath>
  </defs>
  <g class="cls-15">
    <g id="Layer_2">
      <g id="Layer_1-2" data-name="Layer_1">
        <g>
          <g>
            <path class="cls-7" d="M396.48,173.92c-2.23-1.98-3.55-4.81-5.48-7.07-5.44-7.29-11.21-14.34-16.33-21.86-1.23-1.96-2.65-3.96-3.04-6.29-.45-2.91,3.21-4.76,5.33-2.72,1.49-1.18,3.53-.47,4.76.74.27-.09.56-.13.84-.13-1.38-2.5-4.02-5.65-4.21-8.48.21-1.95,2.72-2.99,4.21-1.73,3.19,4.06,5.66,8.71,8.62,12.95,2.2,3.01,4.47,6.03,6.19,9.36,0,0,0,0-.01,0,.95,2.03-1.14,4.47-3.31,3.78-.28.63-.8,1.12-1.41,1.41.37.73.73,1.46,1.1,2.19,0-.01-.01-.02-.02-.03,2.35,4.88,5.02,9.66,6.86,14.75.7,2.34-2.04,4.38-4.11,3.12Z"/>
            <path class="cls-7" d="M304.99,146.9c-.11-.19-.21-.37-.31-.57-.61.5-1.42.76-2.22.65-.04,0-.08-.01-.12-.02-2,1.17-4.16-.62-4.63-2.51-.65-1.87-1.12-3.56-1.43-5.15-.35-.6-.51-1.28-.64-1.95-.19-.22-.35-.47-.46-.75-.46-1.15-.79-2.36-1.1-3.57-1.39-.64-1.93-2.2-2.46-3.53-.63-1.52-1.17-3.06-1.7-4.61-.25-.03-.49-.1-.72-.19-.3-.12-.58-.27-.83-.46.12,2.03-2.32,3.42-4.04,2.36-1.51-.96-1.93-2.97-2.75-4.46-1.01-2.23-2.01-4.47-2.67-6.83-.87-3.55-1.26-7.21-1.52-10.85-.1-3.59.2-7.12.58-10.56.36-4.02,3.39-7.15,6.95-8.75,1.22-1.13,3.37-2.19,5.01-1.61,1.25-1.74,4.06-2.22,5.36-.27.95-1.46,3.06-2.14,4.46-.9,1.5-2.16,5.04-1.95,5.64.82.19-.12.4-.23.62-.31,1.07-.41,2.27-.23,3.1.58,2.26-2.01,6.04-7.69,9.3-4.55,2.12-1.67,4.62-4.2,7.3-4.74,1.7-.29,3.45.87,3.76,2.59,2.63-1.66,5.19-3.75,8.29-4.43,2.33-.54,4.61,1.26,4.15,3.71,1.54-.11,3,1.12,3.18,2.65.25,2.46-2.54,4.43-4.03,6.11.16,2.79-2.91,6.49-4.29,8.94-3.76,5.82-7.52,11.64-10.81,17.74-.94,1.83-1.83,3.7-2.54,5.64-.59,1.55-1.18,3.11-1.73,4.68-.2.57-.7,1.08-1.21,1.38-2.16,1.34-5.04-.85-4.28-3.29,1.24-3.83,2.52-7.71,4.47-11.25-.04.08-.08.16-.12.24,0,0,0,0,0,0,1.48-2.88,3.19-5.64,4.87-8.41-1.98,2.04-3.98,4.07-6.03,6.05-.76.73-1.54,1.45-2.43,2.02-1.72,1.1-4.35.43-4.84-1.69-.08.08-.16.16-.23.23-.19,2.28-.49,4.56-.76,6.83-.2,1.65-.39,3.3-.6,4.95.75,1.3.02,2.77-.52,4-.27,2.82-1.26,5.59-.78,8.42.32,3.54.94,7.71,1.19,11,.07,1.71.53,3.76-.81,5.11-1.29,1.33-3.67,1.16-4.6-.5Z"/>
            <path class="cls-7" d="M440.95,135.98c0-1.42,1.19-2.61,2.61-2.61s2.61,1.19,2.61,2.61-1.19,2.61-2.61,2.61-2.61-1.19-2.61-2.61Z"/>
            <path class="cls-7" d="M467.9,142.93c-3.07-1.44-.9-5.06-.25-7.37-2.11-.31-2.85-2.65-2.03-4.44.73-1.88,2.05-3.4,2.71-5.33-1.44.23-2.87-.86-3.05-2.29-.31-1.96,1.58-2.91,3.02-3.7,1.41-.83,2.86-1.58,4.42-2.09,1.21-.4,2.52-.52,3.66-1.17,1.5-.75,2.93-2.1,4.71-1.95,2.05.28,2.89,2.6,1.84,4.28-1.58,3.05-3.49,5.94-4.7,9.17-1.46,4.23-3.18,8.37-5.69,12.1-.98,1.59-2.49,3.7-4.62,2.78Z"/>
            <path class="cls-7" d="M372.6,36.54c.04-1.45,1.25-2.54,2.67-2.54s2.57,1.28,2.54,2.67c-.04,1.45-1.25,2.54-2.67,2.54s-2.57-1.28-2.54-2.67Z"/>
            <path class="cls-7" d="M193.89,243.55c-.51-.46-.82-1.11-.86-1.8-.07-1.37,1.05-2.74,2.47-2.74.7,0,1.35.19,1.88.67.51.46.82,1.11.86,1.8.07,1.37-1.05,2.74-2.47,2.74-.7,0-1.35-.19-1.88-.67Z"/>
            <path class="cls-7" d="M162.97,239.77c-1.85.04-3.65-1.41-3.53-3.36-.91.19-1.65-.34-2.51-.42-1.71-.26-2.89-2.12-2.3-3.77.55-1.58,2.33-2.1,3.83-2.36,2.79-.56,5.53-.86,8.32-1.13,2.17-.19,5.47-.73,6.22,2,3.18.23,6.42.22,9.55.82,0,0,0,0,0,0,.82.29,1.48.97,1.74,1.81,3.31,1.18,3.14,6.67-.86,6.17-.74-.15-1.37-.64-1.74-1.28-3.68-.12-7.41.56-11.05.92.06,0,.12-.01.13-.02.02,0,.04,0,.06,0-2.65.29-5.2.64-7.85.63Z"/>
            <path class="cls-7" d="M180.07,260.99c-2.47-.75-4.18-7.67-5.03-10.1-1.06-4.39-3.06-9.31-1.18-13.72,1.27-3,6.47-3.65,6.65.29,1.49,1.11,1.61,3.19,2.12,4.85,2.59-1.31,4.42,1.2,4.74,3.55.46,1.85.89,3.71,1.26,5.58.28,2.18,1.45,6.02.26,7.9-.76,1.11-2.28,1.49-3.47.91-.77.52-1.8.63-2.65.27-.75.61-1.8.79-2.7.47Z"/>
            <path class="cls-7" d="M109.49,215.71c.6.54.87,1.21.97,1.92.84-2.16,1.39-4.43,2.34-6.55-.03-.02-.06-.05-.09-.07-.62,1.37-2.1,2.43-3.63,1.92-.29.7-.58,1.41-.87,2.11.47.11.92.33,1.28.66ZM96.74,263.65c-1.62-.11-2.5-1.63-3.14-2.93-2.14-3.82-3.34-8.47-2.23-12.79-1.42-1.09-.89-3-.57-4.5.2-1.1.48-2.19.66-3.29.38-4.28,2.77-24.28,6.09-25.86.85-1.87,3.61-2.37,4.89-.68,1.05-2.53,2.13-5.05,3.28-7.54-4.31-.76-2.03-5.33-.74-7.83,1.48-2.82,2.83-5.14,4.61-7.6,2.12-2.75,4.26-5.48,6-8.5,2.5-4.13,3.81-6.34,8.39-8.45,1.85-1.01,3.69.24,4.98,1.56,1.65,1.15,3.33,1.86,4.2,3.72,2.1,5-2.1,10.54-4.25,14.91-.82,1.57-1.69,3.12-2.63,4.63-1.76,3.01-3.05,6.26-4.76,9.3.37,1.09.59,2.25,1.12,3.28,1.26,1.5,1.2,3.93-.78,4.77-.27,2.95-3.47,3.74-5.68,2.19-.77,1.64-1.11,4-3.04,4.68-.76,5.02-3.18,9.58-4.26,14.5-1.02,3.75-1.49,7.63-2.28,11.43-.43,1.79-.52,3.82-1.72,5.3-.18,3.3-.98,10.43-5.8,8.96-.66.51-1.51.79-2.33.73Z"/>
            <path class="cls-7" d="M74.42,166.01c-.04-.05-.07-.1-.11-.16.06.05.11.11.17.17-.02,0-.04,0-.06,0Z"/>
            <g>
              <path class="cls-7" d="M330.87,196.16s-.03-.02-.04-.04c-.13-.12-.27-.23-.4-.36.16.14.31.27.45.39Z"/>
              <path class="cls-7" d="M477.25,179.83c-.27-1.32-.6-2.79-.76-4.24,1.41-.86,1.47-2.62,1.32-4.09-.22-3.02-.88-5.98-1.43-8.95-.6-3.29-1.12-6.59-1.7-9.88-.39-6.39-.78-12.79-1.36-19.17-.24-1.59-.22-3.47-1.38-4.71-.56-.62-1.35-.95-2.15-.98-.59-1.79-1.31-3.45-1.83-4.57-.64-1.33-1.5-2.71-2.43-3.92-.1-.17-.22-.33-.35-.48-1.56-2.72-2.93-5.6-5.2-7.82-.89-.87-1.78-1.72-2.81-2.41-1.31-.8-2.67-1.51-3.85-2.51-4.53-3.53-9.41-4.16-14.63-1.77-.95-.66-2.25-.77-3.26-.24-.87-1.28-1.91-2.39-2.92-3.11-2.11-2.76-5.48-3-8.12-1.54.5-1.18.98-2.36,1.43-3.56,2.63,1.37,4.14-1.59,4.87-3.66,1.01-2.27,1.88-4.61,2.73-6.94,3.35-5.42,6.14-11.21,8.17-17.25,2.08-5.09,5.27-9.73,7.84-14.6.78-1.7,2.78-4.15,2.86-6.14,1.55-1.03,2.09-3.45,2.81-5.06,1.31-2.73,2.47-5.54,3.77-8.28.9-1.61,1.91-3.17,3.09-4.6,1.24-1.57,3.23-3.19,2.93-5.4-.27-1.93-2.12-3.02-3.91-3.26-3.43-.43-6.9-.12-10.35-.28-1.5-.12-2.77-.19-4.45-.1-4.9.42-9.82.17-14.71.79-2.91.2-5.82-.08-8.73-.05-2.5.08-4.95.4-7.55.18-3.92-.32-7.87.22-11.71,1.03-2.04.49-3.97,1.36-6.02,1.82-.03,0-.06.01-.09.02-1.66-1.04-3.43-1.9-5.06-2.97-5.13-3.41-11.14-6.03-17.41-5.62-7.49-.72-12.53-.52-19.63,2.23-6,2.15-11.75,5.37-16.03,10.16-.75.84-1.47,1.71-2.23,2.54-1.45,1.43-3.33,3.43-2.16,5.3-.39.76-.65,1.55-.47,2.42-.14.32-.27.64-.41.96-1.19,2.79-2.32,5.6-3.22,8.5-.36.31-.72.61-1.08.92-3.04.21-8.92,6.18-11.7,8.22-10.24,5.7-19.58,12.96-28.17,20.91-1.98,1.87-3.94,3.76-5.9,5.65-1.31,1.17-3.13,2.04-3.74,3.78-.4,1.24.34,2.64,1.52,3.14,2.47,1.01,4.23-1.69,6.03-2.98-1.14,2,.57,4.64,2.88,4.28,1.19-.16,2.24-.78,3.27-1.36-.61,2.32,1.86,4.27,4.03,3.47,1.49-.49,2.77-1.47,4.11-2.26-.93,1.63.15,3.87,2.04,4.08,2.75.39,8.43-6.19,10.84-8.06,2.06,3.06,5.41.09,7.13-1.79,2.54-2.55,4.64-4.97,7.05-7.73-.56,2.27,1.77,4.44,3.96,3.39-.74,1.56-.09,3.67,1.51,4.33-.05.28-.07.59-.07.91-.26.4-.53.8-.81,1.2-.64.39-1.16.99-1.52,1.62-.38,0-.77.08-1.11.22-.33.14-.63.34-.88.59-2.41-4.82-7.74-4.85-7.67,1.21-1.51-.72-3.33-.11-4.37,1.13-.8-1.21-2.13-2.01-3.6-2.05-4.31-.25-3.74,5.54-3.09,8.38-3.04-.81-5.01,2.9-4.44,5.53-1.62-2.56-5.29-5.09-8.01-2.56-2.23,2.67-1.15,6.54-.58,9.64-7.65,2.24,3.09,21.26,5.16,25.91-.51.7-.73,1.62-.46,2.45.03.1.07.2.1.29-.11.22-.19.45-.24.69-1.43-.08-2.99.61-3.46,2.13-3.82-9.56-8.33-18.84-12.06-28.41-.87-2.39-.26-6.09-2.91-7.35-5.67-1.27-3.26,6.07-2.31,9,.89,3.68.83,7.46,2.02,11.08,3.68,12.05,10.16,22.95,16.5,33.71-.02-.03-.05-.07-.07-.1-.02-.03-.04-.06-.06-.09,1.63,2.54,3.42,4.84,5.33,7.44.08.09.16.2.25.3-11.58,8.48-22.95,17.25-33.96,26.48-2.21,2.05-5.11,3.58-6.82,6.08-3.48,2.06-6.78,4.42-10.25,6.5-.98-1.55-2.32-3-3-4.67-3.06-5.39-6.77-10.27-10.05-15.56-1.11-1.57-1.99-3.26-2.85-4.96,1.23-2.41-1.98-6.22-3.21-8.36-.82-1.27-1.54-2.6-2.25-3.93-1.57-4.28-2.18-8.94-4.39-12.95-1.29-2.4-3.36-6.12-6.46-6.11-2.9.15-4.68,2.91-5.51,5.41-1.46,4.5-.88,9.28-.46,13.89.22,3.13.32,6.39,1.77,9.25.66,3.16,1.59,6.27,2.65,9.32.62,1.83,1.65,4.39,2.6,6.35.41.84.75,1.79,1.46,2.43.43.97.88,1.94,1.34,2.9,1.21,5.32,5.01,12.51,6.08,14.66.52.93,1.02,1.87,1.54,2.8-.07.05-.14.1-.21.14-4.33,1.49-8.5,3.32-12.88,4.51-4.92,1.63-10.04,2.44-15.1,3.49-4.64,1.01-9.23,2.3-13.95,2.85-1.99.22-3.99.32-5.97.58-.38,0-.76.07-1.11.18-.14-.35-.27-.7-.37-1.02-.96-2.55-1.99-5.08-2.82-7.68-.67-4.83-.33-9.75-.94-14.59-.2-1.75-.4-3.52-.93-5.21-.11-2.44-.25-4.88-.35-7.32-.13-3.47-.16-6.99-1.24-10.33-.41-1.51-.89-3.04-2.09-4.12-1.67-1.39-4.4-1.59-6.18-.27-5.09,3.09-4.62,5.98-5.61,11.24-1.53,3.58-2.62,11.01-1.56,14.75-.1,3.18,0,6.37.06,9.56-1.02,2.03.23,8.35.4,10.94.05.39.11.78.16,1.17-.06,0-.11,0-.17,0-1.89-.47-4.96-1.15-6.78-.43-13.19-1.09-22.03-6.54-33.11-13.02,0,0,0,0,0,0-.72-.37-1.58-.4-2.32-.11-1.74-1.1-4.4-2.48-5.93-.34-.37-.29-.74-.58-1.12-.87,2.54-2.3-.11-4.8-2.13-6.23-2.55-2.01-5.14-3.96-7.68-5.99-3.27-2.64-6.92-5.54-10.02-8.47-1.38-1.14-2.59-3.25-4.61-2.98-.92-.84-1.93-2.16-3.09-2.97-.08-.13-.17-.27-.24-.4-1.5-2.35-3.01-4.68-4.51-7.02-1.5-2.35-2.98-4.72-4.41-7.11,0,.05,0,.11-.02.16-.05.13-.14.24-.28.29-.05.02-.1.03-.16.03-.1,0-.21-.03-.28-.1-.21-.18-.39-.42-.55-.64-.15-.2-.29-.4-.42-.6-.19-.29-.39-.58-.58-.87,0,0,0-.01-.01-.02,0,0,0,0,0,0,0,0,0,0-.01-.01-.05-.07-.11-.13-.16-.2.01.02.02.03.04.05-.1-.13-.2-.26-.3-.39-.04-.02-.08-.06-.11-.1-.18-.24-.35-.49-.52-.73-.04-.06-.09-.11-.13-.17-.06-.08-.11-.15-.17-.23-.08-.11-.17-.21-.23-.33-.03-.05-.05-.11-.06-.17-.11-.17-.22-.34-.33-.51-.07-.11-.13-.23-.2-.35-.05-.1-.1-.21-.14-.31-.05-.14-.01-.28.05-.41.03-.06.07-.11.13-.15-.39-.13-.82-.15-1.29-.07.98-1.56,1.78-3.3,2.45-4.55.76-1.92,3.58-6.51,3.08-8.24,2.53-3.3,4.38-7.02,6-10.83,2.1-4.72,4.33-9.41,6.07-14.28,2.11-.44,2.83-4.04,3.55-5.83.45-1.71,1.42-3.87-.06-5.34-.06-1.24-.19-2.57-.93-3.61-.17-1.52-.74-2.99-1.57-4.27-2.93-3.63-7.36-2.09-9.94,1.08-1.54,1.83-2.37,4.09-3.46,6.19-.62,1.19-1.22,2.39-1.81,3.6-2.74,3.9-4.54,8.35-6.56,12.64-1.5,3.32-3.23,6.55-4.57,9.94-.34.89-.7,1.79-.66,2.75-1.33,2.69-2.47,5.46-3.64,8.21-.02.06-.05.11-.07.17-1.88-.34-3.76-.69-5.63-1.09-1.8-.39-3.59-.8-5.38-1.23-1.43-1.01-3.21-1.37-4.83-1.95-.75-1.15-2.21-1.52-3.41-2.03-3.08-1.14-6.2-2.2-9.3-3.29-2.37-.83-4.75-1.65-7.17-2.32-1.53-.46-3.38-.91-4.72.22-3.01-1.37-6.36-2.7-9.73-2.11-1.85.4-3.92.77-5.09,2.43-1.08,1.55-1.17,3.68-.59,5.44-.76,3.67,3.83,7.56,7.06,8.44,2.99,2.18,6.31,3.9,9.78,5.2,2.19.73,4.44,1.53,6.76,1.64,3.38,1.28,6.91,2.44,10.56,2.48.97.62,2.15.87,3.22,1.26.69.48,1.51.72,2.28,1.04,4.41,1.49,9.05,2.47,13.69,2.77.06,0,.12,0,.19,0,.45,1.28.96,2.48,1.28,3.39,4.58,10.27,12.44,18.58,20.67,26.1.56.7,1.18,1.45,1.82,2.2-.06,1.08.72,1.94,1.45,2.65,1,1.04,2.01,2.06,3.04,3.07,2.59,2.54,5.29,4.96,8.08,7.28,1.28,1.04,2.32,2.49,3.86,3.14,2.72,2.54,5.65,4.83,8.64,7.03,1.09.8,2.19,1.58,3.35,2.29,1.06.74,2.44,1.42,3.7.75,1.42.39,2.52,1.49,3.82,2.19,5.18,3.1,10.8,5.45,16.58,7.16,5.97,2.96,12.2,5.36,18.61,7.2,4.09,1.29,8.17,2.76,12.43,3.39.4.08.83.1,1.26.08.47,1.78,1.05,3.53,1.67,5.25.13.3.24.61.35.92.13.84.31,1.67.46,2.48.76,3.85,2.37,7.43,3.85,11.03,1.74,4.69,3.98,9.16,6.28,13.6,2.1,4.61,4.91,8.52,8.01,12.58,1.78,2.53,3.63,3.71,6.67,4.36,6.24,1.17,5.64-7.16,4.9-11.13-1.14-5.45-3.56-10.53-5.02-15.9-1.53-4.34-2.84-8.72-3.85-13.21-.45-1.83-.72-3.71-1.19-5.54-.25-1.76-1.41-3.54-3.42-3.14-1.23-2.94-5.01-2.23-5.51.7-.89-3.2-1.71-6.41-2.23-9.7.1-.13.18-.27.25-.42.07-.17.14-.34.21-.51.94.52,2.19.38,3.01-.31.04.04.08.07.12.11-2.32,2.03-1,5.74,2.96,5.39-.83,1.77.72,3.99,2.68,3.82.54-.03,1.09-.14,1.63-.26.19.18.41.33.64.45,2.5,1.14,9.67-1.5,12.76-1.91,4.93-.79,9.86-1.61,14.52-3.5,1.27.66,2.68,0,3.95-.34,2.15-.65,4.26-1.44,6.39-2.13,6.39-2.05,12.93-3.54,18.99-6.49,1.75,3.42,3.84,6.69,6.44,9.51.76,1.2,1.96,1.91,3.18,2.55,3.75,6.61,9.06,12.32,15.07,16.93.58,2.8,4.99,7.14,7.7,7.96,1.28,1.22,2.72,2.23,4.28,3.06,1.64,1.25,3.41,2.33,5.34,3.07.69.35,1.46.24,2.19.4,1.24.22,2.26.39,3.56.53,2.78.3,4.58-2.58,3.89-5.11-.54-2.55-2.06-4.69-3.43-6.85-1.62-2.48-3.19-5.02-5.07-7.33-.1-.62-.43-1.21-.81-1.74,1.07-2.59-2.1-4.65-3.47-6.49-1.69-1.74-3.23-3.69-5.23-5.07-.62-.65-1.17-1.45-2.03-1.78-2.92-4.56-5.87-9.11-8.27-13.97-.78-1.53-1.5-3.09-2.24-4.64-.19-.51-.47-1-.82-1.43,1.62-.32,3.11-1.43,4.61-2.08,4.67-2.38,8.9-5.51,12.88-8.89,3.74-1.23,15.3-8.79,16.73-12.23,7.44-4.62,14.58-9.92,20.68-16.25.1.2.22.4.35.59,2.63,4.51,6.32,8.3,10.22,11.72,2.42,2.21,5.22,4.13,7.65,6.37-.33,2.6,2.94,4.52,4.74,6.22,3.1,3.66,6.87,6.85,11.13,9.17.08.74.41,1.46.91,2.01,1.68,1.95,3.79,3.52,6.09,4.67,2.17,1.21,4.24,2.58,6.48,3.68,2.17,1,4.45,1.96,6.85,2.18,1.6.53,3.22,1,4.86,1.38.28,2.49,2.87,2.56,4.84,2.52,2.28.02,4.57-.27,6.75-.98.85.16,1.72.12,2.57-.03,1.35-.16,2.39-1.09,3.74-1.18,1.14-.06,2.07-.91,2.38-1.94.11.07.23.12.34.17,1.78.81,3.37-.61,4.61-1.73,1.72-1.51,3.61-3.44,5.25-5.12,1.64-1.34,3.2-2.76,4.8-4.15,2.76-2.42,5.61-4.72,8.45-7.03.79-.68,1.87-1.44,2.63-2.32-.14,2.32-.21,4.64-.28,6.97-.1,2.26-.87,4.41-1.03,6.66-.17,2.32-.23,4.66.08,6.97.55,2.94,1.67,5.89,3.45,8.3,1.51,1.82,3.7,2.98,5.99,3.52,6.07,1.59,11.05-3.08,15.68-6.27,2.23-.77,3.78-2.8,5.45-4.38,3.61-3.37,7.77-6.69,9.6-11.42,1.77-.02,2.71-1.71,3.23-3.19,1.97-4.18,2-8.87,3.2-13.26,2.25-1.55,2.64-8.79,3.16-11.55.16-1.2.34-2.4.52-3.6,1.53.25,3.25-.96,3.17-2.65-.07-2.1-.47-4.19-.9-6.24ZM164.05,236.8c-.95-1.53-3.01-1.51-4.57-2,.18-.22.33-.47.44-.74,1.65.25,3.31.41,4.97.47.25.04.5.05.75.04.21.18.45.33.74.44.14.34.31.66.55.94.26.31.56.57.91.76,0,.02,0,.03.01.04.05.19.13.38.23.55-.02.04-.04.09-.05.13-.45-.04-.84,0-1.19.11-.92-.29-1.86-.52-2.8-.74ZM369,97.52s-.06.02-.08.03c.02-.02.05-.05.07-.07,0,.01,0,.03.01.04ZM304.29,110.94c.67,1.11,1.31,2.24,1.96,3.36.8,1.37,1.58,2.76,2.36,4.15-.46.57-.92,1.15-1.11,1.87-.22-.52-.44-1.05-.66-1.57-1.01-2.55-1.86-5.16-2.55-7.81ZM391.69,225.8s.02-.04.03-.06c.14-.11.26-.23.38-.36.1-.03.2-.07.29-.11.07.06.13.11.2.17-.3.12-.6.25-.9.37Z"/>
              <path class="cls-7" d="M477.26,179.87s0-.04-.01-.06c0,0,0,.01,0,.02,0,.02,0,.04.01.06,0,0,0-.01,0-.02Z"/>
              <path class="cls-7" d="M307.59,41.86c1.37.17,2.76,0,4.06-.46,2.02.67,4.17-.17,6.01-1.03,1.26-.35,2.46-.91,3.62-1.52,2.71-1.38,4.77-3.62,6.44-6.12.65-.85,1.51-1.63,1.83-2.67.63-.71,1.24-1.45,1.8-2.23,3.42-4.88,6.51-10.35,6.69-16.45.5-3.34,1.5-5.71-.99-8.63-2.27-2.88-6.26-1.32-8.76.43-6.02,3.82-6.96,11.01-10.18,16.82-1.38,2.58-3.29,4.83-5.23,7-1.54,1.76-3.59,3.17-4.77,5.21-1.09.93-2.27,1.8-3.2,2.9-2.39,2.75-.8,6.28,2.68,6.72Z"/>
            </g>
          </g>
          <g>
            <path class="cls-14" d="M257.49,236.66c-.17-.06-.33-.15-.47-.25-2.68.86-4.24-3.48-5.81-5.06-2.11-2.61-4.19-5.25-6.18-7.95-2.38-3.19-4.5-6.56-6.92-9.72-1.18-1.98-3.44-3.84-3.41-6.26-1.36-1.66.98-3.92,2.53-2.38,3.74,4.43,6.99,9.28,10.92,13.56-.4-1.85-.48-3.95.74-5.52.83-1.18,2.86-.63,3,.8-.82,2.86-.76,3.17.22,6.13.86,1.97,1.23,4.33,2.73,5.92.24-.99,1.41-1.57,2.34-1.15,1.41.87,1.67,2.85,2.37,4.27.63,1.28.98,3.26-.71,3.85,1.54,1.45,1.3,4.48-1.33,3.75Z"/>
            <path class="cls-14" d="M218.35,176.63c-.65-1.56-.68-3.35-.88-5.02-.87-.44-.95-1.44-.95-2.31-.81-1.37-.06-4.48.03-6.12.22-1.43-.21-4.37,1.09-5.17.23-.68.54-1.37,1.12-1.79.15-.11.32-.2.5-.26.62-2.12,2.41-7.51,5.37-5.13,1.02,0,1.61.91,1.89,1.78.31.97.88,2.03.5,3.05-.76,1.75-3.09,1.06-3.88-.28-1.17,3.47-1.82,7.1-2.02,10.75-.05,2.51.12,5.01.32,7.51.02.93.28,1.89-.03,2.79-.49,1.29-2.39,1.39-3.07.2Z"/>
            <path class="cls-14" d="M239.12,232.29c-.88-.37-1.3-1.42-.93-2.29.13-.31.27-.63.41-.94-1.23,1.29-3.56,1.57-4.1-.49-1.54,1.31-3.74-.24-2.93-2.11-.35-.06-.68-.23-.93-.48-.18-.18-.31-.39-.4-.61-1.85-.85-.93-2.87.22-3.91.87-.97,1.78-1.92,2.71-2.83,1.25-1.02,3.63-4.07,5.31-3.46,1.18-.92,3.17-.29,3.18,1.32,1.33.25,2.66,1.03,3.05,2.42.69-1.22,2.48-1.87,3.45-.6,1.81,1.76-4.57,11.98-6.57,12.83-.41.95-1.45,1.62-2.46,1.17Z"/>
            <path class="cls-14" d="M63.95,164.05c-.32-.3-.52-.72-.54-1.16-.04-.88.69-1.74,1.6-1.74.45,0,.87.13,1.2.44.32.3.52.72.54,1.16.04.88-.69,1.74-1.6,1.74-.45,0-.87-.13-1.2-.44Z"/>
            <path class="cls-14" d="M48.37,155.16c0-.92.77-1.65,1.68-1.65s1.66.78,1.65,1.68c0,.92-.77,1.65-1.68,1.65s-1.66-.78-1.65-1.68Z"/>
            <path class="cls-5" d="M340.06,164.63c-.61-1.27-.67-2.75-1.29-4.06-.87-2.16-2.5-3.93-4.18-5.51-1-.92-2.22-1.59-3.14-2.59-.91-1.25-1.76-2.58-3.11-3.41-1.03-.79-2.53-.89-3.56-.04-.84.75-1.59,2.08-1.04,3.19-.47.8-1.3,1.65-2.06,2.29-2.57,2.18-5.2,4.27-7.68,6.55-3.11,2.76-5.96,5.77-8.78,8.82-5.03,3.98-10.05,7.96-15.09,11.93-6.29,4.39-12.66,8.73-18.14,14.14-.01,0-.03.01-.04.02-6.1,3.12-12.22,6.42-17.95,10.22-.35.24-.7.49-1.06.73-.12-.19-.22-.38-.31-.55-1.25-2.11-2.53-4.19-3.79-6.29-1.26-2.22-2.82-4.28-3.84-6.63-.96-1.64-1.29-4-2.9-5.11-1.85-3.58-3.68-7.16-5.36-10.82,1.41-1.35-.06-3.31-.61-4.74-1.85-4.13-4.35-7.93-6.3-12.01.14-.98-.64-1.79-1.07-2.6-.85-1.36-1.18-3.63-2.68-4.36-.06-.07-.12-.14-.18-.2-.47-.47-1.18-.62-1.8-.39-.51-1.25-2.2-1.73-3.3-.94-.51.3-.89.75-1.19,1.26-.68.47-1.12,1.15-1.39,1.92-.62,2.57-.23,5.26-.52,7.88.07,1.97-.34,3.89-.09,5.88.2,2.67.38,5.45,1.06,8.03-.18,2.27,1.09,4.49,1.68,6.66-.47,2.02,1.03,4.43,1.55,6.4,1.33,3.45,2.82,6.83,4.44,10.15,1.68,3.46,3.55,6.93,5.54,10.35,1.08,2.33,2.3,4.59,3.66,6.77-1.23.5-2.44,1.01-3.66,1.51-6.53,3.11-13.7,4.12-20.4,6.81-1.15.56-4.16,1.33-6.02,2.33-2.47-.13-6.47.45-7.87.4-4.34.27-8.68.66-13.01,1.12-.14-1.1-.35-2.19-.6-3.29-.75-3.61-1.5-7.21-2.17-10.84-.53-3.08-.82-6.2-1.22-9.29-.33-1.35.06-3.42-1.21-4.36-.25-3.89-.37-7.79-.39-11.7.12-1.03-.19-2.31-1.33-2.58-.11-2.76-.57-9.8-4.69-8.82-.83-.17-1.64.26-2.31.7-1.4.43-2.57,1.39-3.27,2.67-1.21,2.05-1.39,4.48-2,6.74-.67,2.48-1.08,5-1.39,7.55-2.51.78-1.03,18.13-.2,20.6-.15,3.2-.15,6.41-.09,9.62.05.42.03.95.02,1.51-1.02-.05-2.05-.05-3.08-.07-.23-.07-.45-.13-.67-.18-.13-.67-.72-1.17-1.37-1.33-1.9-.43-3.78-.9-5.65-1.41-5.89-1.64-11.64-3.76-17.5-5.5-.78-.27-1.62-.35-2.41-.57-2.42-1.38-4.8-2.83-7.18-4.27-1.31-.61-2.86-2.21-4.32-2.06-.62-.46-1.25-.9-1.88-1.35.11-.41.21-.8.36-1.13.17-.85.8-2.54,1.2-4.11,1.27-2.05,2.32-4.22,3.53-6.31.88-1.64,1.85-3.21,2.88-4.75,1.51-2.34,2.75-4.84,3.96-7.35,1.58-3.42,2.68-8.16-.19-11.2-1.39-1.43-3.2-3.03-5.33-2.89-2.35.13-4.07,1.96-5.48,3.66-3.3,3.35-6.23,7.07-8.64,11.12-.18.38-.43.75-.67,1.14-1.02-.1-1.84.86-2.27,1.76-1.21,2.12-2.3,4.32-3.42,6.49-.24.58-.62,1.3-1.02,2.07-1.34-1.05-2.7-2.08-4.05-3.12-2.1-1.54-4.14-3.14-6.11-4.86-.79-.66-1.59-1.32-2.39-1.97-.66-.52-1.32-1.17-2.19-1.28-2.53-3.51-5.42-6.73-8.22-10.02-1.18-1.14-2.7-3.93-4.29-4.13-1.4-1.93-2.58-4-3.9-5.97-.51-.71-.89-1.65-1.7-2.07-.22-.37-.44-.82-.69-1.24.43-.47.79-1.1,1.06-1.71,1.09-2.11,2.15-4.24,3.24-6.35,1.7-3.29,3.35-6.61,4.67-10.07.46-1.4,1.22-2.89,1.08-4.41,1.81-3.82,3.85-7.52,5.86-11.23,2.53.06,5.39-9.78,5.45-12.01.78-5.44-1.36-13.98-8.26-13.32-2.19.31-3.59,2.23-5.03,3.72-2.01,2.04-3.26,4.65-4.46,7.22-2.28,4.97-4.91,9.78-6.75,14.95-.37,1.35-1.6,3.36-1.07,4.71-2.82,5.05-5.62,10.16-7.81,15.51-.53-.12-1.06-.23-1.59-.33-3.14-.55-6.24-1.28-9.32-2.09-3.33-.71-6.5-1.96-9.66-3.21-1.45-.57-2.88-1.19-4.31-1.8-1.11-.58-2.61-.81-3.34.26-1.71-.48-3.41-.98-5.12-1.45-4.53-1.28-9.04-2.97-13.81-3.01-3.11-.41-7.9-.97-8.87,2.96-.79,3.39,2.1,6.72,4.39,8.91,1.31,1.24,2.69,2.41,4.22,3.37.94.65,2.32,1.39,3.27.37,3.01,1.92,6.41,3.06,9.75,4.26,2.22.96,4.53,1.65,6.84,2.35.53.2,1.02.16,1.41-.02.74,1.25,2.67,1.51,3.92,2.08,2.38,1.05,4.93,1.54,7.42,2.21,2.62.67,5.29,1.23,7.94,1.54,1.76.53,3.54,1.02,5.33,1.42,2.21,4.62,5.12,8.88,8.1,13.02.94,1.24,3.28,5.54,4.51,5.87,1.86,1.9,3.16,4.23,4.87,6.27,1.17,2.33,3.16,4.21,4.76,6.26,1.34,1.58,2.7,3.16,4.13,4.65.31.33.65.63,1.11.77,1.55,1.71,3.11,3.4,4.74,5.03.78.81,1.87,1.91,3.04,1.51,1.14.97,2.24,1.97,3.36,2.96-1.09,3.73-1.89,7.54-2.54,11.36-1.22,4.42-1.52,9.04-1.73,13.6-.04,3.58-.42,7.19-.07,10.77.6,2.48.3,9.66,3.99,9.25.12.08.25.14.38.2.07.1.13.21.21.31.38.53.85.99,1.46,1.22,1.48.54,2.91-.66,3.36-2.04.57-.14,1.05-.55,1.44-1,1.33-.63,1.5-3.28,2.07-4.61,1.11-.28,1.27-1.49,1.36-2.46.94-1.03.75-2.63,1.04-3.92.08-1.28.61-2.65.17-3.89.04-.94.38-1.9.18-2.83.68-1.92,1.26-3.88,1.8-5.84,1.02-2.2,1.86-4.48,2.66-6.77.54-.78,1.27-1.75,1.7-2.76.41.22.84.42,1.19.66,1.32.79,2.66,1.56,4.02,2.29,6.11,3.82,12.72,6.59,19.54,8.89,3.2,1.24,6.34,2.59,9.52,3.87,5.87,2.07,11.95,3.61,18.08,4.68.19.96.51,1.93.61,2.71,1.39,5.54,3.03,11.08,5.37,16.3.76,2.45,1.57,4.89,2.39,7.32.69,1.43.66,4,2.6,4.27.74,1.69,1.55,3.34,2.38,4.99.97,1.52,1.51,4.3,3.73,4.26.93,1.42,2.01,2.76,3.06,4.09.89,1.22,1.39,3.25,3.06,3.54,1.2,1.22,2.91,1.85,4.6,1.95.7.02,1.42-.13,1.99-.57,4.04-.04,3.51-5.41,2.6-8.1-.54-2.92-1.24-5.8-1.95-8.69-1.7-7.19-3.76-14.3-5.67-21.44-.92-3.33-2-6.62-3-9.93,1.89-.17,3.77-.39,5.65-.64,1.52-.38,5.23-.43,7.1-1.53.87-.16,1.73-.37,2.6-.53,1.54.59,3.15-.62,4.68-.87,6.46-1.88,12.94-3.67,19.39-5.57,3.33-.75,6.68-1.45,9.97-2.38,1.26-.52,2.48-1.02,3.83-1.33,1.43-.57,3.29-.61,4.42-1.71.02.03.03.06.05.09,2.04,3.49,4.64,6.61,7.56,9.4,1.37,5.81,13.23,16.63,18.2,20.35,1.78,1.97,3.71,3.81,5.66,5.6.28.81.82,1.46,1.35,2.12,1.67,1.92,3.85,3.39,6.16,4.42,1.12.28,1.97,1.01,2.97,1.57.88.53,2.08.62,2.87-.13,1.42.32,3.28.75,4.29-.63,1.06-.25,1.74-1.25,2.07-2.23.32-1.05-.17-2.12-.5-3.1-.52-2.56-1.86-4.78-3.52-6.77-1.58-2.59-2.79-5.39-4.88-7.65-3.46-5.53-8.25-10.03-12.36-15.05-1.73-2.11-2.98-4.54-4.38-6.86-.41-.7-1.29-1.02-2.05-.75-1.82-3-3.39-6.14-4.6-9.44,1.71-1.71,3.43-3.41,5.44-4.76.81-.66,2.07-.98,2.53-1.97,2.92-1.59,5.82-3.22,8.67-4.93.28.18.61.27.94.27.41,0,.76-.14,1.08-.37,0,0,0,0,0,0,2.08-1.6,3.99-3.44,6.34-4.66,4.69-3.27,9.37-6.7,14.03-10.1.42-.38,1.06-.84,1.77-1.36.17-.02.35-.05.53-.12,1.24-.54,2.15-1.61,3.2-2.42,1.85-1.54,3.8-2.95,5.55-4.61,3.42-3.3,6.2-7.2,9.88-10.24,2.79-1.84,5.13-4.26,7.6-6.49,1.55-1.35,3.27-2.49,4.87-3.79,1.11-1.1,3.8-2.57,3.31-4.36ZM237.06,195.51c-.06-.09-.12-.17-.18-.26-.04-.06-.09-.11-.13-.16.17.03.35.04.53.02.01.02.03.05.04.07-.1.1-.18.21-.25.32ZM275.82,259.67s.06.09.08.14c.09.15.18.3.28.46-.14-.13-.28-.26-.42-.39.02-.07.04-.14.06-.21ZM308.18,178.86s0,0-.01-.01c.05-.04.1-.08.16-.11-.05.04-.1.09-.14.13ZM314.34,169.99c.14-.14.3-.27.46-.41.03.03.06.06.09.09-.18.1-.36.21-.55.31Z"/>
          </g>
          <g>
            <path class="cls-22" d="M395,217.25c-.45-.84-.76-1.78-1.45-2.48-.21-.31-.45-.61-.72-.89-.05.02-.09.03-.15.04-.02,0-.04,0-.05,0-.12,0-.23-.04-.33-.1-.05,0-.09-.02-.13-.04-.02,0-.03-.02-.05-.02-.14.04-.29,0-.42-.08-.24.06-.5-.08-.66-.28-.06-.07-.13-.15-.17-.24-.08-.17-.1-.36,0-.53,0-.01.01-.02.02-.03-.19-.12-.38-.26-.55-.41-.51-.45-1.01-.91-1.52-1.36.14-.2.27-.41.38-.61.28-.22.58-.4.86-.63,1.88.48,3.2-1.66,1.76-3.02-1.01-.8-2.17-1.39-3.34-1.9-.61-.81-1.28-1.58-1.86-2.41,0-.32-.08-.64-.17-.94,2.16-1.43,3.19-3.91.68-5.62-.41-.7-1.17-1.24-1.99-1.14-.89-1.05-2.24-1.52-3.56-1.69-.08-.01-.16-.02-.24-.03.46-1.29.71-2.68.5-4.03-.14-.63-.01-1.27-.2-1.89-.25-.92-.85-1.72-1.48-2.41-.71-.75-1.67-.97-2.6-1.37-1.22-.8-2.13-1.97-3.33-2.8-.46-.39-.89-.81-1.31-1.24-.39-.46-.72-1.01-1.26-1.31-.68-2.09-1.16-4.24-2.04-6.26.37-1.23-.52-2.38-1-3.45-.18-.33-.49-.56-.84-.68-.62-.58-1.49-1.01-2.34-.73-.63-.28-1.42-.36-2.18-.25-.2-3.38-1.79-4.95-5.31-6.09-.1-1.23-.1-2.47.05-3.7.41-2.11,1.49-4.63-1.43-5.34-1.36-.28-2.67.39-4.04.22.16-1.46.46-2.93.2-4.4-.57-3.01-3.6-4.1-6.28-3.05-1.18,0-2.36.09-3.53.22-.4.03-.85.13-1.12-.24-.35-.44-.67-.91-1.07-1.29.35-1.41.25-2.9-.65-4.1-.98-1.08-2.44-1.66-3.78-2.17-.37-.49-.82-.95-1.43-1.1-.07-.02-.15-.03-.22-.04.1-3.2-.48-5.05-3.13-7-1.57-1.31-3.48-2.72-5.64-2.46-.48-.42-.97-.95-1.64-1.03-.67-.54-1.35-1.07-2.01-1.62-.4-.33-.8-.66-1.22-.96.03-2.99-.65-6.38-4.13-6.89-1.35-.34-2.83-.75-4.21-.42-.35-.24-.69-.44-1.03-.55.18-2.42.42-5.98-2.53-5.14-.36-.07-.71-.14-1.07-.16-.23-.01-.46,0-.68.01-.19-.68-.42-1.44-1-1.89.16-.66-.14-1.4-.63-1.83-.22-.68-.93-1.2-1.66-1.15-1.77.59-3.58.06-5.4.04-.07-.08-.14-.16-.21-.24.38-1.61.39-3.57-.95-4.76-1.84-1.48-3.28-1.51-4.99.17-.18-.18-.38-.35-.58-.51-.2-.16-.43-.26-.68-.32-.08-1.07-.36-2.11-.46-3.18-.1-1.28-1.06-2.31-2.36-2.39-.44-.1-.81.24-1.21.09-1.1-.2-2.45.51-3.18,1.28-.69.73-.91,1.72-1.41,2.57-.9,1.69-.42,3.18.69,4.63-.22,1.42-.45,2.96-.02,4.39-1.94,2.1.19,4.73,2.52,5.23,0,.01,0,.02.01.04-.21.68.3,1.18.36,1.81.02.17.04.34.07.51-.53.75-1.01,1.53-1.35,2.4-1.07,2.35.74,6.08,3.59,5.4-.05.75.05,1.52.21,2.23.09.43.21.85.35,1.27-.33.66-.39,1.39-.46,2.11-.55,1.54,0,3.41,1.63,3.99.51.73,1.26,1.43,2.05,1.75,0,.02-.02.03-.03.05-.02.06-.04.12-.06.18-2.85,2.21-.36,5.06,2.36,5.7.18,2.24-.55,5.99,2.69,6.12.26.2.54.37.85.5.49.2.96.26,1.42.23.24.98.83,1.83,1.31,2.71-.15.66-.51,1.08-.58,1.82-.17,2.15,1.8,3.05,3.65,3.16-.97,1.52.61,3.08,2.12,3.25,0,0,.01.02.02.03-.09.72,0,1.5.52,2.05-.38.92-.15,2.03.65,2.65.09.5.17,1,.46,1.43.27.39.65.69,1.12.8,2.17.24,3.57-2.09,4.78-3.56.7-.83,1.46-1.61,2.2-2.41,1.65.55,5.51-4.74,6.74-5.99.65-.84,2.11-2.39,3.05-3.95.46.31.92.59,1.31.82,2.58,1.35,5.7,1.89,7.74,4.13,1.6,1.55,2.53,3.55,3.53,5.51.73,1.41,1.51,2.8,2.24,4.21.23.63.44,1.28.68,1.91.09.24.19.52.3.79-.88,1-1.71,2.04-2.47,3.14-.4.54-.8,1.09-1.18,1.65-2.8,2-5.33,4.32-7.58,6.92-1.17,1.35-2.47,2.65-3.43,4.16-.76-.47-1.8-.28-2.33.45-.68.93-.16,2.03.33,2.9,1.16,1.86,3,3.42,5.12,4.04.19.81.81,1.43,1.46,1.91.88.97,2.34,1.1,3.57.97-.09,1.29.32,2.74,1.53,3.41.24,1.05,1.22,1.64,2.14,2.06.42.22.87.32,1.32.36.32,1.03,1.27,1.96,2.32,2.17-.77,2.61,2.07,4.33,4.39,4.05.43.55.87,1.02,1.36,1.54.05.42.15.83.35,1.21.49.71.35,1.64.9,2.34.43.64,1.03,1.18,1.71,1.53,1.85,1.09,3.69-.32,5.59.34.2,1,.74,1.9,1.67,2.36.12.53.06,1.09.22,1.61.38,1.27,1.61,2.14,2.91,2.21.67.13,1.45-.2,2.04.18.83.94,1.69,1.88,2.91,2.3.18.35.33.71.54,1.04.92,1.34,2.72,1.89,4.25,2.18.8.06,1.51-.15,2.11-.53.25,2.41,1.29,5.21,3.56,5.91.71.19,1.44.09,2.1-.23,1.55.6,3.24-.27,4.19-1.54.67-.47,1.15-1.13,1.44-1.87.49,1.36,1.19,2.64,2.13,3.72.51.61,1.25.92,2,.92.71,0,1.42-.28,1.93-.85.74-.57,1.27-1.33,1.53-2.23.37-1.28-.15-2.59-.6-3.78.69-.22,1.41-.33,2.05-.68,1.22-.59,2.2-2.14,1.58-3.47ZM380.85,200.09s.02.05.03.07c-.02,0-.03-.01-.05-.01,0-.02.01-.04.02-.06Z"/>
            <path class="cls-22" d="M391.21,213.29s-.03-.01-.04-.02c.01,0,.03.01.04.02h0Z"/>
          </g>
          <g>
            <path class="cls-20" d="M443.97,193.85c.1-.6.18-1.2.26-1.8-.15-.06-.3-.15-.43-.26-.09-.08-.17-.16-.24-.25.03.18.05.36.08.54.11.59.21,1.18.33,1.77ZM443.38,199.72c-5.34-1.27-4.6-24.79-4.34-29.83.16-2.48.42-4.94.7-7.41.2-1.19-.02-2.89,1.35-3.39.51-3.44,1.82-16.84,6.16-16.76.82-1.26,2.62-.98,3.4.17,2.84.43,1.36,3.92,1.26,5.81-.53,3.66-1.13,7.32-1.63,10.98-1.01,8.09-1.06,16.29-1.7,24.42-.05,2.02-.11,4.04-.17,6.06-.1,1.27.39,2.93-.79,3.8-.45,2.36-.91,6.67-4.23,6.14Z"/>
            <path class="cls-19" d="M447.34,126.58c.03-.93.81-1.62,1.72-1.62s1.64.83,1.62,1.72c-.03.93-.81,1.62-1.72,1.62s-1.64-.83-1.62-1.72Z"/>
            <path class="cls-6" d="M478.12,169.27c-.24-.67-.83-1.03-1.46-1.09-.16-2.79-.72-5.53-1.17-8.28-.12-2.27-.32-4.54-.63-6.79-.32-1.33-.11-3.2-1.47-3.96-.91-3.07-.59-6.35-1.19-9.49-.23-1.06-.18-2.38-1.06-3.14-.05-.71-.06-1.44-.28-2.12-.13-.35-.37-.63-.66-.82-.1-.5-.2-1.01-.26-1.51-.74-4.45-1.18-9.12-3.38-13.13-1.13-1.86-2.39-3.67-3.93-5.22-1.56-1.56-3.39-2.81-5.17-4.1-1.3-.95-2.62-2.1-4.22-3-3.02-1.63-6.46-2.52-9.89-2.35-1.86-.8-5.91-1.49-5.21,1.76-2.3-2.57-4.86-5.22-8.28-6.17-1.94-2.1-4.26,1.23-5.2,2.81-.67,1.39-2.76,2.96-1.57,4.57-2.02,3.01-3.69,6.22-5.74,9.19-1.02,1.47-2.06,2.93-3.03,4.44-.47.77-1.06,1.55-1.14,2.47-.34.36-.56.8-.68,1.28-.98-.02-1.86.93-1.73,1.92.3,1.56,1.87,2.39,3,3.33.48.33.62.95.99,1.39,1.3,1.79,2.88,3.34,4.25,5.07-.29,1.5.17,3.06.53,4.51.43,1.69,1.25,4.38,3.33,4.2.11.64.23,1.28.37,1.92.4,1.87.92,3.72,1.72,5.47.33.77.82,1.47,1.01,2.29-.18,1.65-.17,3.3-.16,4.96.03,2.52.26,5.04.6,7.54-.1,4.14.03,8.28.07,12.42.15,5.94.06,11.93,1.12,17.87-.09.56-.17,1.11-.25,1.67-.73,1.26-.71,2.82-.99,4.22-.16,1.09-.29,2.19-.39,3.28-.69,3.32-.98,6.76-.61,10.14.01.33.05.68.13,1.02-1.16,4.55-1.75,9.34-.37,13.89.41,3.78,3.29,9.53,7.39,10.18.05.08.1.15.16.22,1.14,1.42,3.27.51,3.64-1.1.34,1.28,2.15,1.69,3,.63.14-.2.23-.42.3-.66.55-.03,1.09-.15,1.62-.3.46.07.93-.11,1.33-.32,1.63-.84,3.37-1.45,5.02-2.27,1.71,1.74,3.48-.75,4.67-1.91.82-.84,1.64-1.68,2.49-2.5.79-.89,2.09-1.61,2.22-2.9.85-1.06,3.84-4.24,5.1-6.61.8.09,1.6-.47,2.03-1.29.92-1.28,1.69-2.66,2.42-4.06,2.49-4.72,4.25-9.82,5.04-15.1,1.95-.39,2.22-4.02,2.45-5.66.36-1.44.69-2.89,1-4.35,1.11-.36,1.18-1.61,1.35-2.59.28-1.65.48-3.32.7-4.98.24-1.79.5-3.57.74-5.36.14-1.17.56-2.76-.73-3.44.27-1.92.64-3.82.99-5.72.1-.79.4-1.64.09-2.41Z"/>
          </g>
          <g class="cls-23">
            <path class="cls-16" d="M411.19,50.95c-.26-1.29-.47-2.59-.78-3.87-.38-1.32-.3-2.81-.93-4.05-.24-.9-.6-1.77-1.03-2.59-.88-2.52-2.43-4.72-4.02-6.84-.87-1.2-1.46-2.66-2.4-3.85-1.26-1.87-2.99-3.29-4.57-4.85-.81-.89-1.65-1.76-2.49-2.61-1.46-1.66-2.68-3.59-4.57-4.82-2.27-1.63-5.12-2.04-7.86-1.85-.62.09-1.15-.37-1.75-.5-1.29-.44-2.63-.69-3.99-.79-4.89-.42-9.79-.17-14.65.34-2.48.42-4.75,1.63-6.96,2.78-1.91.99-3.9,1.84-5.58,3.23-2.21-.6-3.86,1.48-5.35,2.77-1.51,1.45-3.13,3.26-4.52,4.9-2.15,1.73-4.02,3.86-5.23,6.35-.64,1.46-1.53,3.04-1.07,4.67.05.17.13.32.21.48-1.59,3.13-1.8,7.4-1.88,10.54-.45,1.66-.66,3.38-.72,5.1-.31,3.72,1.02,7.25,1.34,11,.79,3.91,2.62,7.59,5,10.72,1.59,2.89,3.68,5.46,6.28,7.5,1.03,1.89,2.58,4.06,5,3.89,4.9,2.3,10.44,2.73,15.49,4.63,4.72,1.23,9.55.23,14.14-1.04,9.64-1.51,8.87-1.65,16.25-7.69,5.73-4.31,12.33-8.51,14.91-15.54.83-2.28,1.43-4.66,1.84-7.06.75-1.53.42-3.2.02-4.8,2.19-1.49,1.35-4.47-.16-6.14ZM393.5,49.48c-.1.03-.2.07-.3.12.07-.12.14-.24.2-.36.03.08.06.17.1.25Z"/>
          </g>
          <path class="cls-13" d="M324.9,6.26s-6.52,17.79-18.63,25.97c0,0-8.89,10,5.57,11.39,0,0,21.48-7.3,25.15-26.36,0,0,6.43-24.36-12.09-11Z"/>
          <path class="cls-4" d="M413.28,50.51s13.71,53.78-31.05,60.44c-44.75,6.66-59.6-30.53-60.04-45.14-.27-8.88,8.9-15.53,8.9-15.53h0s-7.33,29.62,24.46,41.34c31.79,11.72,56.05-19.64,56.05-19.64l1.68-21.46"/>
          <path class="cls-3" d="M416.9,136.87s.55,18.19-25.69,46.54c0,0,16.23,35.06,9.36,48.94l22.72-20.03,3.1-45.08-3.53-22.18-5.97-8.19Z"/>
          <path class="cls-9" d="M110.44,225.31l-4.83-3.08c-1.66-1.06-3.87-.3-4.52,1.56-2.64,7.57-7.99,25.38-4.35,36.67.6,1.85,2.85,2.66,4.48,1.59,2.4-1.58,5.27-5.31,5.57-14.16,0-.15.02-.3.05-.46.34-1.73,2.61-13.11,4.79-18.42.56-1.36.05-2.92-1.19-3.71Z"/>
          <path class="cls-9" d="M184.1,249.07l-5.67.3c-2.93.16-5.07,2.84-4.55,5.73,1.61,8.85,6.16,26.76,18.12,40.53.98,1.13,2.45,1.78,3.93,1.64,2.99-.29,6.35-3.61-.22-20.94-.05-.13-.09-.27-.13-.4l-6.51-23.3c-.62-2.2-2.68-3.68-4.96-3.56Z"/>
          <path class="cls-9" d="M260.9,224.26l-5.29,2.72c-2.3,1.18-3.03,4.24-1.51,6.4,6.7,9.51,23.33,32.48,31.09,37.69.36.24.76.4,1.17.51,3.07.76,15.25,2.85,2.02-16.44l-22.41-29.67c-1.21-1.6-3.32-2.1-5.07-1.2Z"/>
          <path class="cls-8" d="M305.21,169.86s-33.87-52.86-29.96-76.05c0,0,6.95-23.61,40.7,11.67,0,0,49.76,37.58,64.92,65.68,0,0,36.83,56.41,12.82,62.14,0,0-22.54,14.55-74.86-47.97l22.26-20.2s-6.07-17.44-15.85-17.85l-20.03,22.57Z"/>
          <path class="cls-10" d="M303.56,37.94s31.85-13.29,35.39-31.93c0,0,.96,25.07-23.47,37.61,0,0-11.62,1.82-11.92-5.68Z"/>
          <path class="cls-2" d="M330.67,62.5s59.6,34.97,74.87-27.4c0,0,24.69,38.13-19.4,57.93,0,0-52.39,8.82-55.47-30.53Z"/>
          <ellipse class="cls-18" cx="329.69" cy="10.44" rx="5.6" ry="2.92" transform="translate(155.8 290.74) rotate(-60)"/>
          <path class="cls-21" d="M409.58,38.87s24.39-9.9,48.19-16.76c0,0-38.13-8-60.31,1.94,0,0,9.6,6.18,12.12,14.81Z"/>
          <path class="cls-21" d="M302,91.36s19.36-14.52,21.14-14.68-3.69-13.92,4.12-22.82l.97-7.89-47.22,40.54s14.17,1.68,20.99,4.85Z"/>
          <path class="cls-17" d="M201.21,246.12l.41-4.51s4.13-1.08,6.87-2.6,3.63-3.77,3.63-3.77c0,0-.1-1.3,3.35.5s5.71-.96,5.71-.96c0,0,3.99.25,5.14-.76s4.18-4.66,4.58-1.37-2.81,4.69,0,7.13l-29.7,6.35Z"/>
          <path class="cls-17" d="M179.07,247.02s.24-2.84-1.64-5.19,8.45-4.16,8.45-4.16c0,0,5.94-1.51,4.98,1s-9.35,6.26-9.35,6.26l-2.44,2.08Z"/>
          <path class="cls-17" d="M197.45,231.6s-5.67,6.23,2.21,3.12c0,0,4.35,1.08,3.54-1.5s-5.75-1.62-5.75-1.62Z"/>
          <path class="cls-17" d="M76.07,155.9s-6.1-9.06-1.77-12.08c4.34-3.02,2.61-4.77,2.61-4.77,0,0-3.95-3.19,3.39-7.55l6.81,1.27-11.04,23.13Z"/>
          <path class="cls-17" d="M84.35,116.64s-6.06,2.9-7.25,9.51c0,0,5.55,2.62,7.47.39s3.9-8.46,2.31-9.93-2.53.03-2.53.03Z"/>
          <path class="cls-17" d="M23.52,148.32s-8.12-.5-3.58,3.87c0,0,4.18.94,6.15,2.22s3.51,5.53,5.92-1.81c0,0-3.18-5.6-8.49-4.28Z"/>
          <path class="cls-17" d="M11.7,143.9s-3.93,2.89,1.46,4.48c0,0,7.21-4.23-1.46-4.48Z"/>
          <path class="cls-17" d="M33.81,144.35l25.24,7.96,5.03-10.77s3.44-.91,0,9.38c0,0,3.07,8.94-5.95,7.28,0,0-3.17,2.87-8.12.21,0,0-6.01,1.74-8.13-3.76,0,0-7.05,2.83-7.05-3.73l-1-6.57Z"/>
          <path class="cls-17" d="M447.39,239.11s-5.15-7.83,1.6-10.64c0,0,4.34-.18,3.7-6.72,0,0-1.56-6.62,3.2-3.57,0,0,1.86,2.57,4.03-1.77l6.54.95-7.91,14.64-11.16,7.11Z"/>
          <path class="cls-17" d="M465.18,196.23s-1.52,2.89-1.95,9.25l-3.43,3.14s3.02,3.8,8.26-1.55c0,0,2.81-11.02-2.89-10.84Z"/>
          <path class="cls-17" d="M441.24,217.4c0,2.11-7.15,5.32-4.96,7.61,0,0,6.86.32,4.96-7.61Z"/>
          <path class="cls-17" d="M455.39,200.16l-4,4.5s-.96,3.64,3.75,2.25.25-6.75.25-6.75Z"/>
          <path class="cls-17" d="M467.84,165.5s-5.44,1.62-1.18,10.77c0,0,.11,4.61-1.29,7.5,0,0-.43,7.77,5.57,2.79,0,0,2.52-3.7,1.66-9.91,0,0,3.86-10.66-4.77-11.14Z"/>
          <path class="cls-17" d="M427.93,118.68s-4.8-8.18-6.89,2.35c0,0,1.04,3.65.32,4.8,0,0,2.1,4.12,5.35,5.61,0,0,5.7-8.44,1.22-12.76Z"/>
          <path class="cls-17" d="M437.06,129.12s-5.28,2.7,0,7.75c0,0,10.34,2.8,2.78-5.96l-2.78-1.79Z"/>
          <path class="cls-17" d="M412.02,191.05s-6.86,2.11-2.47,9.04c0,0,2.9.07-.75,7.04,0,0,1.06,6.52,9.3,1.42,0,0,2.74-9.54,2.27-10.25l-.47-.71-2.1-1.6.25-2.68s-2.74-3.58-6.03-2.25Z"/>
          <path class="cls-17" d="M414,178.89s-3.4,3.89.91,4.87c0,0,2.76.54,3.75,1.5,0,0,2.79-.75,2.36-4.71s-7.02-1.66-7.02-1.66Z"/>
          <path class="cls-17" d="M400.07,180.98s-3.41,2.56.62,5.94c0,0,.15,4.46,1.74,4.74,0,0,5.19-1.09,3.58-7.05,0,0-3.37-4.91-5.94-3.63Z"/>
          <path class="cls-17" d="M300,125.88s-3.92,4.65,1.19,6.57c0,0,1.22.41,3.1,2.56,0,0,3.67,2.09,3.71-4.56.04-6.65-6.93-7.01-8-4.56Z"/>
          <path class="cls-17" d="M308.31,118.84s-2.45,5.42,4.39,6.57c0,0,5.49-.76,1.27-5.09-3.12-3.21-5.66-1.48-5.66-1.48Z"/>
          <path class="cls-17" d="M291.85,107.18s-3.5,2.36.8,7.49c0,0,1.08,2.36-.26,4.42,0,0,2.5,5.4,5.55,1.51,0,0,3.15-.78,0-7.95-3.15-7.17-6.09-5.47-6.09-5.47Z"/>
          <g>
            <path class="cls-11" d="M385.34,236.5c.07,0,.14.01.22.02,0,0,0,0,.01,0l-.23-.02Z"/>
            <path class="cls-11" d="M480.96,128.31c1.8-3.31,9.94-19.72.02-14.91-4.21,1.75-8.86,2.22-13.05,3.98-1.97-4.09-4.6-7.77-8.31-10.73-5.41-4.01-12.18-7.83-19.14-6.51-.63.13-1.28.21-1.89.41-.4.15-.69.42-.92.75-1.81-1.65-3.78-3.08-5.94-4.21-.51-.14-1.06-.44-1.63-.7,6.72-11.47,13.25-23.04,18.98-35.04,2.47-4.94,4.61-10.02,6.69-15.13,2.13-4.39,4.15-8.84,6.06-13.33,1.36-2.88,3.5-5.32,4.9-8.16,1.37-3.85-3.24-5.75-6.31-6.13-10.17-1.09-20.41-1.17-30.63-.92-8.24-.11-16.49.45-24.64,1.73-2,.51-4.25.88-6.25,1.65-1.86-1.68-3.88-3.2-6.07-4.5-9.67-5.16-21.31-7-32.01-4.36-6.43,1.51-12.64,4.12-17.43,8.78-6.4,6.24-11.12,11-13.85,19.85-.53,1.67-.98,3.39-1.33,5.13-2.44,1.75-4.84,3.55-7.3,5.27-4.66,3.21-9.45,6.23-13.93,9.7-3.7,2.82-7.36,5.72-10.84,8.81-3.33,3.02-6.62,6.09-10.05,9-1.83,1.58-3.61,3.22-5.3,4.96-.54.59-1.68,1.72-2.56,2.81-.39.4-.76.85-1.1,1.38-3.49,6.73-1.13,14.84-.04,21.95,2.15,11.36,5.54,22.55,11.03,32.76,2.79,5.08,5.26,10.35,8.49,15.18.93,1.21,8.37,13.85,9.52,10.68.14-.54-.46-.9-.77-1.23-4.03-4.64-6.97-10.12-10.09-15.4-6.05-11.35-11.95-22.97-14.52-35.68-1.23-6-2.35-11.82-2.76-18.03-.48-5.96,1.06-11.99,8.35-10.01,11.88,3.66,21.79,11.49,31.37,19.13,13.3,11.25,25.76,23.45,38.29,35.54,8.76,7.85,16,17.11,22.54,26.84,6.32,9.57,12.77,19.15,17.48,29.64,2.57,5.79,4.36,11.95,5.05,18.26,1.17,5.54-.51,12.93-6.72,14.44-8,2.2-16.27-.51-23.54-3.88-18.92-8.91-31.6-26.18-46.26-40.43-1.27-.96-3.33-3.85-4.73-4.5-.2.17-.4.34-.59.51-.34.29-.68.59-1.03.88,0,.39.08.79.27,1.09.48.71,1.14,1.28,1.71,1.92,19.51,18.6,36.68,44.94,65.37,48.95,1.04.09,2.02.13,2.96.13,5.73,0,9.58-1.64,12.05-4.3,6.24-3,12.18-9.01,17.1-12.83.82-.85,3.01-2.4,5.11-4.02-.77,6.21-1.72,12.57-.29,18.68,1.59,5.44,6,10.69,11.92,11.28.44.03.87.05,1.3.05,6.67,0,12.88-3.78,18.14-7.59,10.73-8,16.38-20.86,20.28-33.3,6.06-18.09,6.24-37.63,1.72-56.12-.57-2.38-1.06-4.87-1.54-7.39.29-.54.54-1.1.79-1.49,2.01-3.74,3.95-7.52,5.87-11.31ZM348.04,23.04c4.33-2.92,8.97-5.51,14.05-6.87,9.08-2.17,18.64-.27,27.06,3.44,4.88,2.32,8.83,6.13,12.21,10.27,5.82,8,10.3,17.79,9.94,27.86-.58,8-3.95,15.9-9.87,21.4-7.75,7.08-19.87,13.69-30.58,13.32-10.83-.14-21.76-4.04-29.84-11.35-10.1-9.75-11.87-25.5-8.11-38.52,2.36-8.18,8.12-14.89,15.13-19.55ZM403.26,227.76c2.75-7.98-.36-19.78-3.98-28.8-4.25-10.1-10.3-19.28-16.19-28.47-6.15-9.08-12.48-18.16-20.33-25.87-19.78-18.8-38.51-39.34-61.79-53.95-4.45-2.13-11.47-6.53-17.18-6.42,3.25-2.61,6.66-5.03,9.9-7.67,7.01-5.84,14.15-11.56,21.62-16.81,4.1-2.76,8.12-5.64,12.13-8.55-1.33,13.38,2.58,27.51,13.34,36.06,8.49,6.64,19.2,10.35,29.97,10.52,14.68.54,35.21-12.2,40.87-25.84,3.86-8.65,4.58-18.61,1.53-27.62-2.4-7.73-6.36-15.24-11.98-21.12,10.08-1.91,20.49-1.59,30.71-1.62,6.92-.06,13.85-.16,20.76.28,3.5.34,7.42-.15,10.65,1.41-1.22,1.91-2.43,4.58-2.97,5.47-2.34,4.83-4.64,9.67-6.78,14.59-9.14,20.35-20.35,39.68-31.79,58.81-2.6,4.41-5.09,8.89-7.77,13.26-1.14,1.87-2.32,3.71-3.47,5.58-1.17,1.8-3.43,4.96-.84,6.55,0,0,.02,0,.03,0,.99,1.24,2.14,2.38,3.09,3.66,7.23,9.37,10.27,21.46,10.76,33.19.31,8.33,1.1,16.51,1.19,24.92-.03,7.03-.61,14.06-1.36,21.08-6.95,5.5-13.07,11.98-20.1,17.37ZM467.4,213.53c-2.95,6.4-6.24,12.88-11.45,17.75-7.15,6.64-21.88,16.28-28.88,4.72-3.63-6.14-1.39-16.04-.44-23.76-.01-.05-.02-.1-.02-.15h0c.02-.32.07-.64.11-.96.04-.31.08-.62.13-.93.04-.31.09-.63.13-.94-.02-.02-.03-.03-.05-.05,0-.08.01-.17.02-.26,1.28-11.5,1.59-23.07.59-34.6-.41-7.37-.58-14.79-1.96-22.06-1.82-8.2-5.05-16.45-10.54-22.89-.46-.51-1.71-1.92-2.92-2.91,1.39-1.58,2.54-4.36,3.51-5.48,3.27-5.13,6.18-10.47,9.25-15.72,1.02-1.72,2.03-3.43,3.04-5.15,1.73.69,3.51,1.3,5.02,2.43,12.61,9.19,16.07,26.03,19.1,40.47,1.96,12.33,2.94,24.95,1.31,37.37-.58,4.43-1.22,8.88-2.42,13.19-.18,1.32-1.6,2.97-1.13,4.21,3.32,1.73,6.83-25.79,6.43-28.86.08-18.09-2.14-48.26-15.32-64.24.14-.02.28-.05.42-.07,1.05-.19,2.11-.39,3.18-.22,5.65.78,10.88,3.82,15.08,7.6,7.52,7.15,8.8,18.18,11.03,27.82,1.93,10.11,4.49,20.15,5,30.47.91,14.78-2.61,29.61-8.22,43.21ZM469.09,119.99c4.55-1.08,9.24-1.73,13.58-3.54-2.04,6.55-5.76,12.43-8.79,18.56-.11.35-.3.72-.52,1.1-1.05-5.51-2.25-11.05-4.28-16.11Z"/>
            <path class="cls-12" d="M342,164.16c.05-.24-.08-.48-.28-.61-.47-2.3-1.68-4.5-2.89-6.47-3.3-4.43-7.35-9.4-13.09-10.38-.63-.09-1.11.31-1.29.83-.66.81-1.26,1.66-1.91,2.48-3.12,3.99-6.87,7.29-10.68,10.62-3.28,3.01-6.76,5.8-10.24,8.57-1.78,1.4-3.47,2.92-5.16,4.43-6.1,5.47-13.06,9.82-19.69,14.6-5.24,3.59-10.26,7.51-15.66,10.89-2.45,1.61-4.98,3.1-7.39,4.76-.08.06-.15.13-.22.2-.92-1.79-2.09-3.48-2.93-5.31-1.99-3.62-3.47-7.48-5.41-11.13-1.91-3.93-3.98-7.76-5.96-11.66-3.22-6.51-5.92-13-8.98-19.62-3.38-7.77-9.69-11.01-13.89-1.74-2.07,6.59-1.66,13.67-.75,20.43.57,5.66,2.64,11,4.56,16.31,1.73,5.38,4.16,10.54,6.71,15.58,1.88,3.23,3.96,6.35,6.07,9.43-.83.2-1.62.71-2.45.93-8.81,2.97-17.51,6.1-26.72,7.75-5.62,1.31-11.41,1.59-17.08,2.58-.45-2.03-.9-4.06-1.26-6.11-.61-3.41-1.23-6.84-1.71-10.28-.62-4.3-1.19-8.6-1.6-12.92-.76-6.06-1.01-12.32-3.11-18.1-.93-2.13-2.33-4.61-4.79-5.14-2.41-.28-4.9.65-6.81,2.09-2.58,2.21-3.74,5.51-4.65,8.68-3.16,10.81-2.23,22.21-1.32,33.28.19,2.31.29,4.64.67,6.93-.38-.1-.76-.19-1.14-.29-2.1-.57-4.22-1.07-6.34-1.57-2.32-.59-4.63-1.25-6.87-2.1-7.75-3.13-15.21-6.55-22.5-10.74-.86-.49-1.72-.99-2.57-1.5-.27-.17-.58-.26-.89-.28.67-1.3,1.34-2.61,2.07-3.87,2.55-4.37,4.98-8.81,7.21-13.35,1.75-3.77,4.59-8.08,4.17-12.36-.47-3.73-3.43-7.12-7.14-7.87-4.89-.52-7.23,2.09-10.44,5.25-2.95,2.95-5.49,6.31-7.78,9.8-1.07,1.82-2.07,3.68-3.06,5.54-.73,1.39-1.33,2.84-2.03,4.25-.07.14-.15.28-.22.42-.32-.24-.63-.47-.93-.73-3.14-2.41-6.28-4.84-9.27-7.45-.81-.7-1.67-1.5-2.6-2.41-3.18-3.1-6.14-6.43-9.15-9.69-2.41-2.9-4.81-5.81-7.15-8.77-.65-.8-1.3-1.61-1.93-2.43.32-.48.54-1.09.8-1.57.98-1.99,1.93-4.01,2.88-6.02,2.2-4.65,4.51-9.25,6.81-13.85,3.03-6.22,6.85-12.05,9.13-18.61,1.6-4.49,2.81-9.43,1.66-14.17-.93-3.55-3.41-7.04-7.18-7.84-3.91-.93-6.64.96-9.1,3.79-3.12,3.47-4.92,7.86-6.98,11.99-2.74,6.23-5.54,12.43-7.99,18.78-.81,2.21-1.6,4.42-2.56,6.57-.77,1.79-1.76,3.49-2.44,5.32,0,0,0,.02,0,.02-5.45-1.53-10.88-3.15-16.23-5-4.42-1.52-8.9-2.86-13.37-4.18-5.56-1.62-11.14-3.55-16.99-3.7-10.88-.56-16,8.88-7.46,16.53,6.26,5.23,14.25,7.6,21.88,10.07,8.81,3.29,18.03,5.38,27.38,6.33.41.07,1.19.05,1.84-.12.13.51.39,1.06.5,1.43,2,5.08,4.99,9.69,8.03,14.21,3.95,5.62,8.88,10.43,13.4,15.57,4.3,4.83,8.61,9.66,13.42,13.99.91.89,1.85,1.74,2.82,2.56.21.21.45.4.72.53-1.81,5.22-3.27,10.71-4.43,16.1-1.25,8.37-3.46,28.41,7.54,30.7,2.3.26,4.57-.97,6.05-2.68,4.65-5.24,3.66-12.8,4.97-19.23.61-3.79,1.67-7.47,2.97-11.07.18-.88.86-2.09,1.27-3.19,2.24,1.59,4.44,3.2,6.77,4.68,5.77,3.34,12.05,5.73,18.33,7.91,8.94,3.22,17.98,6.22,27.34,7.94.04.01.08.01.12.02-.1,4.27,3.04,14.58,3.58,16.12,2.78,8.72,6.99,16.87,12.33,24.29,2.74,4.35,6.67,8.26,11.9,9.24,7.2,1.31,8.82-7.06,7.07-12.39-1.54-6.54-3.51-12.97-5.68-19.33-2-5.6-3.16-11.46-5.19-17.05.28-.02.55-.04.83-.07,1.74-.17,3.49-.36,5.22-.64,3.98-.7,7.91-1.62,11.82-2.63,4.19-1.19,8.43-2.14,12.69-3.04,4.33-.99,8.5-2.52,12.76-3.77,4.13-1.23,8.19-2.72,12.08-4.58.08-.04.17-.08.26-.12.19.27.37.54.52.82,1.17,1.78,2.29,3.6,3.51,5.36,6.22,9.15,13.67,17.39,21.49,25.2,5.47,5.68,11.55,12.16,19.92,12.73,0,0-.19-.02-.19-.02,3.37.6,7.33-.8,8.12-4.46.83-4.62-3.83-12.27-6.24-16.27-4-5.92-9.18-10.9-13.63-16.46-4.36-5.58-8.4-11.41-12.14-17.42.26-.04.52-.11.74-.24.95-.54,1.89-1.1,2.84-1.64.97-.55,1.94-1.1,2.9-1.68,5.9-3.65,11.77-7.35,17.61-11.09,13.11-9.16,25.69-19.13,37.04-30.42,4.42-4.19,9.19-8.15,12.78-13.11.22-.36.47-.72.71-1.08.44-.15.82-.58.85-1.15,0-.11-.03-.22-.04-.33.04-.11.1-.22.13-.33ZM336.25,168.86c-3.18,2.96-6.5,5.74-9.82,8.53-2.12,1.89-4.27,3.77-6.43,5.62-.25.22-.51.44-.76.66-.67.58-1.35,1.16-2.02,1.74-.12.12-.25.23-.37.35-.29.28-.59.56-.88.83-.15.14-.29.27-.44.4-.08.07-.16.14-.24.21-.1.08-.2.18-.31.23-.06.03-.12.04-.18.05-.52.45-1.03.89-1.56,1.33-.15.13-.31.25-.47.38-.17.14-.36.3-.58.35-3.94,3.21-7.95,6.33-12.02,9.37-3.61,2.63-7.1,5.4-10.74,7.98-5.52,3.68-11.15,7.19-16.72,10.79-1.9,1.19-3.85,2.29-5.76,3.47-.52.34-1.11.61-1.53,1.08-.14.16-.29.38-.43.63-.71-.86-1.87-.84-2.26.53-.3,1.29.81,2.28,1.37,3.33,4.44,7.02,9.08,13.95,14.43,20.31,5.83,6.74,12.35,13.14,15.85,21.5.66,1.83,2.25,4.22,1.62,6.34-1.98,3.51-8.18,1.56-11.11.22-4.62-2.23-8.23-5.91-11.71-9.59-3.11-3.15-6.18-6.34-9.13-9.63-5.15-5.68-9.8-11.72-14.51-17.8-1.04-1.38-2.11-2.74-3.24-4.04-.52-.66-1.59-1.78-2.05-.45-.02.13-.02.25,0,.37-1.27.34-2.52.75-3.77,1.17-3.84,1.36-7.78,2.38-11.71,3.44-4.07,1.12-8.08,2.37-12.2,3.34-7.35,1.64-14.6,3.76-22.05,4.94-2.19.36-4.41.49-6.61.76-1.07-.58-2.19,1.24-1.37,2.41,1.28,3.03,2.09,6.24,2.95,9.41,1.73,6.14,3.89,12.15,5.79,18.23,1.09,3.85,2.16,7.71,2.95,11.64.75,2.95-.31,7.52-4.17,6.8-5.34-.79-8.84-5.25-11.56-9.53-5.74-8.13-9.77-17.28-12.78-26.74-.98-3.31-1.96-6.64-2.63-10.03-.07-.2-.09-.45-.1-.7.64-.73.76-1.85-.41-2.21-4.42-.92-8.8-2.01-13.13-3.28-13.04-4.24-26.42-8.25-38.09-15.65-.83-.38-1.62-1.02-2.54-1.14-1.89-2.18-3.95,7.43-4.56,8.77-2.22,6.7-2.09,13.91-3.84,20.71-1.2,4.48-6.09,8.24-9.74,3.71-3.01-3.93-2.99-9.17-2.94-13.92-.19-9.19,2.4-18.05,4.49-26.91.17-.31.25-.61.27-.89.18-.2.28-.44.26-.74-.1-.92-1.04-1.37-1.64-1.97-2.52-2.37-5.04-4.76-7.47-7.23-1.52-1.6-2.97-3.25-4.44-4.89-2.15-2.36-4.23-4.78-6.35-7.17-2.67-3.01-5.37-5.89-7.89-9.07-1.96-2.44-3.71-5.02-5.41-7.65-1.48-2.08-2.82-4.24-4.1-6.45-.44-.73-.86-1.46-1.29-2.2-.2-.35-.4-.69-.62-1.02-.26-.4-.57-.83-1.06-.92-.03-.05-.06-.1-.1-.15-2.91-.16-5.73-1.16-8.59-1.75-6.69-1.46-12.95-3.38-19.39-5.89-6.87-2.39-14.13-4.54-20.11-8.93-5.42-3.93-6.82-11.36,1.72-11.65,5.66-.22,11.08,1.69,16.43,3.25,4.48,1.33,8.97,2.65,13.39,4.16,4.27,1.46,8.55,2.87,12.89,4.12,2.19.33,8.29,3.7,8.22-.49-.06-.22-.17-.39-.31-.53.44-.7.85-1.42,1.26-2.14,1.8-3.09,3.16-6.4,4.5-9.72,2.71-6.22,5.61-12.36,8.46-18.52,2.04-3.96,3.83-8.2,7.08-11.34,1.83-1.94,3.86-2.8,6.46-1.8,2.26.97,3.33,3.57,3.55,5.88.45,7.49-4.54,16.59-8.13,23.02-4.51,8.43-8.53,17.11-12.67,25.73-.21.44-.46.89-.66,1.33-.45,1.07.1,2.54,1.19,2.98,1.63,2.9,3.55,5.63,5.54,8.28,1.95,2.76,4.14,5.32,6.42,7.81,4.94,5.91,10.83,11.02,17.05,15.57.9.61,1.71,1.4,2.65,1.95-.06.29-.06.59.08.87.17.33.52.49.86.31.31-.19.46-.53.64-.85.77-.2,1.33-.9,1.04-1.69,1.08-1.83,2.1-3.82,3.17-5.64.92-1.49,1.81-3,2.77-4.46,1.01-1.45,2.12-2.83,3.2-4.22,1.75-2.21,3.66-4.29,5.74-6.2,1.89-1.92,3.99-3.3,6.79-3.03,2.48.41,4.69,2.46,5.2,4.94.1.51.1,1.04,0,1.55-.26,1.35-.71,2.66-1.27,3.92-2.01,4.27-4.12,8.5-6.4,12.64-1.53,2.85-3.28,5.56-4.83,8.39-.35.67-.69,1.34-1.05,2.01-.18.35-.33.7-.33,1.1,0,.53.23,1.16.73,1.41-.04.3-.01.6.14.89.24.43.68.64,1.08.9,7.37,4.54,15.11,8.48,23.24,11.48,2.03.8,4.12,1.44,6.24,1.97,2.18.57,4.41.91,6.63,1.23,1.64.26,3.28.54,4.94.69.53.05,1.05.16,1.54-.12.43-.26.72-.86.44-1.33-.03-.04-.07-.07-.1-.11,0-.11-.01-.21-.01-.32-.02-.71-.02-1.41-.02-2.11-.01-13.72-2.23-28.12,3.12-41.16.87-2.1,2.54-3.74,4.77-4.3,1.02-.27,2.27-.58,3.07.32,2.86,3.03,3.17,9.41,3.76,13.46,1.07,11.58,2.35,23.18,4.8,34.56.3,1.03.24,2.35,1.25,2.99.58.31,1.08.2,1.47-.13,12.92-.24,25.81-2.34,37.9-7.01,2.03-.69,4.07-1.32,6.1-2.01,1.47-.65,3.33-.87,4.47-2.04.16-.22.27-.49.33-.76.64-.2,1.04-1.33.29-1.81-2.41-4.91-5.53-9.43-7.67-14.47-2.1-4.7-4.04-9.45-5.7-14.32-1.36-3.48-2.65-7.01-3.34-10.69-.98-6.29-1.56-12.75-.28-19.03.43-2.35,2.05-6.19,4.94-5.86,3.85,1.65,4.95,6.3,6.73,9.73,4.14,10.11,9.13,19.84,13.94,29.63,2.05,4.46,4.12,8.9,6.6,13.14.35.43.61,1.11.92,1.73-.39.47-.76.96-1.1,1.47,1.59.35,3.31.35,4.83-.27,2.57-1.33,4.96-3,7.44-4.48,3.94-2.38,7.66-5.09,11.41-7.76,3.43-2.36,6.83-4.82,10.29-7.24,0,0-.01,0-.02.01-.06.04-.11.08-.17.12.05-.04.11-.07.16-.11,0,0,.03-.02.06-.04,4.11-2.81,8.24-5.73,12.03-9.01,3.42-3.06,6.76-6.21,10.33-9.1,3.56-3.02,6.89-6.29,10.19-9.58,2.96-2.92,5.53-5.88,7.72-9.52.15-.32.59-.98.95-1.66.59.21,1.29.27,1.82.61,5.89,3.23,10.78,8.82,12.51,15.39-.15.19-.3.37-.46.56-.94,1.1-1.96,2.13-3.02,3.13Z"/>
            <path class="cls-11" d="M303.58,169.09c-1.37-.85-2.06-2.44-3.13-3.61-3.82-4.82-7.09-10.06-9.82-15.57-2.46-4.89-5.06-9.72-7.26-14.73-3.52-8.89-6.39-18.09-7.81-27.56-.77-4.54-1.37-9.26-.31-13.8.07-1.74,3.82-10.68,5.76-7.31.19.67-.5,1.11-.77,1.64-1.46,2.49-2.04,5.39-2.19,8.24-.25,5.3,1.24,10.45,2.18,15.62,2.07,9.02,4.63,18.04,8.64,26.4,3.19,6.35,6.49,13.08,10.34,18.99,1.94,3.04,4.19,5.86,6.35,8.74,1.38,1.54.13,4.01-1.99,2.93Z"/>
            <path class="cls-11" d="M365.8,227.92c-4.62-.52-8.09-3.32-11.72-5.95-11.1-7.27-20.29-16.85-29.01-26.76-2.29-2.77-4.91-5.38-6.66-8.53-.25-.47-.24-1.28.43-1.34,1.02.08,1.57,1.24,2.34,1.81,7.33,7.06,14.06,14.72,21.37,21.8,4.7,4.4,10.3,8.33,15.35,12.17,2.82,2.04,5.68,4.09,7.9,6.8Z"/>
            <path class="cls-11" d="M312.09,41.46c11.33-.68,23.56-17.94,25.23-28.45,1.86-8.56-2.11-12.59-10.08-7.78-1.91,2.07-2.32,4.98-3.17,7.55-1.72,5.65-5.06,10.78-9.07,15.04-3.16,3.13-7.31,4.52-9.91,8.1-2.77,4.13,3.91,6.12,7.02,5.54ZM309.27,44.87c-5.69-.31-9.94-5.44-6.86-10.85,2.32-4.24,7.09-6.12,10.53-9.26,3.05-3.05,5.41-6.77,7.37-10.6.81-1.89,1.37-3.88,2.09-5.81.44-3.67,3.51-6.52,6.97-7.53,4.61-2.07,9.64-.2,10.59,5.04.9,4.47-.3,9.1-1.63,13.37-3.21,8.74-9.08,16.47-16.6,21.96-3.53,2.69-8.06,3.9-12.47,3.68Z"/>
          </g>
          <g>
            <path class="cls-11" d="M341.91,54.03c-2.71-3.1.1-10.03,1.07-13.6,1.03-3.1,2.81-9.07,6.09-10.27,1.19-1.88,3.35-.21,3.03,1.61-1.42,4.44-3.51,8.52-4.95,12.95-.54,1.38-1,2.79-1.24,4.26-.31,2.01-1.01,6.82-4,5.06Z"/>
            <path class="cls-11" d="M335.91,45.48c-4.42-1.26,1.23-5.08,3.15-5.91,2.27-1.07,4.7-1.7,7.17-2.07,3.06-.41,6.29-1.38,9.35-.62,3.67,1.49,2.59,4.92-1.2,4.74-4.91-.35-9.56,1.29-14.19,2.66-1.11.93-2.86,1.7-4.29,1.2Z"/>
            <path class="cls-11" d="M335.06,44.96c-.85-.67.61-2.03,1.31-1.34,3.56-1.26,6.89-3.18,10.58-4.06,1.41-.3,2.84-.53,4.27-.69-.34.23-.73.46-1.09.69-2.47,1.54-5.09,2.86-7.87,3.76-1.86.46-5.52,2.56-7.2,1.65Z"/>
            <path class="cls-11" d="M346.44,35.1c-.28-.8-.44-1.76-.02-2.55.56-1,1.26-1.84,2.05-2.66.36-.32.85-.47,1.32-.54.68-.07,1.06.88.57,1.33-.2.16-.46.22-.66.37-.27.19-.41.49-.61.75-.93,1.06-1.37,2.56-2.64,3.29,0,0,0,0,0,0Z"/>
            <path class="cls-11" d="M308.06,163.69c-.7-.25-.64-1.1-.78-1.7-3.5-.13-2.58-2.27-1.79-4.68-2.43-.12-3.03-1.76-3.09-3.9-4.89-1.12-2.32-3.66-3.02-6.85-3.92-1.38-5.83-.13-4.99-5.6.32-2.2-3.75-1.92-3.81-4.9-.07-1.28.5-2.52.45-3.8-5.39-3.69-3.86-3.87-2.58-9.56-9.48-2.18-.89-7.69-3.41-10.58-5.7-3.81-1.94-5.18-2.46-9.94-.7-1.41-1.49-2.85-1.22-4.49.93-6.14,4.13-1.93,1.92-2.12-2.29,2.64.63,5.18.58,7.92.18,1.69-1.29,3.29-.73,4.92.79,1.57,2.82,2.01,3.56,3.6,1.04,2.55-1.53,4.9-1.32,7.33,2.62,3.14,6.5-1.01,3.43,8.16.85,3.82,5.24.74,3.38,8.14,1.35,3.62,4.72.26,3.62,7.86,3.03,1.28,5.88.09,5.39,4.97-1.22,4.49,2.88,1.08,3.04,5.46.15,2.96,4.88-.99,2.38,5.85,2.29-.44,3.48,4.11,1.46,3.94Z"/>
            <path class="cls-11" d="M388.39,229.63c-2.23-.31-3.66-2.3-4.58-4.19-2.88,6.33-10.91,3.52-11.47-2.74-2.58,1.19-5.11-.69-6.79-2.54-.65-.76-1.24-1.6-2.21-1.96-1.8-.71-3.9-1.19-5.34-2.54-.95-1.19-.61-2.79-.82-4.17-6.8-.27-8.98.3-9.89-7.41,0,0,0,0,0,0-3.44-1.47-5.67-.43-6.34-5.08-.11-.27-.28-.52-.5-.71-1.3-.98-3.12-.97-4.2-2.28-1.6-1.57-.61-4.01-2.52-4.25-2.41-.3-3.6-.6-4.22-3.18-1.71-1.03-3.89-1.77-4.48-3.95-.3-.53-.91-1.06-.52-1.7,1.2-1.06,1.64,1.56,2.26,2.16,2.37,2.31,3.19.69,4.52,4.43,0,0,0,.01,0,.01,1.31.9,3.39.29,4.4,1.77.66,1.09.41,2.58,1.34,3.57,2.82,2.18,4.75.89,5.52,5.47.11.35.32.67.64.83,1.52.77,3.45.63,4.84,1.63,1.46,1.96.19,5.96,3.55,6.56,1.14.23,2.3.28,3.46.27,1.43-.08,3.48-.15,3.59,1.76.16.98-.13,2.1.43,2.98,0,0-.01,0-.01,0,.08.08.17.15.17.14,1.87,1.15,4.16,1.42,5.92,2.73,1.77,1.75,4.16,5.17,6.98,3.49.09-2.65,2.59-1.43,1.52.62.39,5.82,6.9,8.01,9.33,2.07.34-.93,1.42-1.14,1.77-.08.71,1.97,2.85,5.53,5.23,3.65.93-.67,1.63-1.74,1.63-2.91,0,.02,0,.05,0,.07,0,0,0,0,0,.07-.03-1.2-1.2-2.03-1.31-3.2-.05-.94.79-1.08,1.53-1.01.88-.18,1.97-.37,2.59-1.05.23-.35.31-.78.29-1.2,0,.05,0,.09.01.13-.46-2.16-3.87-2.89-5.28-4.43-3.1-3.36-.37-4.3,2.47-5.86-1.87-1.46-4.13-2.62-5.52-4.59-1.89-3.93,5.64-3.96-.45-7.56-1.52-1.3-4.54-1.22-5.15-2.72-.33-.72-.04-1.48.11-2.2.66-2.99.89-4.55-2.04-6.23-3.34-2.03-6.94-4.33-8.34-8.18-.98-2.23-.96-4.81-2.17-6.94-.89-1.59-2.83-1.25-4.34-1.6-2.44-.64-1.39-3.83-2.84-5.3-.94-.74-2.3-.49-3.27-1.16-2.55-1.64,1.48-6.71-.53-8.7.03.02.05.03.08.05-1.82-.9-5.03,1.4-5.14-2.18.03-2.75.61-5.7-3.16-5.58-2.89-.43-9.29,1.92-8.88-2.98.49-4.27-2.45-3.57-5.05-5.37-2.21-2.01-.29-5.54-3.71-7.49-2.21-1.24-4.57-2.17-6.83-3.32-1.69-.83-3.8-1.57-4.4-3.55-.67-1.73-.12-4-1.74-5.26-1.53-1.49-3.72-.71-5.6-.89-2.96-.15-2.04-3.66-2.37-5.64-.2-1.48-3.23-.08-4.51-1.31-.63-.47-.7-1.34-.67-2.07-.07-.5.2-1.47-.56-1.4-1.63.05-3.27.17-4.89-.18-4.65-.91.03-6.4-4.76-5.61-9.23,2.11-3.27-5.39-6.44-6.26-2.77.12-5.7,2.13-5.94,5.05.09.63-.44,1.42-.96.69-.49-1.84.46-4.02,1.82-5.29,1.81-1.74,5.84-3.68,7.27-.58.74,1.38.14,2.9.2,4.35.92,1.73,5.87-1.48,7.43,1.17,1.14,1.36-.4,4.31,1.54,4.63,4.1,1.07,6.76-1.76,6.64,4.24,1.03.66,2.34.27,3.48.51,2.35.83,1.12,3.93,1.68,5.76.56.93,1.88.52,2.79.55,2.5-.43,5.32.83,5.97,3.43.32,1.13.29,2.33.62,3.45.65,1.95,3.01,2.41,4.63,3.32,4.47,2.24,9.1,3.13,9.23,9.13.04.42.14.86.43,1.18,1.53,1.44,4.18,1.19,5.3,3.16.76,1.28.62,2.82.67,4.25.01.22.08.46.29.58,2.49.78,5.21-.22,7.78.14,4.3-.03,4.13,4.34,4.12,7.5,1.22.44,2.63-.43,3.85.17,2.18,1.05,1.66,3.94,1.3,5.89.02.91-1.11,2.56-.22,3.11,2.7.6,4.16,1.06,4.69,4.13.25.66.06,1.63.83,1.96,1.29.44,2.79.13,3.94.99,3.86,3.11,1.78,8.99,6.5,12.61,5.21,4.44,9.85,4.03,7.39,12.54,2.59.97,5.49,1.94,7.22,4.29,1.56,1.87-.46,3.95-1.7,5.3-.34,1.01,2.05,2.13,2.73,2.79,1.19,1.06,3.77,1.82,3.15,3.83-.72,1.51-2.73,1.69-3.91,2.74,1.04,2.14,3.76,2.7,5.41,4.27,2.64,2.65.96,6.23-2.63,6.59,2.15,2.88-.33,7.81-3.88,7.84Z"/>
            <path class="cls-11" d="M399.9,110.12c2.92-5.8,7.71-10.53,10.11-16.65,2.44-7.25,3.86-14.93,4.42-22.55-.09-5.57.19-11.2-.79-16.7-.05-1.21-.78-2.53-.36-3.7,1.1-.98,1.36,1.35,1.62,2.03,1.75,6.81,2.37,13.94,1.99,20.95-.47,4.55-1.67,8.99-2.68,13.44-1.06,4.49-2.72,8.82-5.28,12.68-2.63,3.74-4.77,8.4-9.02,10.51Z"/>
            <path class="cls-11" d="M387.34,103.32c15.37-13.44,22.44-19.25,25.85-40.54.26-1.37.21-2.84.61-4.17,1.32-1.25.72,2.07.72,2.65-1.02,11.34-4.77,22.84-12.64,31.29-4.1,4.63-8.72,8.55-14.53,10.78Z"/>
            <path class="cls-11" d="M331.39,87.99c-6.89-4.78-10.53-13.97-9.2-22.19.26-.76,1.18-.44.98.32-1,8.26,3.82,15.38,8.22,21.87,0,0,0,0,0,0Z"/>
            <path class="cls-11" d="M371.56,106.06c-9.76-.38-19.26-4.04-27.71-8.77-.78-.24-1.29-1.74-.1-1.59,2.1,1.14,4.3,2.13,6.5,3.04,5.74,2.71,12.05,3.99,18.18,5.38,2.7.6,5.41,1.24,8.07,1.92-1.65.07-3.3.07-4.95.02Z"/>
            <path class="cls-11" d="M373.68,114.57c-11.8.14-23.07-4.51-33.06-10.44-.76-.51-2.5-1.28-1.62-2.39.45-.37.92.19,1.34.34,2.51,1.26,5.04,2.46,7.62,3.57,7.99,3.67,16.67,5.47,25.18,7.31,6.79,1.73,9.97,1.86.54,1.59Z"/>
          </g>
          <g>
            <path class="cls-11" d="M426.19,131.55c-1.05-.04-1.62-1.02-2.33-1.65-1.67-1.05-3.09-2.76-3.08-4.82-.06-.73.34-1.43.28-2.15-.61-1.91-.72-4.07.26-5.85.3-.78,2.12-2.69,2.48-1.08.01.31-.21.72-.56.65-2.21,1.37-1.57,4.36-1.1,6.48-.75,2.77.07,4.25,2.43,5.76,1.44,1.78,2.33,1.56,3.45-.37.65-1.07.52-2.39.99-3.5.32-.62.59-.39.74.17.23,2.29-.93,6.05-3.57,6.36Z"/>
            <path class="cls-11" d="M429.42,120.44c-.39-.12-.59-.49-.78-.82-.22-.33-.46-.64-.71-.94-.76-.88-1.74-1.62-2.3-2.61-.16-.31-.04-.83.36-.85.17-.02.31.13.38.28.35.42.75.81,1.13,1.2.75.79,2.61,2.31,2.27,3.5-.04.16-.16.33-.34.25Z"/>
            <path class="cls-11" d="M437.17,137.28c-2.27-1.16-4.29-4.04-2.55-6.46.53-.79,1.35-1.94,2.44-1.69.5.17.51,1.08-.02,1.2-1.42.29-2.59,2.48-1.61,3.73.46.78,1.23,1.27,1.89,1.85.52.53,1.16,1.86-.15,1.37Z"/>
            <path class="cls-11" d="M441.89,137.16c-.1-.03-.18-.08-.15-.2,0-.47.3-.91.62-1.13-.72-1.7-2.29-2.91-2.88-4.67-.17-.42.17-1.15.66-.74.59,1.47,1.77,2.53,2.59,3.87.31.57.76,1.17.69,1.85-.13.64-.86,1.27-1.53,1.03Z"/>
            <path class="cls-11" d="M467.12,177.2c-.84-.54-1.14-1.43-1.61-2.24-.84-1.79-1.58-3.85-1.11-5.84.31-1.16.98-2.21,1.87-3.01.56-.43,1.22-1.13,1.99-.94.52.19.39,1.14-.19,1.07-1.27.6-2.25,1.82-2.65,3.15-.39,1.48.29,3.1.85,4.42.47,1.04,1.65,2.22.86,3.39,0,0,0,0,0,0s0,0,0,0Z"/>
            <path class="cls-11" d="M467.89,188.75c-1.77.11-2.87-1.42-3.02-3.04-.13-1.24-.34-2.8.49-3.85.73-.64,1.52.7.73,1.15-1.1,5.57,3.73,5.47,5.57,1.1,1.18-2.54.31-5.29.66-7.93,1.04-3.28.83-4.71-.52-7.86-.43-.81-.34-2.49.82-1.26,1.29,2.64,2.31,5.73,1.13,8.6-.69,2.56.36,5.24-.51,7.81-.61,2.46-2.49,5.45-5.34,5.29Z"/>
            <path class="cls-11" d="M437.15,226.03c-1.75-.14-2.23-2.31-1.44-3.64,1.03-1.56,3-2.16,4.22-3.57.48-.44.82-1,1.31-1.42.95-.58,1.45,1.2.49,1.42-.62.71-1.29,1.38-2.03,1.97-1.02,1.09-3.61,1.63-3.2,3.48.36.57,1.32.62,1.81.2,1.3-1.16,2.27-2.72,3.93-3.42-.71,1.67-3.02,5.31-5.09,4.97Z"/>
            <path class="cls-11" d="M447.49,239.03c-1.18-1.11-1.57-2.97-2.07-4.49-1.11-3.6.77-6.58,4.39-7.4.42-.16.91-.13,1.32-.27.65-1.01.77-2.27.81-3.44.13-1.58-.42-3.18-.02-4.73.9-3.75,3.53-2.47,5.53-.39,1.28-.75,1.53-3.01,3.17-3.22,1.7.33,2.03,1.38,4.21,1.15,1.48-.09,2.89,2.26,1.39,3.11-1.26-2.37-.98-1.33-3.32-1.77-.91-.07-1.54-1.02-2.41-1.02,0,0,.01-.02.01-.02-1.12.97-2.2,4.58-4.03,2.68-.76-.63-2.29-2.34-3.1-1-.68,1.18-.29,2.52-.24,3.8.07,1.53.09,3.11-.44,4.57-.57,1.91-1.25,1.76-2.95,2.16-4.65,1.11-3.71,5.41-1.89,8.66.93.22.63,2.04-.37,1.64Z"/>
            <path class="cls-11" d="M460.36,210.51c-1.03-.63-1.56-2.19-.73-3.18.96-.82,2.27-1.47,2.59-2.81.41-2.75.84-5.68,2.6-7.93,1.11-1.49,2.34.49.96,1-3.13,3.74-.52,8.3-5.28,10.87.52,2.14,5.1-.09,5.88-1.29,1.05-1.73,1.68-3.84,1.23-5.85-.22-1.04.25-2.32-.39-3.22-1.06-1.16.07-2.41,1.07-1.03,1.09,1.48.35,3.49.82,5.15.11,2.43-.75,5.16-2.49,6.89-1.7,1.19-4.24,2.47-6.25,1.38Z"/>
            <path class="cls-11" d="M453.54,207.68c-1.78-.05-3.22-1.66-2.53-3.42.3-.67.9-1.12,1.41-1.62.89-.81,1.77-1.64,2.74-2.35.21-.15.45-.29.71-.2.34.11.38.69.08.86-1.31,1.06-2.51,2.25-3.72,3.43,0,0,0,0,0,0,0,0,0,0,.02-.02-.5.44-.57,1.02-.05,1.48,1.01.77,3.03.55,3.93-.31.82-.93,1.01-2.24,1.46-3.36.13.58.16,1.21.16,1.81.11,2.62-1.75,3.88-4.22,3.7Z"/>
            <path class="cls-11" d="M411.44,211.39c-1.43-.28-2.54-1.48-3.05-2.8-.65-1.92.6-3.78,1.48-5.4.34-.58.67-1.23.18-1.83-1.89-2.46-4.23-5.16-1.99-8.24.65-.85,1.54-1.56,2.49-2.05.45-.2,1.87-.97,2.11-.29.1.25.04.6-.21.73-2.59,1.01-5.65,3.21-3.53,6.21.29.43.6.85.92,1.26.66.85,1.51,1.65,1.66,2.76.17,1.74-1.33,3.04-1.84,4.6-.2.51-.38,1.09-.2,1.63.4.92,1.17,1.76,2.19,1.96.71.15,1.44.05,2.13-.15,1.22-.28,2.44-.76,3.17-1.83,1.28-1.88,1.87-4.24,2.18-6.44.12-.91.27-1.83.19-2.75-.74-.84-1.88-1.55-2-2.75-.11-.58.36-1.25-.03-1.74-.5-.7-1.03-1.4-1.38-2.18.78.24,1.57.59,2.13,1.2.72.76.51,1.68.36,2.6,0,.17.15.3.24.43.4.44.82.84,1.25,1.25.2.2.41.43.47.71.29,1.89-.2,3.82-.5,5.69-.56,2.35-1.49,5.12-3.63,6.46-1.45.68-3.19,1.27-4.8.96Z"/>
            <path class="cls-11" d="M418.67,186.26c-.39-.14-.7-.45-.94-.78-.33-.38-.56-1.02-1.11-1.1-1.01.09-2.03.18-3.03-.03-2.11-.43-1.75-2.77-.88-4.19.36-.58.74-1.6,1.57-1.45.45.07.48.87.04.97-.06.01-.13,0-.19.05-.47.53-1.66,2.64-.91,3.18,0,0-.02-.01-.03-.02-.01,0-.02-.02-.04-.02.82.45,1.85.27,2.75.22.7-.16,1.41-.11,1.92.44.44.29.83,1.37,1.39,1.23,1.04-.82,1.11-2.72,1.27-3.96,0-.63-.56-1.11-.89-1.57-.25-.36-.45-.77-.64-1.16,1.38-.96,2.6,1.07,2.81,2.23.15,1.66-.65,6.68-3.09,5.97Z"/>
            <path class="cls-11" d="M402.35,192.39c-.99-.07-1.73-.91-1.97-1.83-.34-1,.23-2.1-.23-3.07-.86-1.23-2.42-2.2-2.14-3.93.11-1.08.79-2.65,2.07-2.57.61.04.64,1.13.02,1.18-.15,0-.29.07-.41.15-1.57,1.64-.03,2.74,1.1,3.95,1.14,1.18.32,2.86.87,4.17,1.89,1.61,4.35-2.06,3.99-3.86-.29-2.69-1.97-2.28-2.18-3.52-.05-.61.66-.96,1.14-.6,1.33.73,2.06,2.27,2.24,3.73.39,2.68-1.58,6.16-4.5,6.2Z"/>
            <path class="cls-11" d="M179.07,247.02c-1.05-.34-.97-1.36-.42-2.12-1.49-1.15-1.61-3.61-.5-5.06.58-.79,1.44-1.34,2.31-1.77,1.17-.6,2.39-1.17,3.69-1.4.58-.07,2.51-.38,2.41.55-.02.38-.36.47-.68.46-.62.02-1.22.15-1.81.33-.91.3-1.76.71-2.61,1.15-1.5.77-3.46,1.96-2.51,3.92.12.25.35.4.56.56.52.41.63,1.15.43,1.75.7-.1,1.29-.5,1.85-.9,1.1-.84,2.12-1.78,3.16-2.69.53-.46,1.08-.9,1.71-1.22.57-.28,1.18-.48,1.81-.58.57-.04.98-.38,1-.97.14-.59-.48-.95-.62-1.47-.04-.2.16-.39.31-.5.48-.32,1.11-.06,1.36.43.48.84.38,1.88.05,2.76-.29.84-1.09,1.36-1.96,1.46-1.45.21-2.54,1.23-3.58,2.19-1.64,1.34-3.66,3.68-5.98,3.13Z"/>
            <path class="cls-11" d="M195.39,236.29c-1.67-1.29-.33-3.82,1.19-4.63.26-.13.59-.2.87-.07.39.19.35.91-.08,1.02-.81-.06-2.2,1.77-1.62,2.48-.03-.03-.03-.03-.06-.07.99,1.01,3.03-.63,4.31-.56.56-.04,1.13-.04,1.69.06.62.21,1.4.35,1.73-.38.33-.67-.32-1-.78-1.32-.46-.34-.87-.74-1.21-1.2,1.19-.63,2.77.05,3.15,1.33.43,1.33-.39,3.06-1.88,3.15-.37.05-.72-.09-1.07-.2-.64-.13-1.29-.11-1.93-.05-1.4.22-2.94,1.37-4.3.44Z"/>
            <path class="cls-11" d="M200.69,246.35c-.36-2.17.4-4.87,2.28-6.16,2.02-1.68,4.92.07,6.49-1.94,1.2-1.57,1.02-4.72,3.39-5.08,1.38.06,1.83,1.69,2.64,2.57.88,1.12,2.93-.92,4.03-.95.72-.1,1.43-.25,2.16-.27.61.09,1.19.14,1.75-.21,1.87-.91,3.09-2.81,5-3.6,1.21-.31,2.35.77,2.5,1.94.13,1.03-.04,2.1-.38,3.07-.13.25-.18.5-.1.77.21.73.77,1.86-.13,2.33-.68.2-.81-.63-.91-1.1-.46-1.05-.37-2.14.1-3.16.2-.81.5-2.4-.78-2.34-1.25.51-2.11,1.7-3.22,2.45-1.98,1.5-2.24,1.43-4.57,1.43-1.75-.01-3.09,1.28-4.77,1.52-1.89.41-2.72-4.64-4.02-2.39-.97,2-1.3,4.88-3.86,5.46-.95.28-1.93-.02-2.89.14-2.54.14-3.77,2.71-3.79,4.99.27.63-.55,1.3-.9.53Z"/>
            <path class="cls-11" d="M52.42,160.03c-2.94-1.94-5.08-.08-7.86-.9-.56-.25-.93-.77-1.1-1.34-1.07-2.72-4.33-1.5-6.54-2.02-3.01-.7-2.43-4.48-2.99-6.82-.1-1.24-.86-2.51-.55-3.73.21-.49.86-.44,1.03.05.1,1.35.55,2.68.75,4.04.37,1.52.08,3.41,1.14,4.65,1.66,1.02,3.77.14,5.56.71,2.85.88,2.14,3.3,3.75,3.26,1.53.07,2.98-.51,4.5-.25,1.34.11,2.41,1.02,3.71,1.19,1.27-.02,2.5-.85,3.35-1.75.27-.67.88-.82,1.45-.39,2.63,2,5.12-.34,5.22-3.14-.9-3.42-.43-3.76,1.14-6.77.58-1.3.18-2.82-.66-3.91-.33-.5-.12-1.52.61-1.44,1.31.76,1.73,2.66,1.75,4.09.08,1.84-1.28,3.2-1.85,4.84-.34,1.17.49,2.31.38,3.52-.21,3.62-3.67,6.97-7.1,4.3-1.34,1.56-3.69,2.84-5.7,1.82Z"/>
            <path class="cls-11" d="M28.89,157.59c-.84-.09-1.61-.63-2.04-1.35-.16-.27-.32-.55-.53-.79-.92-1.14-2.25-1.72-3.71-1.5-6.8.53-6.19-6.98-.21-5.87.38.07.75.15,1.12.25.18.01.33.12.4.29.11.26.03.6-.23.73-.14.07-.3.05-.44.03-.48-.07-.96-.13-1.44-.16-1.18-.13-2.93.33-3,1.73,0,0,0-.02,0-.03,0-.02,0-.03,0-.05.02.64.6,1.08,1.13,1.33,1.34.58,2.82.15,4.22.37.97.19,1.87.74,2.56,1.44.56.48.86,1.17,1.34,1.71.83.74,1.98.44,2.46-.53,1.16-1.99-.53-3.94-1.88-5.32-.93-.75-2.07-1.18-3.11-1.76,1.27-.22,2.82-.38,3.88.53,1.09,1.14,2.18,2.43,2.59,3.99.53,2.04-.64,5.19-3.12,4.99Z"/>
            <path class="cls-11" d="M13.16,148.38c-5.67-.33-2.09-6.47-1.05-3.96.17,1.1-1.12.58-.98,1.61,0,.01,0,.03.01.04,0,.02,0,.03.02.05,0-.02-.01-.03-.02-.05,0-.02,0-.03-.01-.05.68,1.45,2.84.97,4.08.67.39-.56-.35-1.38-.12-2.06,1.41-.17,1.7,2.07,1,2.94-.74.7-1.97.76-2.94.8Z"/>
            <path class="cls-11" d="M75,154.41c-1.27-.69-1.58-2.2-2.1-3.43-.37-.98-.89-1.89-1.24-2.87-.55-1.7.46-3.34,1.54-4.59.75-.91,1.68-1.65,2.52-2.48.3-.29.61-.67.39-1.1-.96-1.88-1.07-4.36.46-5.97.58-.63,1.33-1.1,2.05-1.56,1.3-.89,2.28-1.32,3.89-.98,1.26.25,2.52.67,3.82.54.17,0,.3-.11.47-.12.45.02.58.63.32.93-.28.29-.74.3-1.12.33-1.72.14-3.36-.7-5.08-.51-.77.12-1.39.67-2.06,1.04-1.67.96-2.87,2.32-2.33,4.35.26,1.06,1.13,2.11.57,3.24-.36.76-1.02,1.31-1.62,1.89-.98.92-1.8,1.78-2.47,2.92-.5.85-.28,1.65.16,2.42.84,1.89,2.02,3.82,1.83,5.96Z"/>
            <path class="cls-11" d="M84.04,129.06c-.63-.35-.29-1.1-.41-1.66-2,.06-4.62,1.15-6.2-.59-1.67-2.49,1.22-5.6,2.35-7.81.58-1.19,1.73-.06.89.68-.65,1.22-4.16,5.84-2.03,6.56,1.69.83,4.97-1.24,5.94.31.69-1.8,3.19-9.7.17-10.01-1.38.13-.88,2.08-1.92,2.55-1.35-.31-.09-2.91.57-3.49,1.18-1.13,2.95-.37,3.49,1.02.88,2.1.3,4.48-.13,6.63-.3,1.11-1.3,6.22-2.72,5.82Z"/>
            <path class="cls-11" d="M435.78,68.08c-1.47-2.43-.36-5.65-.7-8.37.1-.87-.35-1.99.22-2.72,1.43-.62.83,3.49,1.05,4.31-.17,2.21.73,4.83-.57,6.78,0,0,0,0,0,0Z"/>
            <path class="cls-11" d="M439.2,63.42c-.57-.39-.41-1.18-.49-1.78-.04-.62-.08-1.23-.12-1.8-.1-2.08-.19-4.17-.06-6.25.05-.38.16-.99.66-.94.4.05.52.6.27.87-.06,1.64.05,3.36.12,4.98.07,1.14.15,2.28.24,3.42.03.36.09.73-.02,1.08-.07.24-.33.61-.61.43Z"/>
            <path class="cls-11" d="M442.74,57.87c-.57-.59-.35-1.53-.49-2.28-.15-2.64-.37-5.29-.42-7.94.02-.37.26-.87.7-.78.8.07.58,4.02.82,4.9-.2.99,1.35,7.14-.61,6.1Z"/>
            <path class="cls-11" d="M300.43,86.55c-1.14-.75-6.58-3.06-4.38-4.7.27-.1.51.01.68.2,1.41.87,2.9,1.58,4.33,2.41,1.3,1.08,1.6,2.66-.62,2.09Z"/>
            <path class="cls-11" d="M307.44,87.28c-2.74-2.45-6.09-4.34-8.74-6.8-.36-2.78,3.95,1.05,4.86,1.48,1.67,1.32,3.67,2.4,5.04,4.03.58.96-.13,1.86-1.16,1.29Z"/>
            <path class="cls-11" d="M220.73,167.04c-1.18-.9-.43-2.68-.27-3.89.25-.85.79-7.12,2.35-5.03.16,1.74-.47,3.51-.58,5.25-.27,1.21-.04,3.24-1.5,3.66Z"/>
            <path class="cls-11" d="M222.87,169.65c-1.33-1.34.16-3.64.28-5.26.22-.66.64-4.17,1.74-2.76.06,1.86-.58,3.76-.79,5.62-.17.82-.16,2.29-1.23,2.4Z"/>
            <path class="cls-11" d="M183.01,264.02c-1.06-.74-1.67-8.84-1.47-10.37-.01-.73.62-1.94,1.32-1.11.36.69-.11,1.55.06,2.32-.25,1.16,2.36,10.51.08,9.17Z"/>
            <path class="cls-11" d="M187.3,268.54c-1.19.06-2.78-9.43-2.44-10.57.06-.49.69-.83,1.01-.34.4.88.28,1.93.52,2.87.29,1.56.68,3.09,1.07,4.63.12.98,1.27,3.04-.16,3.41Z"/>
            <path class="cls-11" d="M97.35,255.28c-1.27-1.11-1.63-3.7-2.32-5.28-.27-1.48-1.65-3.39-.88-4.82-.02.03-.05.06-.07.09-.02.03-.03.05-.05.08.41-.81,1.43-.19,1.28.59.29,1.06.68,2.09,1.02,3.13.09,1.04,3.36,6.75,1.01,6.21Z"/>
            <path class="cls-11" d="M100.05,252.45c-1.55-.45-3.23-8.93-3.9-10.81-.17-.45.04-1.35.67-1.07.54.66.64,1.65.97,2.45.71,2.19,1.42,4.39,2.23,6.54.26.8,1.3,2.56.02,2.89Z"/>
            <path class="cls-11" d="M64.79,176.86c-1.15-.36-2.42-3.47-3.22-4.54-.39-.8-1.36-1.67-1.03-2.62.13-.23.39-.38.64-.23.93,1.2,1.8,2.51,2.65,3.78.54,1.04,1.79,1.94,1.59,3.22-.04.31-.34.46-.63.39Z"/>
            <path class="cls-11" d="M69.05,177.58c-.35-.11-.53-.44-.71-.73-.5-.81-1.01-1.61-1.52-2.41-.66-1.13-1.6-2.11-2.14-3.3-.2-.43.07-1.21.64-.87,1.44,1.73,2.75,3.58,3.97,5.48.21.32.45.63.47,1.03.07.45-.18.99-.71.81Z"/>
            <path class="cls-11" d="M295.25,122.57c-1.74-.02-2.75-1.92-2.85-3.47-.1-1.08.57-2.07.38-3.16-.1-.55-.27-.94-.53-1.4-1.24-1.89-2.76-2.88-1.9-5.41.17-.58,1.31-3.32,1.97-1.99.1.28.03.62-.21.81-.7.79-1.2,1.9-1.09,2.97.19.92.96,1.56,1.46,2.31.72.97,1.26,2.13,1.18,3.36.01.85-.48,1.62-.43,2.47.18,1.71,1.46,3.05,3.2,2.15,1.22-.7,2.62-1.74,2.65-3.27.07-.93-.3-1.86-.54-2.73-.38-1.15-.72-2.31-1.1-3.46.32.51.62,1.09.92,1.63,1.02,1.96,2.44,4.37,1.14,6.53-.95,1.36-2.51,2.64-4.23,2.66Z"/>
            <path class="cls-11" d="M297.38,110.61c-.81-.53-1.51-1.2-2.31-1.73-1.89-.19.09-4.24,2.31,1.73Z"/>
            <path class="cls-11" d="M305.1,135.67c-.69-.21-1.33-.58-1.86-1.07-.51-.44-.82-1.07-1.36-1.48-.45-.33-1.03-.34-1.54-.5-.63-.17-1.22-.5-1.61-1.03-1.41-1.75-.95-5.87,1.76-5.99.51-.08.67.7.37,1-.09.09-.24.17-.37.13-.28,0-.56.12-.8.25-.92.78-.93,2.27-.57,3.33.38.93,1.41,1.19,2.3,1.36,1.03.2,1.61,1.11,2.28,1.83.45.42.99.74,1.58.93,1.06.3,1.61-.42,1.87-1.36.31-1.07.6-2.15.83-3.24.09,2.08.43,6.6-2.87,5.84Z"/>
            <path class="cls-11" d="M306.03,126.79c-.85-.42-1.43-1.07-2.31-1.34-1.25.34-1.16-2.16.07-1.66.77.24,1.47.7,2.09,1.21.6.53.96,1.32,1.08,2.1-.31-.06-.63-.18-.93-.31Z"/>
            <path class="cls-11" d="M313.7,125.88c-2.74-.06-6.58-1.06-6.36-4.48.12-1.02.05-2.44.92-3.12.78-.23,1.05,1.06.42,1.39-.72,1.9-.2,3.89,1.93,4.44,1.12.15,4.17,1.3,4.35-.45,0,.02,0,.04,0,.05,0,.02,0,.04,0,.06-.17-1.11-.76-2.39-1.78-2.95-.97-.62-2.79-.35-3.1-1.68.52-1.17,3.27.21,4.07.67,1.85,1.49,3.12,6.07-.45,6.06Z"/>
          </g>
        </g>
      </g>
    </g>
  </g>
</svg>