<?xml version="1.0" encoding="UTF-8"?>
<svg xmlns="http://www.w3.org/2000/svg" viewBox="0 0 352.25 551.6">
  <defs>
    <style>
      .cls-1 {
        fill: #8aacd6;
      }

      .cls-2, .cls-3, .cls-4 {
        fill: #0b1b4f;
      }

      .cls-2, .cls-4 {
        stroke: #0b1b4f;
        stroke-miterlimit: 10;
      }

      .cls-5, .cls-6 {
        fill: #ff9ca7;
      }

      .cls-5, .cls-7 {
        opacity: .6;
      }

      .cls-8 {
        fill: #a00d5a;
      }

      .cls-9 {
        isolation: isolate;
      }

      .cls-10 {
        fill: #fffef3;
      }

      .cls-11 {
        fill: #a6d389;
      }

      .cls-12, .cls-13, .cls-14, .cls-15 {
        fill: #234a74;
      }

      .cls-16 {
        fill: #fff;
      }

      .cls-17 {
        fill: #ebd4ff;
        opacity: .58;
      }

      .cls-13 {
        opacity: .35;
      }

      .cls-13, .cls-14, .cls-15, .cls-7 {
        mix-blend-mode: multiply;
      }

      .cls-14 {
        opacity: .65;
      }

      .cls-15 {
        opacity: .5;
      }

      .cls-4 {
        stroke-width: .75px;
      }

      .cls-7 {
        fill: #8b69af;
      }

      .cls-18 {
        fill: #b3ddff;
        opacity: .8;
      }
    </style>
  </defs>
  <g class="cls-9">
    <g id="Layer_2">
      <g id="Layer_1-2" data-name="Layer_1">
        <g>
          <g>
            <path d="M222.19,460.29c8.54-7.28,17.7-13.8,26.41-20.85,4.27-3.61,7.85-7.93,11.9-11.76,7.94-7.13,13.42-16.39,20-24.69,3.35-4.39,7.11-8.45,10.28-12.99,4.82-6.8,8.18-14.5,12.71-21.49,8.08-13.73,16.2-27.43,24.08-41.28,4.81-8.5,9.16-17.54,12.99-26.45,1.74-4.53,2.97-9.23,4.55-13.82,1.14-3.84,2.39-7.56,3.29-11.45.77-4.95.45-10.41-2.04-14.8-.71-.24-.94-1.18-.78-1.82,2.24-4.36,5.63,6.03,5.96,7.66,1.7,6.68.04,13.45-1.92,19.87-1.6,5.32-3.09,10.79-4.89,16-2.93,6.84-5.88,13.68-9.31,20.29-7.51,14-15.51,27.75-23.76,41.32-3.98,7-8.34,13.78-12.11,20.9-3.85,7.35-9.16,13.76-14.47,20.09-6.11,7.48-11.23,15.78-17.84,22.83-3.28,3.31-6.77,6.4-10.04,9.73-4.1,4.18-8.45,8.09-13.31,11.38-4.14,2.9-7.91,6.31-12.14,9.08-2.89,1.62-6.34,1.88-9.56,2.28Z"/>
            <path d="M153.74,537.81c-1.82-2.55-3.23-5.89-4.48-8.62-1.17-2.66-2.38-5.32-3.25-8.11-.95-3.01-1.56-6.11-2.11-9.21-.65-3.22-1.26-6.45-1.72-9.71-.15-1.16-.62-3.2.8-3.7.26-.05.56.06.73.27.34.4.37.9.44,1.39.11.56.27,1.12.41,1.67.41,1.79.87,3.56,1.3,5.34.62,2.54,1.2,5.09,1.76,7.64.83,3.66,2.05,7.22,3.57,10.65,1.42,3.31,2.65,6.72,4.56,9.79.62.92.58,2.53-.56,3.01-.51.19-1.08-.02-1.44-.42Z"/>
            <path d="M157,541.94c-1.31-.03-2.02-1.51-1.85-2.68.09-1.23,1.16-1.95,1.93-2.78,2.21-2.28,3.96-4.95,5.8-7.53,3.42-5.4,7.25-10.54,10.45-16.08,1.49-2.45,2.27-5.22,3.38-7.84,1.37-3.34,2.74-6.91,3.81-10.3-.02.05-.03.1-.05.15,0,.01,0,.02-.01.04.58-1.49.62-3.24,1.35-4.63.41-.61,1.27-.28,1.38.39.04.75-.21,1.51-.2,2.28-.71,6.21-3.14,12.01-4.99,17.93-1.73,5.18-4.92,9.71-7.87,14.26-2.27,3.44-9.65,16.02-13.14,16.79Z"/>
            <path d="M130.17,223.73c-1.47-3.71-1.86-7.47-2.22-11.34-.31-4.3-.28-8.61-.1-12.91.18-4.27.37-8.61,1.17-12.8.58-2.93.95-5.85,1.8-8.71,1.04-3.42,2.49-6.75,3.58-10.14,2.23-7.02,4.55-14.11,7.46-20.86,1.75-3.88,3.77-7.63,5.79-11.38,1.47-2.49,3.07-4.91,4.61-7.37,2.51-3.92,5.44-7.55,8.07-11.38.42-.62.83-1.26,1.23-1.89.22-.33.44-.76.88-.79.23,0,.39.15.48.33.25.5-.07,1.02-.28,1.47-.68,1.42-1.48,2.77-2.31,4.09-2.08,3.39-4.47,6.59-6.5,10-1.61,2.76-3.36,5.39-4.87,8.2-1.74,3.4-3.6,6.77-5.17,10.25-3.18,7.2-5.64,14.76-8.02,22.23-.97,2.63-1.94,5.27-2.79,7.95-.69,2.3-1,4.64-1.46,6.97-1.19,5.16-1.51,10.4-1.64,15.67-.21,5.4.02,10.82.9,16.12.22,1.21.48,2.4.83,3.58.17.61.44,1.19.48,1.83.01.46-.21.98-.62,1.22-.44.25-1,.09-1.27-.34Z"/>
          </g>
          <path class="cls-1" d="M350.91,265.22c-.03-.33-.06-.67-.08-1.01-.17-.53-.38-1.04-.59-1.55-.26-.62-.53-1.24-.81-1.86-.15-.33-.31-.65-.47-.98-.12-.23-.25-.46-.37-.7-.08-.16-.15-.33-.19-.5-1.39-.92-3.18-1.1-4.45.26-.8.08-1.48.38-2.1.78-.49-.96-1.09-1.85-1.77-2.61-5.38-6.48-11.47-2.58-15.96,2.56-1.34,1.54-2.26,3.36-3.47,4.99-1,1.19-1.94,2.43-2.83,3.7-2.53,3.05-5.37,5.83-7.78,8.98.21-1.43.43-2.85.38-4.3.06-5.27-.04-10.35-4.07-14.31-1.66-1.69-2.77-3.82-4.32-5.6-2.14-2.81-5.77-4.01-9.12-3.36-.62-1.89-1.32-3.76-1.84-5.69-.22-.83-.45-1.67-.7-2.5.21.11.43.21.66.31,1.87,2.71,5.51,3.37,8.58,3.61.94.09,1.89.15,2.83.15,1.78,0,3.55-.19,5.28-.69,1.84-.03,3.64-.52,5.11-1.66,1.49-1.23,3.54-2.26,3.84-4.37.36-1.83-.22-4.09-2.2-4.68-1.6-.53-3.21.27-4.58,1.05-2.75-.07-5.58.33-8.11,1.44-.98-.4-1.93-.92-2.88-1.44-.03.08-.11.14-.2.15-.01,0-.02,0-.03,0-.11,0-.21-.05-.31-.09-.08-.03-.16-.07-.24-.11-.15-.07-.3-.14-.45-.22-.31-.16-.61-.33-.9-.51-.15-.09-.3-.17-.44-.27,0,0-.01,0-.02,0-.08,0-.16-.05-.23-.08-.05-.03-.09-.05-.13-.08-.03-.02-.05-.03-.07-.05-.03,0-.05,0-.08,0-.11-.03-.19-.12-.2-.23-.02-.02-.03-.04-.04-.06-.02-.02-.04-.05-.07-.07,0,0-.01-.01-.02-.02-.74-.26-1.5-.45-2.3-.51-1.45-1.52-2.96-1.68-4.14-1.05-.07.18-.13.35-.19.53.05.38-.07.78-.34,1.06-.17.17-.39.28-.62.29,0,.04-.01.07-.03.1-.03.05-.07.08-.12.1-.05.05-.11.07-.18.07h0s-.02,0-.03,0c0,0-.02,0-.03,0-.07-.02-.14-.05-.18-.12,0-.01-.01-.03-.02-.04-.02,0-.03.02-.05.02-.17.38-.29.8-.36,1.23-.71-.61-1.53-1.07-2.35-1.54-1.61-.99-3.22-2.04-5.04-2.61-4.18-1.11-9.04-.46-13.19.55-3.39.9-6.51,2.73-8.99,5.2-2.63,2.19-5.31,4.33-7.93,6.54-.69.5-1.41.93-2.13,1.36-.5.02-.95.19-1.39.44-1.17.84-2.21,1.88-3.36,2.76-.38.33-.82.64-1.27.95-.11-.1-.22-.19-.33-.28-2.53-1.97-6.77-1.44-8.61,1.24-.91,1.14-.97,2.62-1.06,4.01-.4,2.12-1.06,4.26-1.94,6.23-1.51.86-2.85,1.99-4.36,2.86-1.45.99-3.82,1.91-4.68,3.5-4.11.82-8.49,4.4-7.24,8.19.28.82.58,1.53.99,2.11-.66.7-1.29,1.57-1.43,2.33-.36.38-.67.85-.84,1.35-1.1.79-1.76,2.46-2.43,3.65-1.46,2.59-2.87,5.23-4.56,7.68-3.12,3.78-5.53,8.04-8.07,12.22-3.92,5.76-8.05,11.4-11.35,17.55-.48.84-.99,1.67-1.5,2.49-.95-.84-2.07-1.57-2.89-2.23-3.35-2.68-7.17-4.48-11.16-5.97-2.43-4.12-4.78-8.29-7.44-12.26,1.64-2.87-4.23-11.37-5.68-14.42-.34-.6-.75-1.29-1.16-2.02-.4-.9-.8-1.75-1.06-2.44.13-1.11-.54-2.16-.83-3.21-.7-1.98-1.35-3.99-2.06-5.97-.47-1.58-.88-3.75-2.82-4.05-.21-.68-.59-1.23-1.05-1.63-.65-2.07-1.27-4.14-1.82-6.24-.35-1.33-.87-3.41-1.24-4.96-.2-.69-.26-1.45-.59-2.09.25-.91.51-1.81.75-2.72,1.72-6.96,2.53-14.11,2.88-21.26.37-4.74,1.08-9.47.74-14.24-.13-1.88-.34-3.84-1.38-5.46-1.22-1.99-3.48-4.09-5.94-2.89-2.45,1.21-3.89,3.74-5.35,5.95-1.63,2.73-3.37,5.38-5.2,7.97-.09-.29-.18-.58-.26-.87-.8-2.82-1.3-5.72-1.95-8.57-.45-2.68-1.3-5.33-1.37-8.05.05-8.27,1.57-16.42,2.3-24.64,1.01-4.44,2.96-8.63,4.3-12.99.31-1,.74-2,.83-3.06.52-1.3,1.01-2.6,1.58-3.88,1.26-.46,1.85-1.92,2.31-3.15,1.16-2.85,2.2-5.74,3.16-8.66.96-2.89,1.91-5.81,3.22-8.57.77-1.49,1.53-2.99,2.19-4.53,1.22.52,2.12-2.01,2.67-3.07,2.54-3.7,4.36-7.87,6.59-11.76.26-.53.52-1.07.5-1.66.24-.6.53-1.25.63-1.91,1.54-1.84,3.06-3.7,4.52-5.61.47-.61.98-1.22,1.5-1.83.38,1.52.81,2.92.99,3.83.63,2.57,1.56,5.07,2.96,7.33.53.87,1.1,1.72,1.66,2.57-.03.08-.08.15-.1.24-.51,1.89.69,3.76,1.15,5.56.76,1.95,1.67,3.84,2.8,5.61.64,1.17,1.85,2.09,3.23,2.02.47.46.96.91,1.44,1.37.17,1.38.94,2.62,1.73,3.74,2.9,4.18,7.47,6.54,11.68,9.15,2.03,1.52,3.78,3.38,5.81,4.9-.35,3.1,3.63,4.48,5.81,5.77.69.54,1.4,1.28,2.33,1.35.18.03.35.05.51.05,2.48,0,3.75-3.26,1.66-4.92,1.01-.88,1.82-2.41,2.36-4.04,0,0-.02-.02-.02-.03-.07-.05-.13-.12-.18-.19-.27-.41-.22-.91-.05-1.35,0-.01,0-.02.01-.03.03-.2.07-.41.12-.6-.01-.09-.02-.17-.03-.26-.03-.28-.02-.56,0-.84.02-.57.07-1.15.12-1.72.02-.25.05-.5.08-.74.03-.25.09-.52.2-.76,0-.13.02-.26.02-.38.02-.27.03-.54.05-.81-.3-1.68-.77-3.55-1.5-5.03.03-.15.04-.3.04-.45.18-4.06.65-8.12,0-12.17-.53-4.22-.58-8.49-1.41-12.67-.42-4.95-1.24-9.87-1.65-14.82.11-3.09.77-6.19.51-9.29-.27-2.75-1.25-4.89-4.36-4.81-.53-.01-.94-.38-1.41-.56-1.19-.51-2.51-.64-3.79-.6-1.07.19-2.26-.1-3.2.54-.42-.13-.87-.15-1.32-.06-.02,0-.04,0-.06.01-.09-.16-.19-.31-.31-.45.47-.57.93-1.15,1.45-1.65,1.29-1.39,2.78-2.56,4.11-3.89,1.23-.29,1.99-1.44,2.91-2.22,2.41-2.25,4.72-4.63,6.36-7.51,1.66-2.15,5.41-6.52,1.97-8.64,1.37-4.15,2.96-8.22,4.5-12.31,1-2.87,2.35-5.72,3.82-8.41,1.28-2.45,2.86-4.43,1-6.35,1.71-4.46,3.44-8.93,5.66-13.17,1.13-2.08,2.35-4.12,3.72-6.05,1.33-1.6,2.19-3.51.23-5.05.92-1.69,2.52-2.97,3.29-4.74.75-2.23-1.78-4.32-3.83-3.2-.75.36-1.24,1.15-1.79,1.75-1.37,1.55-2.8,3.05-4.42,4.34-1.22.96-2.66,1.59-3.89,2.53-2.73,2.1-5.16,4.56-7.82,6.74-1.19.98-2.43,1.9-3.73,2.74-.83.54-1.8,1.1-2.23,1.99-.56.36-1.08.83-1.54,1.29-1.95,1.75-3.97,3.43-5.93,5.16-1.45-.58-2.73.51-3.72,1.44-.93.82-1.83,1.69-2.73,2.55-2.92,2.78-5.74,5.66-8.38,8.71-1.77,2.04-3.36,4.3-4.23,6.88-1.39.76-2.09,2.34-3,3.57-1.9.25-2.79,2.22-3.84,3.61-1.78,2.67-3.44,5.44-4.95,8.28-.9,1.67-1.77,3.37-2.62,5.09-.16.32-.32.64-.47.97-2.28,1.84-4.51,3.72-6.71,5.66-2.47,2.14-5.14,4.03-7.64,6.13-3.88,3.25-7.5,6.8-11.23,10.22-5.85,5.08-10.74,11.09-15.93,16.81-1.91,1.97-3.84,3.93-5.61,6.02-1.07,1.18-2.34,2.5-2.24,3.89-4.06,3.74-7.36,8.26-10.97,12.42-1.69,2.07-3.48,4.09-4.92,6.35-.32.66-.36,1.3-.2,1.88-5.38,6.13-10.22,12.71-14.62,19.57-.96,1.47-1.95,2.92-2.88,4.42-.41.81-.63,1.64-1.13,2.41-.3.68-.73,1.39-1.1,2.13-3.75,4.25-7.96,13.78-9.72,16.93-.11.23-.23.46-.34.69-.84.58-1.46,1.56-1.99,2.4-2.66,4.29-4.68,8.94-6.82,13.5-1.73,3.84-3.37,7.21-4.74,11.3-.94,2.91-1.56,5.91-2.24,8.88-.25,1.33-1.02,2.71-.54,4.07-.26,1.04-.91,3.16-1.43,5.38-1.06,1.17-1.23,3-1.69,4.48-.69,2.39-1.31,4.79-1.8,7.23-1.3.8-1.49,2.64-1.77,4.04-.05,1.05-.66,1.81-1,2.76-.97,3.42-1.53,6.94-1.95,10.46-1.12,1.21-.83,3.06-1.02,4.59-.09,1.34-.15,2.68-.2,4.02,0,.32-.01.63-.02.95-.59.39-1.03,1-1.14,1.71,0,0,0,0,0,0-1.28,8.59-1.8,17.27-2.18,25.94-1.36,1.58-.76,3.94-1.01,5.86-3.18.97-1.9,5.2-2.21,7.71-.07,7.38.17,14.75.67,22.11-.48,6.41.03,15.59.24,18.05,1.25,9.27,1.97,18.63,3.9,27.8.91,3.34,1.36,7.06,2.79,10.25,2.38,12.32,6.71,24.41,12.96,35.3.75,1.4,1.6,2.74,2.45,4.07.49.82,1,1.68,1.58,2.47,3.79,8.97,14.97,28.27,22.29,30.02.73,1.76,2.34,2.96,3.61,4.33.44.83,1.08,1.56,1.68,2.28,2.95,2.94,5.87,7.47,10.18,8.29-.45.5-.79,1.13-1.14,1.7-1.37,2.35-3.23,4.6-3.85,7.28-3.08,1.32-1.32,9.78-1.07,12.65.76,4.98,1.67,9.93,2.36,14.92.9,6.17,1.9,12.32,3.93,18.21,1.53,5.65,3.28,11.47,7.33,15.86,1.98,1.79,4.88.17,4.89-2.37.08-.09.15-.2.21-.3.09-.15.17-.29.25-.44,2.11-.19,3.51-2.22,3.93-4.15,1.08-.42,1.54-1.19,1.68-2.1.36-.69.6-1.49.82-2.2.83-2.75,1.67-5.5,2.53-8.24,3.14-1.74,4.26-9.25,5.17-12.58,1.7-2.55,2.2-5.7,2.89-8.64,1.35-3.7,2.12-7.55,2.66-11.44,1.75.47,3.54.81,5.35,1.05,4.01,1.43,8.27,2.07,12.51,2.32.14,0,.28,0,.42,0-.69,3.21.5,8.62.8,11.5.39,3.02,2.1,13.15,4.42,14.76.24,1.8.58,3.59,1.07,5.34.59,1.12,1.08,2.28,1.69,3.4.31,1.9.67,3.97,2.32,5.18,1.34.94,3.35.37,3.99-1.14.42-.85,1.13-1.51,1.67-2.28,1.18-1.57,1.96-3.33,2.61-5.15.14,0,.29-.01.43-.04,1.51-.31,2.32-1.79,3.25-2.89,3.5-4.6,5.98-9.94,7.5-15.5,2.38-5.16,4.65-10.44,5.93-16.02.58-2.25.99-4.54,1.36-6.83,3.98-1.57,7.83-3.77,11.37-6.01,4.53-2.64,9.23-5.02,13.69-7.77,3.79-2.77,7.57-5.6,11.1-8.69.9-.43,1.78-1.08,2.53-1.62,3.81-2.63,7.67-5.2,11.17-8.24,1.09.13,1.94-.58,2.69-1.26,1.42-1.27,2.84-2.54,4.27-3.8,4.7-3.99,9.11-8.32,12.66-13.37,5.32-2.54,8.6-7.89,12.61-12.03,1.63-1.8,3.29-3.54,4.91-5.34.78-.76,1.51-1.78,1.61-2.85.04-.07.09-.14.14-.22.67-.4,1.1-1.1,1.55-1.72,2.48-2.76,4.61-5.79,6.74-8.82,2.56-3.24,5.07-6.52,7.52-9.85,3.57-5.01,6.83-10.24,10.19-15.37,1.32-1.8,2.14-4.06,3.94-5.43,3.15-2.73,5.63-6.17,7.61-9.82.87-1.95,3.7-6.38,3.27-8.27,0-.01,0-.03-.01-.04.28-.5.55-1,.86-1.48,1.72-3.05,3.5-6.13,4.64-9.45,1.49-2.53,3.1-5,4.56-7.55,2.4-4.35,5.19-8.48,7.04-13.12,1.01-2.38,2.55-4.47,3.7-6.77.17-.38.33-.75.5-1.13.66-.27,1.23-.78,1.51-1.51.54-1.19.94-2.49,1.52-3.8,1.52-3.43,3.23-6.79,4.47-10.34.77-1.78,1.66-3.5,2.35-5.31,1.1-2.45,2.4-4.81,3.3-7.35.98-2.39,2.29-4.67,2.9-7.19.33-2.2.67-4.38,1.28-6.52.66-4.04,1.29-8.31.46-12.36ZM170.09,464.99c.11-.05.23-.1.34-.15-.11.07-.23.15-.34.22,0-.02,0-.04,0-.06ZM171.74,345.19c-.03.06-.06.12-.09.18-.18-.15-.35-.29-.5-.43.2.08.4.17.6.25ZM193.76,148.06c-.03-.08-.07-.16-.1-.24.1.12.2.25.3.37-.06-.05-.13-.09-.19-.14Z"/>
          <g>
            <path class="cls-8" d="M215.63,276.43c-.87-.37-1.32-1.21-1.96-1.83-1.28-.9-.79-2.63.04-3.67.53-1.27,1.78-1.96,2.89-2.64,1.95-1.26,4.22-1.86,6.33-2.79.62-.3,1.24-.61,1.86-.91.37-.53.79-1.03,1.23-1.51,1.17-1.26,2.52-2.31,3.87-3.37.29-.75.62-1.49.97-2.22.26-.47.36-.81.78-1.1.37-1.38.18-2.86.65-4.23.47-1.75,1.93-3.89,3.81-4.24,2.07-.4,3.75.86,4.37,2.8.49,1.13,1.34,2.15,1.38,3.43-.06,3.27-.85,6.55-2.16,9.55-.91,1.57-2.01,3.05-3.23,4.4-.72.72-1.44,1.65-2.47,1.89-1.27,1.32-2.9,2.2-4.54,2.97-1.41,1.05-2.98,1.82-4.6,2.49-1.21.61-2.55,1.1-3.9.83-1.72.46-3.63,1.12-5.3.15Z"/>
            <path class="cls-8" d="M304.22,245.01c-.96-.04-1.89-.36-2.84-.51-2.14-.28-4.74.07-6.44-1.52-1.1-.33-5.12-1.48-4.54-2.89-.08-.06-.15-.13-.22-.21-.52-.06-.79-.53-.93-.98-.49-.52-.61-1.31-.82-1.98-.26-.47-.4-1.01-.22-1.55.1-.45.36-.82.57-1.22.27-.58.46-1.3,1.02-1.67.89-.52,1.72.23,2.57.4,1.1.37,2.06,1.13,2.76,2.05.48.23.95.48,1.41.75.59.33,1.16.7,1.73,1.05.67.1,1.34.2,2.01.22,1.74-.15,3.48-.23,5.22-.3,1.76-.22,3.44-.84,5.15-1.28,1.32-.16,2.73-.46,4.02-.05,1.53.59,1.72,2.53,1.37,3.93-1.23,3.62-5.67,4.57-8.96,5.26-.94.25-1.89.56-2.88.49Z"/>
          </g>
          <g>
            <path class="cls-12" d="M91.69,476.34c-2.66-.74-3.99-3.44-5.73-5.35-1.5-1.95-4.14-4.13-4.2-6.71-1.21-1.3-1.94-3.31-.48-4.7-.12-.46-.45-2.73.48-2.29-.56.26.82,1.25,1.06,1.54,2.38-.22,3.53,2.45,5.06,3.83,1.7,2.07,3.92,3.68,5.63,5.72.94-1.38,3.08-1.76,4.07-.22,1.11,1.83-.65,3.84-1.61,5.33-.81,1.63-2.29,3.23-4.28,2.84Z"/>
            <path class="cls-12" d="M94.83,462.41c-3.02-1.1-6-3.66-6.67-6.92-.14-.87-.25-2,.34-2.72.63.97,1.7,1.59,2.49,2.42.73.7,1.33,1.46,1.84,2.33.94,1.51,1.43,3.24,1.99,4.89Z"/>
            <path class="cls-12" d="M94.11,462.44c-2.01-1.22-3.29-3.42-4.02-5.61-.52-.8-1.06-1.6-.97-2.61.07-1.69,1.86-2.92,3.48-2.43.82-.3,1.75-.1,2.45.4.68.14,1.07.8,1.51,1.29.68.61,1.41,1.4,1.18,2.4.19.71.77,1.27.86,2.01.15.88-.1,1.8-.74,2.43-.03,1.82-2.14,3.01-3.74,2.13Z"/>
            <path class="cls-12" d="M98.95,462.82c-.41-.31-.68-.73-.81-1.21-.49-1.27-1.19-2.43-1.91-3.58-.7-1.11-1.83-2.11-1.28-3.56.42-1.1,1.26-1.61,2.15-1.65-.06.11-.09.23-.09.36v.02c-.04.23.01.48.16.67.12.15.27.28.41.41.13.14.27.27.42.37.08.05.16.08.24.1.03.03.06.05.09.08.21.19.42.38.62.58.27.27.53.53.79.8.12.13.24.25.36.38,0,0,0,0,0,0,.07.14.14.28.21.42.1.21.21.43.32.64.06.12.13.25.19.38,0,0,0,.01,0,.02.02.06.06.12.09.18.06.11.11.23.16.34-.02-.04-.03-.07-.05-.11.07.15.13.3.19.45.06.16.12.33.21.48.04.07.09.13.13.19,0,.09,0,.17.01.26.02.4.22.72.59.88.03.01.07.03.1.04.05.02.09.03.14.04-.05,1.28-.65,2.38-2.22,2.45-.27.6-.77,1.05-1.25,1.48.08-.63.2-1.28,0-1.91Z"/>
            <path class="cls-12" d="M82.92,453.74s.01-.02.02-.03h-.04s.01.02.02.03ZM94.16,474.59c-1.23-.4-1.98-1.72-1.7-2.99-1.43.25-2.85-.81-3.14-2.21-.7.02-1.41-.25-1.95-.69-.41-.33-.66-.77-.8-1.24-.12-.02-.25-.05-.37-.09-.51-.17-.95-.49-1.27-.89-1.61,1.49-4.35.48-4.66-1.67-2.18-1.84-4.15-3.95-5.9-6.2-1.1-1.25-2.11-2.59-2.88-4.07-1.73-1.28-3.1-3-4.53-4.6-1.27-1.51-2.34-3.16-3.32-4.87-.43-.68-.69-1.51-1.27-2.08-1.32-.92-2.48-.92-2.77-2.87-.15-.64-.21-1.28-.17-1.89.25,0,.49-.12.68-.32.02-.02.03-.03.04-.05.33,0,.62-.18.82-.43.29-.36.47-.79.66-1.2v.02s0-.01,0-.02c0,0,0,0,0,0,0,0,0,0,0-.01,0,0,0-.01,0-.02,0,0,0,.01,0,.02,0,0,0,0,0,0,0-.02.01-.03.02-.05,0,0,0,.02-.01.02.13-.28.26-.56.39-.84.02-.05.05-.11.07-.16.26.13.57.14.83-.01,1.01-.61,2.02-1.24,3.09-1.75.17-.07.33-.13.5-.18.18-.05.36-.1.54-.13.17-.03.34-.04.52-.05.17,0,.34,0,.51.02.18.02.37.05.55.09.19.05.38.1.57.17.19.07.37.16.55.25.33.18.66.39.97.6.36.25.7.5,1.04.77.21.18.42.37.63.56.03.03.06.05.09.08.13.66.21,1.33.35,1.98.19.86.38,1.72.7,2.55.27.71.67,1.37,1.16,1.95,0,0-.01-.01-.02-.02.02.02.03.04.05.06,0,0,0,0,.01.01.25.28.51.55.79.8.58.53,1.23,1.01,1.92,1.39.82.44,1.74.67,2.65.78.77.09,1.52.07,2.27-.08.63-.13,1.26-.29,1.89-.43.64-.14,1.29-.26,1.93-.39.66-.13,1.31-.32,1.98-.42,0,0,0,0,.01,0,.28-.03.55-.05.84-.06.24.43.67.67,1.15.82.25.08.5.15.76.21.1.02.2.04.3.06.17.22.35.44.52.66.21.27.41.54.61.81.15.22.3.43.44.65.09.15.18.29.27.44.34.85.68,1.7,1.08,2.52.16.32.32.64.49.95.03.12.08.24.15.34.08.13.17.26.26.38.04.05.08.11.12.16,0,.01.01.02.02.03.13.19.26.37.45.51.07.05.15.09.23.11.14,1.46.23,2.92.63,4.34,1.62-.19,3.07,1.3,2.93,2.91.38.18.73.44,1,.77.05.06.09.12.14.18,1.57.52,2.23,2.36,1.81,3.89-.24,1.26-.76,2.49-1.26,3.67-.41,1.05-1.44,1.85-2.58,1.87-.6,1.2-.88,2.4-1.49,3.58-.42.72-1.28,1.12-2.13,1.12-.27,0-.54-.04-.8-.13Z"/>
            <path class="cls-12" d="M71.8,434.96s0,0,0,0c.01,0,.02.02.03.03-.01,0-.02-.02-.03-.03Z"/>
            <path class="cls-12" d="M74.76,442.12s0,0-.01-.01c-.01-.01-.02-.02-.03-.04.02.02.04.04.06.07,0,0,0-.01-.01-.02Z"/>
            <path class="cls-12" d="M188.2,152.52c-4.1-4.29-7.61-9.12-11.06-13.94-.6-1.05-1.7-1.66-2.17-2.83-1.13-2.46-2.4-4.88-3.3-7.44-.56-1.38-.61-3.18.75-4.11,1.1-.82,2.71-.59,3.63.41.82,1.01,1.19,2.34,1.77,3.49.73,1.63,1.61,3.53,2.22,4.9.68,1.5,1.78,2.78,2.7,4.16.81.04,1.57.49,2.02,1.18.64.69,1.26,1.4,1.83,2.1,2.1,2.61,4.19,5.26,6,8.09,2.53,3.39-1.32,7.13-4.38,4Z"/>
            <path class="cls-12" d="M178.61,135.84c-.07-.36-.08-.72-.04-1.09-.87-.85-1.11-2.31-.42-3.36.85-1.19,1.83-2.29,2.74-3.43.1-.1.21-.21.31-.32,0,0,.01,0,.02,0,.12,0,.24-.02.35-.07.25-.11.42-.32.57-.54.12-.18.24-.35.35-.53.22-.34.42-.7.63-1.05.02-.03.03-.06.05-.09.16-.1.27-.25.37-.4.58-.49,1.23-.82,2.05-.84,1.62-.18,3.2,1.12,3.12,2.79-.06,1.24-.91,2.22-1.67,3.13-.62.7-1.08,1.52-1.6,2.29-1.44,1.84-1.6,5.46-4.53,5.54-1.15-.03-2.1-.91-2.31-2.02Z"/>
            <path class="cls-12" d="M186.85,125.82c-1.43-3.55-1.27-7.89.89-11.1.5-.77,2.52-3.35,3.42-2.14-.75-.03-.34,2.81-.53,3.45-.07.85-.2,1.69-.42,2.52-.79,2.54-2.12,4.97-3.36,7.28Z"/>
            <path class="cls-12" d="M184.91,131.3c-.23-.2-.42-.42-.56-.67-1.91.65-3.75-1.2-3.5-3.07.12.05.25.08.38.08.12,0,.24-.02.35-.07.25-.11.42-.32.57-.54.12-.18.24-.35.35-.53.22-.34.42-.7.63-1.05.02-.03.03-.06.05-.09.22-.13.34-.35.46-.56s.23-.43.34-.65c.17-.36.41-.77.4-1.18.02-.02.03-.04.05-.06.07-.09.14-.18.19-.28.09-.11.16-.25.2-.39.05-.21.03-.4-.04-.6-.08-.21-.25-.36-.44-.46.95-1.8,1.73-3.73,3.06-5.3.43-.44,1.7-2.2,2.25-1.25-.71-.34-.52,2.61-.6,3.09,2.2.63,2.25,2.96,1.9,4.83-.27,1.85-.66,3.7-1.42,5.43-.52.97-.63,2.19-1.38,3.03-.45.54-1.13.83-1.81.83-.52,0-1.03-.17-1.44-.52Z"/>
            <path class="cls-12" d="M184.74,122.4s-.01.02-.02.04c0,0,0,0,0,0,0-.01.01-.03.02-.04Z"/>
            <path class="cls-12" d="M194.55,155.89c-1.12-.52-5.69-3.79-5.19-5.09-1.98-2.6-3.49-5.56-4.56-8.63-1.35.84-1.94-1.05-2.25-2.03-.4-1.43-1.84-4.74-.63-5.91-.19-.92.52-2.01,1.51-1.46.11.1.27.07.41.11.07-.27.19-.51.43-.67.29-.2.62-.26.93-.16.03-.18.1-.35.23-.51.15-.17.35-.29.57-.33-.18-.83-.52-2.1.69-2.24.16-.91,1.3-1.16,1.85-.43.31.42.42.96.55,1.46,1.27-.52,1.47.85,1.68,1.75.39,1.55.93,3.06,1.66,4.48.78.3.88,1.27,1.18,1.95.22.93,1.06,2.05.36,2.91.47,1.21,1.02,2.4,1.69,3.52.37.44.36,1.13-.14,1.48.6.7,2.07,1.68,1.02,2.62.56.61,1.17,1.59.22,2.16.07.3-.02.63-.23.86.17.4.05.85-.28,1.13-.02.23-.12.42-.27.57.21.4.1.93-.26,1.21.26.7-.47,1.48-1.19,1.24Z"/>
            <path class="cls-12" d="M174.77,132.42c-.2-.08-.4-.17-.59-.27-1.01.66-1.69-.66-2.22-1.33-.68-1.02-2.12-2.05-2.01-3.4-.45-.89-1.16-2.64.33-2.91-.18-.81.67-1.5,1.42-1.15.03-.2.02-.61.28-.62.07.04.11.11.18.13.14.02-.1.06-.14.04.78,1.89,2.06,3.55,2.88,5.43.27.54.56,1.07.79,1.63.29.68-.4,1.46-1.11,1.27.03.24-.03.5-.18.69.12.16.27.32.38.47Z"/>
            <path class="cls-12" d="M180.17,131.04c-.92.01-1.87-.53-1.97-1.51-.07-.03-.14-.07-.21-.12-.02-.02-.04-.03-.06-.05-.76.21-1.2-.53-1.37-1.16-.33-1.01-1.04-1.96-.95-3.07-.34-.02-.62-.19-.87-.43-.1.74.05,1.39.26,2.08.2.8-.74,1.49-1.44,1.04-.43-.27-.54-.81-.63-1.27-.17-.58-.32-1.16-.42-1.76-.39.57-.67,1.49-1.49,1.49-.53,1.82-2.43,1.23-2.31-.54-.05-.06-.1-.12-.14-.2-.17-.34-.25-.73-.34-1.1-.3-.08-.57-.3-.68-.6-.03-.09-.05-.17-.06-.26-.78,0-1.21-.9-.84-1.55-.43-.42-.3-1.09-.05-1.57.45-.59,1.17-.9,1.7-1.4.88-.85,1.27-2.01,1.87-3.05,1.15-1.75,1.95-4.76,4.31-5.14,1.72-.03,3.15,1.16,4.25,2.37,1.72,2.19-.72,5.44-1.76,7.47.5.59.64,1.41.82,2.14,1.04.11,2.25.58,2.46,1.73.12.35.4.58.42.99.03.29-.05.59-.22.81-.05.28-.11.55-.17.82.4.26.8.51,1.2.78.25.17.41.43.45.71.6,1.28-.38,2.46-1.74,2.34Z"/>
            <path class="cls-12" d="M187.92,112.17s.04-.02.05-.02c.02,0,.05-.02.07-.02.02-.04.04-.08.06-.11,0-.08.03-.15.07-.21-.13.08-.19.24-.26.37ZM188.54,133.85c-.35-.29-.41-.75-.51-1.17-.4-1.42-.16-2.91.36-4.27-.1-3.15.87-6.21,1.71-9.21-.74-.32-.67-1.29-.64-1.98.03-.83.09-1.66.16-2.49-.03.02-.05.03-.08.04-.32.79-.67,1.56-1.08,2.31-.19.46-.66.8-1.16.68-.11.7.14,1.65-.6,2.06-.5.29-1.09,0-1.35-.46-.34-.33-.26-.87-.25-1.31.02-1.14.12-2.3.49-3.39.03-.91.08-1.84.38-2.7.37-1.49,1.73-2.42,3.21-2.61.67-.09,1.2.21,1.81.36.74-.51,1.65.15,2.24.63,2.04,1.89,1.57,5,1.34,7.5-.05.83-.1,1.66-.29,2.48-.28,1.01-.53,2.04-.88,3.03-.63,1.66-1.8,3.03-2.67,4.55-.38.59-.43,1.22-.39,1.9-.04.89-.08,1.78-.08,2.67-.02.54-.04,1.22-.6,1.51-.35.18-.78.15-1.08-.11Z"/>
            <path class="cls-12" d="M188.05,113.83c-.62-.02-.94-.67-.83-1.22.17-.78.87-1.47,1.68-1.51.21,0,.37.13.46.3-.13-.02-.27-.05-.36.07.55.76.1,2.35-.96,2.37Z"/>
            <path class="cls-12" d="M196.91,158.83c-.33-.05-.68-.3-.78-.63-.07-.25-.08-.47,0-.7-.54.09-1.12-.36-1.14-.9-.85-.66.1-2.17.37-2.98-1.41-.71.34-2.62.77-3.55.57-.75,1.62-3.12,2.69-2.82.47-.37,1.26-.26,1.53.31.53-.68,1.7-.51,1.89.38.1.42-.09.86-.17,1.28.63.4.45,1.3.52,1.93.06,1.05-.13,2.13-.64,3.05-.94,1.63-2.95,4.63-5.02,4.63Z"/>
            <path class="cls-12" d="M199.72,153.32c-.28-.53.05-1.09.22-1.61.19-.61.46-1.2.55-1.83-.24-.02-.48-.12-.64-.3-.06-.07-.11-.14-.15-.21-.14.05-.3.07-.46.04-.1-.02-.2-.05-.28-.09.06.65-.4,1.35-1.11,1.23-.16.21-.39.36-.67.39-.2.02-.4-.02-.58-.12-.34.12-.69.05-.95-.16-.56-.01-.94-.5-.94-1.03-.14-.72-.32-1.44-.48-2.16-.22-1.1-.49-2.18-.9-3.22-.15-.34-.22-.73-.09-1.09-.2-.32-.27-.69-.14-1.05-.09-.26-.15-.53-.11-.8.03-.19.11-.36.22-.5-.02-.1-.03-.2-.04-.3-.42-.02-.76-.33-.88-.74-.06-.23-.07-.46-.06-.7-.76-.41-.6-1.38-.6-2.11-1.08-.28-.61-1.52-.45-2.28-.77-.31-1.92-.7-1.92-1.69.03-.46.33-.82.77-.94,1.07-.11,2.09.55,3.08.89.88.36,1.94.13,2.78.65.84-1.45,2.72.46,3.08,1.45.43,1.48-.27,3.05-.28,4.56.25.67.87,1.2,1.32,1.76,2.09.15,3.51,1.92,3.48,3.96.18,1.26-.12,2.5-.61,3.64-.4,1.08-.62,2.21-.97,3.3-.19.59-.38,1.4-1.07,1.56-.42.1-.88-.1-1.09-.49Z"/>
          </g>
          <g>
            <path class="cls-10" d="M245.2,329.32c-3.41-.34-7.16-.48-9.87-2.87-1.55.02-2.51-1.39-3.42-2.44-2.89-3.28-4.19-7.55-4.99-11.77-1.09-2.68-2.18-5.6-1.77-8.53-.31-.91-.38-1.9-.21-2.87-.1-.8-.11-1.61-.07-2.41.15-2.13.72-4.22,1.67-6.13.39-2.14.99-4.26,2.12-6.14,1.85-3.22,5.03-5.3,7.18-8.24,1.8-1.9,3.98-3.55,6.43-4.51,3.67-1.17,7.53-1.79,11.37-2.02,3.82-.18,7.47,1.23,10.95,2.62,2.8,1.64,5.36,3.72,7.58,6.08,4.07,3.83,6.25,9.05,7.34,14.44.99,3.99.79,8.13.03,12.14-.6,4.36-1.78,8.81-4.59,12.3-1.05,1.31-2.42,2.41-4.01,2.97-1.8,1.67-3.89,3.1-6.1,4.17-2.9,1.06-5.99,1.52-8.99,2.26-1.09.98-2.68,1.07-4.05.69-2.18.43-4.41.54-6.62.26Z"/>
            <path class="cls-16" d="M295.33,258.92c-.46-.53-.69-1.23-.65-1.93.05-.72.39-1.41.94-1.88.56-.48,1.21-.65,1.93-.65s1.43.42,1.88.94c.46.53.69,1.23.64,1.93-.05.72-.39,1.41-.94,1.88-.55.48-1.21.64-1.93.64s-1.43-.42-1.88-.94Z"/>
            <path class="cls-10" d="M310.5,271.19c-.02-.64-.05-1.26-.03-1.85-.08-1.32-.45-2.56-.86-3.8-.62-1.93-1.14-3.95-2.39-5.58-.46-1.28-.96-2.77-2.33-3.32-.84-1.33-1.78-2.6-3.02-3.58-.56-1.23-1.75-2.36-3.23-2-1.3-.66-2.71-1.19-4.15-1.45-.81-.05-1.55.56-1.49,1.41.06.53.34.98.72,1.36-.21,3.32.99,8.03,2.04,10.7.83,2.01,1.98,3.87,3.17,5.69.51,1.68,1.04,3.35,1.69,4.98-1.07,2.01.35,4.23.61,6.28.05.76.26,1.46.2,2.23.21,1.13.38,2.43,1.44,3.1.45.31.96.45,1.48.45.11,0,.22,0,.33-.02.05-.11.12-.2.19-.29.06-.17.17-.32.28-.45.11-.13.22-.25.33-.37,0-.28.12-.56.35-.74.18-.14.37-.28.55-.42.25-.18.5-.36.79-.45.26-.24.53-.48.79-.72,0,0-.01.01-.02.02.07-.06.13-.12.2-.18,1.7-3.52,3.08-7.01,2.37-11.01Z"/>
          </g>
          <g>
            <path d="M188.1,254.46c1.31-.19,2.67-.32,3.89-.87,1.23-.6,2.37-1.49,3.16-2.61,1.48-2.8.49-5.46-2.69-6.17-1.07-.29-2.18-.5-3.22-.91-1.12-.43-1.79-1.6-3-1.85-.79-.26-1.55.17-2.28.42-.49.17-.99.32-1.46.54-1,.51-1.63,1.64-1.84,2.72-.03.85-.03,1.72.07,2.57.02.28.13.55.06.83,1.02,3.21,3.81,5.67,7.3,5.33ZM187.01,256.04c-3.14-.12-5.55-2.15-6.85-4.91-.89-1.74-1.08-3.74-.69-5.65.12-1,.49-1.93,1.16-2.69.33-.41.73-.77,1.2-1.02.62-.48,1.31-.9,2.07-1.08,1.48-.34,2.95-.31,4.2.67,2.03,2.14,5.55,1.37,7.54,3.61,1.88,1.97,1.66,5.25.15,7.38-.87,1.05-1.94,1.95-3.15,2.59-1.15.61-2.45.8-3.72,1-.64.1-1.28.17-1.92.12Z"/>
            <path d="M199.91,234.76c1.73-.12,3.79-1.79,2.46-3.55-.61-1.03-1.89-1.98-3.11-2-.88.14-1.79.44-2.49,1.04-.65.66-.84,1.74-.44,2.58.65,1.27,2.16,2.08,3.58,1.93ZM198.81,235.88c-2.26-.47-4.29-2.89-3.38-5.22.44-1.46,1.96-2.24,3.37-2.49,1.25-.66,3.57.96,4.21,2.04,2.32,3.05-.88,6.35-4.2,5.67Z"/>
            <path d="M184.88,223.44c1.04-.13,1.87-1.2,1.84-2.23-.07-.56-.65-.88-1.1-1.12-.52-.26-1.1-.29-1.66-.19-.7.41-1.22,1.18-1.41,1.97-.2,1.21,1.39,1.61,2.33,1.58ZM184.33,224.63c-3.56-.54-3.28-3.92-.73-5.63.34-.51,1.13-.36,1.65-.29.9.19,1.79.71,2.23,1.54.91,1.96-.92,4.77-3.15,4.38Z"/>
            <path d="M30.51,410.08c5.98-.94,4.82-5.8-.45-6.55-1.05-.07-2.21,0-3.12.53-.83.84-1.37,2.06-1.24,3.25.46,2.14,2.82,2.97,4.8,2.77ZM29.28,411.67c-3-.03-5.61-3.06-4.64-6.02.6-2.34,2.5-3.99,4.98-3.77,3.43-.07,7.56,3.41,5.74,7-1.27,1.96-3.78,3.01-6.08,2.79Z"/>
            <path d="M4.78,393.42c3.07,0,3.87-3.83,1.08-5.07-.85-.43-1.81-.08-2.71-.2-3.15,1.7-2.11,5.77,1.64,5.27ZM3.73,395.1c-3.4-.11-4.8-4.22-2.84-6.75.65-.9,1.7-1.75,2.87-1.6,1.09-.57,2.48-.1,3.4.61,3.6,2.88,1.25,8.4-3.43,7.74Z"/>
            <path d="M19.25,434.3c12.68-1.45,9.75-20.09-2.93-16.94-.81.23-1.55.66-2.24,1.14-.43.28-.89.81-1.44.53-7.22,6.41-2.89,15.98,6.61,15.27ZM17.81,436.16c-9.25-.33-13.38-9.87-7.38-16.87,5.32-6.41,16.16-4.9,18.16,3.62,1.65,6.98-3.49,13.66-10.78,13.25Z"/>
          </g>
          <path class="cls-15" d="M49.42,227.68c-9.5,94.66.35,168.45,59.56,218.57l-15.11,33.52s-19.67-17.52-29.27-31.04c0,0-41.37-65.75-32.61-135.93,0,0,4.72-66.14,17.43-85.12Z"/>
          <path class="cls-15" d="M127.2,458.77s35.81,31.09,104.56-.76c0,0-38.29,43.85-103.52,39.7,0,0,2.96-28.38-1.04-38.95Z"/>
          <path class="cls-13" d="M162.63,115.96l-2.1-28.58s-51.55,50.48-31.38,136.84c0,0-12.52-37.93,33.48-108.26Z"/>
          <path class="cls-14" d="M282.21,298.51s14.19,57.57-32.79,51.5c-46.97-6.07-21.94-62.71-21.94-62.71,0,0-12.23,29.88,11.93,41.21,24.16,11.33,38.75-15.57,38.75-15.57l4.05-14.42Z"/>
          <path class="cls-12" d="M144.38,498.45c-.01-.95,38.65-5.93,38.65-5.93,0,0-9.52,32.57-25.63,47.38,0,0-12.73-17.37-13.02-41.45Z"/>
          <path class="cls-13" d="M275.34,391.23c-1.95-1.29,2.06,4.21-9.19,14.46-2.71,2.47-8.49-.11-8.2-3.05.25-1.78.29-9.3.54-11.08.53-3.73-1.14-12.59-4.6-9.02-5.14,5.31-5.31,13.65-5.84,21.03-.29,4.05-1.77,8.97.28,13.02.5,1.92,1.54,3.57,3.51,4.6,3.84,2.01,14.91-7.92,16-8.97,5.12-4.93,6.35-6.14,8.69-12.84,1.11-3.18,1.55-7.28-1.2-8.16Z"/>
          <path class="cls-13" d="M107.78,257.54s-16.58,6.44-22.52.91c-5.94-5.53-8.48-8.47-5.58-14.24,2.9-5.77,16.35-1.47,28.1-3.72,13.58-2.6,16.91-26.66,17.29-41.72,7.76,25.17,4.49,37.93-17.29,58.76Z"/>
          <path class="cls-5" d="M228.79,282.79c-3.2,32.93,36.07,43.32,50.77,23.88,0,0-3.2,22.7-30.13,24.55,0,0-31.04-2.13-22.88-38.93"/>
          <path class="cls-6" d="M300.31,276.45s8.79,1.13,7-14.33c-.99-8.53,3.22,3.01,3.22,3.01l-.83,14.44-5.39,6.25-4.01-9.37Z"/>
          <path class="cls-7" d="M212.85,272.8s24.16-4.56,28.04-18.21c3.88-13.65,0,0,0,0,0,0,6.21,11.23-16.06,20.86-22.27,9.63,0,0,0,0,0,0-12.63,6.3-11.98-2.64"/>
          <path class="cls-7" d="M294.94,242.98s12.64.31,16.16-6.76,0,0,0,0c0,0,5.67-3.66,5.56,2.67s-22.58,8.7-21.73,4.1,0,0,0,0"/>
          <path class="cls-18" d="M270.31,236.84c-9.01,2.33-28.74,10.24-18.17,23.27,3.63,4.47,9.24,7.3,14.58,8.95,7.77,2.39,10.72,8.52,14.63,14.12,3.71,5.33,14.17,4.15,13.51-3.66-.93-10.95-9.35-46.6-24.56-42.68Z"/>
          <path class="cls-18" d="M336.32,253.5c-1.73-1.73-6.08-1.71-7.76.42-4.05,5.15-5.88,10.37-11.46,13.8-5.47,3.36-1.57,5.57,3.93,2.19,6.28-3.86,12.21-6.13,16.77-11.92,1.67-2.12.58-2.42-1.48-4.49Z"/>
          <path class="cls-18" d="M120.4,434.91c-2.03-7.1-7.27-4.54-5.23,2.6,5.14,17.96,0,11.24.43,29.91.17,7.38,12.94,22.47,12.77,15.06-.45-19.65-2.57-28.66-7.98-47.56Z"/>
          <path class="cls-18" d="M139.66,231.49s7.41,18.8-21.35,61.24c-2.2,3.24-6.9,3.42-9.39.39-6.25-7.6-15.54-24.13-3.2-25.49,22.69-2.5,32.36-53.1,33.94-36.14Z"/>
          <ellipse class="cls-17" cx="236.02" cy="253.21" rx="3.71" ry="2.68" transform="translate(-84.85 383.07) rotate(-69.05)"/>
          <ellipse class="cls-17" cx="292.98" cy="235.97" rx="1.98" ry="3.71" transform="translate(-76.75 305.4) rotate(-49.48)"/>
          <path class="cls-11" d="M221.48,430.65c-2.47-.66-4.24-.41-7.46,2.47-1.95,1.75-2.09,3.21-1.81,4.5.6,2.77,2.33,1.29,4.69.63.02,0,4.06-.64,4.28-.63-.02,0,2.92-.78,3.54-3.51.56-2.47-.55-2.74-3.25-3.47Z"/>
          <path class="cls-11" d="M221.19,441.46c-2.9.78-1.62,1.57-3.07,4.25-.76,1.41-.89,1-1.92,2.69-.43.71-1.66,3.6-1.5,4.41.02.07,1.66,5.2,8.03,1.5,1.85-1.08.72-2.99.29-6.77.24-.08,2.36-2.34,2.48-2.42,2.47-1.62,1.91-5.33-4.32-3.66Z"/>
          <path class="cls-11" d="M238.88,433.96c-.07-.25,1.65-2.16.55-4.04-1.04-1.77-1.43-2.17-3.24-.8-3.9,2.94-4.93,5.37-4.38,7.45.24.9,1.14,1.03,1.99,2.22,1.21,1.69.71,4.35,2.02,3.99,2.12-.58,3.95-2.83,3.27-4.98-.14-.45-.1-3.37-.22-3.82Z"/>
          <path class="cls-11" d="M67.59,403.5c.25.33-1.95-4.79-2.25-5.01-1.43-4.63-5.68-7.27-5.91-1.48-.11,2.6-.48,8.34.57,10.69.91,2.04.51,3.29,1.07,5.87,1.09,4.99-.09,4.33,5.22,3.05,11.26-2.71,0-14.76,1.29-13.11Z"/>
          <path class="cls-11" d="M84.52,411.1c-.15-.24-.31-.45-.49-.64.05-.11.11-.22.18-.35.99-1.78.37-4.21-1.27-5.25-1.67-1.06-2.71-1.33-3.69.45-1.53,2.77-1.12,6.36-2.37,9.93-.67,1.92,1.44,3.9,3.55,3.84,3.56-.1,6.24-4.53,4.11-7.97Z"/>
          <path class="cls-11" d="M99.81,401.59c-1.62-2.77-1.88-3.79-5.02-2.65-1.24.45-.24-.37-.92.8-.63,1.07-1.03,1.56-.64,2.77.32,1,2.04,2.11,2.89,2.79.04.81-.08,2.21.32,2.84.69,1.07.25,1.44,1.52,1.73,1.23.28,1.85-.18,2.9-.96.95-.71.8-.67,1.45-1.69.39-.6.44-1.23.64-1.92.49-1.69-2.24-2.19-3.13-3.71Z"/>
          <path class="cls-11" d="M74.85,377c-.87-2.68-1.11-2.16-3.8-1.37-2.98.88-2.62,4.73-2.46,7.47s1.33.26,3.64-1.23c1.66-1.07,3.31-.07,3.11-1.98q.12-1.03-.48-2.89Z"/>
          <path class="cls-11" d="M66.6,227.68c-.1-.16.64-2.77.54-2.91.79-2.31.34-2.7-.85-3.98-1.49-1.61-1.8.85-2.75,3.16-1.09,2.65-2.41,5.31-1.93,8.62.11.79,1.04-.07,1.29.59-2.73,3.21-1.55,7.32,1.02,5.46,1.77-1.28,3.99-3.03,4.02-6.91.01-1.95-.55-2.73-1.34-4.03Z"/>
          <path class="cls-11" d="M80.66,216.56c-.92-2.56-1.87-3.34-1.58-6.05.29-2.69.21-4.57-.55-4.66-1.01-.12-1.84,1.05-2.13,3.75-.35,3.31-1.76,6.83-.64,9.96.91,2.54,1.05,1.85,3.75.96.78-.25,2.07-1.41,1.15-3.96Z"/>
          <path class="cls-11" d="M76.5,186.76c.35-2.56-2.47-.16-2.73.6-.8,2.39-1.98,3.96-2.95,6.75-.86,2.48-2.21,4.55.14,5.59.82.37,2.17-.34,4.16-2.37,1.77-1.8,1.92-3.55,1.92-5.9,0-2.61-.81-2.75-.54-4.67Z"/>
          <path class="cls-11" d="M179.42,100.74c-.32-1.23-1.51-3.36-2.46-4.12-.3-1.91.52-4.4-1.55-4.3-1.66.08-2.83,1.99-3.86,3.32-1.02,1.32-1.86,1.78-1.35,3.43.43,1.38,2.19,1.12,3.5,1.78.8,1.96.31,3.76,2.29,3.32,2.52-.55,4.06-1.06,3.44-3.43Z"/>
          <path class="cls-11" d="M101.49,512.71s.72-4.24,3.17-2.98,2.52,2.61,2.52,2.61c0,0-1.7,2.92-2.84,3.6s-2.4,0-2.4,0l-.44-1.38v-1.85Z"/>
          <path class="cls-11" d="M113.53,510.43s-3.4,1.48-4.06,4.36-1.03,5.02,0,5.09,4.06-.44,4.06-.44l.89-2.27s.81-6.51-.89-6.74Z"/>
          <path class="cls-11" d="M103.52,523.6s-2.03,11.87-2.03,11.87c0,0,3.69,1.03,4.8,0s1.82-3.15,1.82-3.15c0,0,.82-3.49.16-4.82s-3.46-7.63-4.76-3.89Z"/>
          <path class="cls-11" d="M234.7,353.21l-2.88,3.79s.36,2,3.58,1.85c3.22-.15,2.77.81,2.77.81l1.69-1.47-.44-1.81s-.96-6.65-4.73-3.17Z"/>
          <path class="cls-11" d="M219.71,349.79s.83-3.95,2.79-2.33,2.66,4.73,2.66,4.73c0,0,1.11,3.77,2.33,3.73s0,4.85,0,4.85c0,0-4.02,1.75-5.16,1.46s-2.76-2.88-2.76-2.88l-.85-1.18s-1.96-2.81-1.62-4.5,1.44-3.94,2.62-3.88Z"/>
          <path class="cls-11" d="M212.72,367c-.06.27-2.68,3.2.5,6.49l-1.61,4.18,2.25,2.42,1.07,1.13,3.92-1.33,1.98-1.18h2.73l1.18-1.32-.74-2.98s-1.27-5.44-3.99-5.89-6.46-5.24-7.29-1.51Z"/>
          <path class="cls-11" d="M230.49,369.99s4.85-.82,6.23-.37.93.93,1.74,2.27,2.81,3.8.3,5.49c-2.51,1.69-2.92,0-2.92,0,0,0-3.45,1.05-4.32-1.1,0,0-1.84-5.54-1.03-6.29Z"/>
          <path class="cls-11" d="M203.19,300.42s-3.8,6.77-2.05,9.48c0,0,4.41-2.36,4.53-4.32s-.88-5.13-2.49-5.16Z"/>
          <path class="cls-11" d="M210.99,290.97s-4.01,6.07-2.17,6.72,5.33-.58,5.12-1.9-.7-4.24-2.94-4.82Z"/>
          <path class="cls-11" d="M186.92,100.95l-1.02-1.23,1.3-3.42s3-3.01,5.16.05.66,3.75.66,3.75l-1.38,1.34-2.02-.91-2.71.43Z"/>
          <path class="cls-11" d="M190.53,45.69l-.33-2.34-6.71,4.22s-1.12,3.44.69,4.23,4.58-1.33,4.58-1.33c0,0,2.1-2.43,1.77-4.77Z"/>
          <path class="cls-11" d="M196.06,48.58s.77-2.53,3.07-2,3.39,3.55,1.93,8.61-5.64-3.54-5.64-3.54l.63-3.06Z"/>
          <path class="cls-11" d="M206.8,26.36s-8.56,7.03-9.6,12.5l4.18.72,2.65,1.61s3.13-1.26,2.77-3.62,2.69-6.19,2.69-6.19c0,0,.56-5.22-2.69-5.02Z"/>
          <g>
            <path class="cls-3" d="M254.81,328.34c12.29-.6,21.03-9.78,23.52-21.45.87-6.38,1.13-13.18-1.67-19.12-3.64-8.94-12.69-14.66-22.12-15.5-11.36-.99-22.21,7.07-26.57,17.23-4.24,10.24-2.74,22.98,4.05,31.79,5.4,6.54,14.87,7.7,22.86,7.03,0,0-.05,0-.05,0,0,0-.01,0-.01,0ZM246.77,332.05c-12.43-1.31-19.32-8.2-22.34-20.12-2.78-9.78-2.44-21.05,4.35-29.14,5.59-7.1,14.48-12.62,23.66-12.88,13.09.05,24.96,9.01,28.06,21.82,2.8,11.64,0,24.85-8.73,33.33-6.6,6.3-16.2,7.92-25,6.99Z"/>
            <path class="cls-4" d="M303.08,286.25c-1.14-.6-1.87-3.95-2.32-5.08-2.23-7.09-4.83-14.16-6.9-21.29.01.04.02.08.03.12,0,0,0,0,0,0-1.48-4.99-3.15-9.87-4.64-14.73-1.14-3.43-2.01-7.23-4.7-9.82-10.2-7.73-23.24.47-32.29,6.39-2.68,1.86-5.43,3.88-7.77,6.1-1.1.97-2.11,2.12-3.17,3.16,0-.04-.02-.09-.03-.13,0-.1-.02-.19-.06-.28-.04-.11-.09-.23-.14-.33-.08-.2-.16-.4-.24-.6-.08-.2-.16-.4-.23-.59.23-.25.44-.51.65-.78,1.46-1.76,2.94-3.51,4.63-5.06,7.49-6.9,16.32-13.44,26.74-14.52,5.22-.72,11.29.65,14.73,4.87,1.57,1.87,2.49,4.17,3.29,6.46,1.49,4.55,2.71,9.15,4.25,13.68,2.48,7.76,4.66,15.18,7.18,22.86.72,2.12,1.14,4.34,1.98,6.42.29.75.78,1.55.44,2.37-.18.48-.61.86-1.09.86-.11,0-.22-.02-.33-.06Z"/>
            <path class="cls-4" d="M241.18,250.58h0s.03.06.04.09c-.01-.03-.03-.06-.04-.09Z"/>
            <path class="cls-4" d="M293.31,293.73c-.84-.29-.42-1.48.23-1.77,1.24-.77,2.57-1.46,3.75-2.32,5.52-4.02,10.43-8.98,14.01-14.78,2.22-3.52,4.5-7.01,6.92-10.4,4.18-5.57,9.7-15.47,18-11.79,3.09,1.23,4.84,4.11,6.53,6.79,1.11,1.91-1.08,4.52-2.96.51.04.06.07.12.11.18-5.8-9.44-12.6-4-17.39,2.93-4.58,5.73-8.54,11.91-12.87,17.82-4.44,5.27-9.88,10.26-16.33,12.82Z"/>
            <path class="cls-2" d="M261.3,429.31c6.74-9.49,14.62-18.13,21.92-27.17,5.95-7.52,11.03-15.69,16.18-23.76,5.24-7.91,9.93-16.15,14.04-24.69,6.88-12.94,14.97-25.31,21.4-38.48,2.53-5.55,4.49-11.33,6.96-16.9,4.03-9.13,8.02-18.84,7.4-29.02-.4-2.53-.31-9.52-3.83-9.12-5.02,2.31-8.56,6.94-12.16,10.99-9.42,10.55-14.79,23.79-22.1,35.74-6.22,10.28-11.31,21.2-17.3,31.62-7.46,13.67-15.37,27.17-21.45,41.53-1.87,4.22-3.81,8.41-5.55,12.68-.59,1.42-1.15,2.86-1.88,4.22-.02.35-.19.71-.53.83-.84.25-1.24-1-.73-1.55.64-1.25,1.09-2.45,1.58-3.74,2.59-6.69,5.34-13.32,7.97-19.99,9.18-20.79,21.26-40.1,31.57-60.32,3.57-6.35,7.6-12.28,10.84-18.8,5.04-9.35,10.36-18.63,17.75-26.36,2.53-2.83,9.54-10.73,13.35-9.52,3.41,1.27,3.73,5.37,4.29,8.47,1.95,11.91-2.46,23.64-7.2,34.37-2.39,5.5-4.38,11.17-6.91,16.62-5.45,10.85-12.02,21.13-17.86,31.78-3.13,5.37-5.76,11-8.7,16.46-3.56,6.39-7.55,12.52-11.48,18.69-7.58,12-16.28,23.24-25.63,33.9-3.75,4.08-8.05,7.64-11.96,11.53Z"/>
            <path class="cls-4" d="M309.71,279.57c-.31-.11-.49-.38-.62-.67-.18-.43-.07-.88.01-1.31,0,.05-.02.09-.02.14,1.2-5.24.06-10.65-1.77-15.6-1.45-5.45-5.7-9.8-11.12-11.28-1.05-.27-2.15-.44-3.23-.43-1.07-.35-.61-2.07.44-2.09,3.53-.15,6.95,1.47,9.77,3.48,4.18,3.24,5.95,8.43,7.37,13.32.67,2.7,1.12,5.12,1.13,7.84-.14,1.24-.07,7.3-1.95,6.6Z"/>
            <path class="cls-3" d="M311.29,276.54c-.91-.21-1.12-1.27-.97-2.07-.02-1.76-.06-3.46-.33-5.16-1.01-5.24-3.47-10.35-7.18-14.2-2.19-2.02-4.91-3.45-7.67-4.55-.97-.27-1.95-.97-2.98-.57-.4.09-.75-.25-.83-.62-.19-.77.47-1.27,1.13-1.45,3.57-.66,9.01,1.88,11.71,4.21,3.87,3.73,6.35,8.82,7.77,13.95.58,2.32.73,4.72.77,7.09,0,1.16.26,3.43-1.44,3.36Z"/>
            <path class="cls-4" d="M102.4,550.83c-9.84-7.5-12.29-27.44-14.71-39.12-1.7-7.59-.99-15.36-1.33-23.07-.02-3.14,2.71-5.38,4.16-7.96,1.93-2.81,3.89-5.6,5.69-8.5,2.2-3.66,3.75-7.65,5.79-11.39,1.39-2.53,2.6-5.15,3.6-7.86,1.1-2.68,1.94-5.46,2.51-8.3.24-.82.21-2,1.14-2.33,1.29-.02.91,1.6.78,2.43-.36,3.27-1.12,6.45-2.27,9.53-1.3,4.01-3.24,7.75-5.05,11.54-3.09,6.97-7.22,13.38-11.48,19.67-.6.95-1.41,1.81-1.86,2.85.07,2.51.27,4.92.29,7.42-.15,13.08,3.24,25.81,6.55,38.33,1.32,4.26,3.26,8.38,5.99,11.93,1.36,1.75,2.01,1.98,3.44.03,3.04-3.3,5.05-7.31,7.13-11.24,3.51-6.02,5.78-12.62,8.46-19.03,4.88-12.08,7.01-25.49,6.66-38.45-.36-5.87-1.6-11.64-2.48-17.44-1.28-8.6-2.9-17.24-6.09-25.36-.85-1.82-1.52-3.74-1.31-5.78.85.65,1.58,1.5,2.12,2.42,1.52,3.07,2.6,6.35,3.54,9.64,2.45,8.27,3.51,16.83,4.89,25.32,1.97,10.68,1.55,21.66-.38,32.31-1.36,8.6-4.28,16.77-7.71,24.73-2.38,6.46-5.2,12.72-8.48,18.78-1.28,2.4-2.82,4.64-4.52,6.76-1.13,1.61-3.06,3.3-5.09,2.13Z"/>
            <path class="cls-2" d="M136.88,499.93c-2.94-.39-6-.77-8.64-2.21-1.18-.61-1.37-2.43-.49-3.37.76-.79,1.48-.47,2.29-.01.47.21.94.39,1.44.53,4.68,1.23,9.56,1.47,14.38,1.43,5.26,0,10.51-.43,15.68-1.46,14.87-2.7,28.89-8.78,41.72-16.64,7.08-4.34,13.3-9.89,19.97-14.8,4.16-3.17,8.59-5.85,12.54-9.27,5.12-4.34,9.78-9.18,14.51-13.94,4.86-4.82,9.55-9.81,14.17-14.85,3.2-3.4,6.34-6.86,9.26-10.5.65-.82,1.29-1.65,1.91-2.49.24-.33.47-.66.71-.98.2-.26.48-.71.86-.69.26.02.46.19.54.43.18.5-.09.98-.32,1.42-.25.47-.53.94-.79,1.38-.7,1.16-1.44,2.31-2.23,3.42-6.48,9.05-14,17.3-21.89,25.14-4.07,4.04-8.08,8.15-12.35,11.99-5.16,4.87-11.18,8.64-16.71,13.04-5.19,4.04-10.24,8.27-15.72,11.92-20.77,13.66-45.66,23.17-70.84,20.52Z"/>
            <path class="cls-4" d="M155.22,541.2c-3.32-5.17-5.5-11.12-7.47-16.93-1.21-4.08-1.92-8.6-2.66-12.69-.81-4.34-1.19-8.79-.7-13.19.02-.61.8-1.22,1.18-.49.26.64.09,1.38.16,2.06.12,6.49,1.58,12.72,2.97,19.01,1.68,6.85,4.65,13.4,7.92,19.56,1.98-1.94,3.42-4.36,5.24-6.46,2.61-3.07,5.35-6.05,7.37-9.56,5.43-8.86,8.5-18.85,11.3-28.78.52-1.31.25-2.9,1.04-4.07.96-1.07,2.4.09,2.3,1.31-.57,4.93-2.41,9.65-3.95,14.35-3.46,10.59-8.52,20.78-16.3,28.86-1.4,1.61-2.63,3.34-3.97,4.99-1.02,1.24-2.75,3.67-4.42,2.02Z"/>
            <path class="cls-2" d="M92.63,479.98c-28-22.71-48.01-55.14-55.87-90.32-9.58-36.35-8.26-74.57-2.88-111.5,7.01-55.64,31.09-108.51,68.37-150.38,12.33-14.41,25.11-28.45,39.35-41,5.17-4.35,9.72-9.52,15.5-13.07.56-.34,1.12-.7,1.72-.96.86-.47,1.45.98.76,1.52-.63.68-1.46,1.15-2.18,1.73-25.39,22.2-48.34,47.3-68.42,74.34-32.29,43.94-49.54,97.12-54,151.12-1.53,19.38-2.14,38.49-.17,57.8,1.98,14.23,4.96,27.91,8.93,41.65,6.95,22.38,19.39,42.94,34.83,60.48,4.93,5.38,10.5,10.14,15.97,14.96,1.75,1.2.31,5.23-1.89,3.64Z"/>
            <path class="cls-4" d="M156.02,328.08c-12.96-11.32-17.84-41.26-15.41-57.76,1.67-11.25,4.4-21.98,5.42-33.28,1.19-7.5,2.35-38.36-9.58-19.15-5.95,10.11-12.14,20.1-19.09,29.56-7.69,11.1-14.28,16.46-28.25,12.86-1.73-2.92,3.98-.88,5.22-.99,2.44.21,4.95.28,7.33-.38,8.73-2.89,12.95-12.16,17.89-19.23,4.66-7.42,9.14-14.96,13.51-22.55,11.39-20.24,17.84-3.46,16.52,11.04-.53,15.6-4.79,30.7-6.47,46.15-1.07,11.48,1.56,22.92,4.28,34.01,2.2,6.86,6.23,12.94,8.63,19.72,0,0,0,0,0,0Z"/>
            <path class="cls-3" d="M146.06,376.18c-1.05-.61-.13-2.2.41-2.9,1.44-1.29,3.01-2.45,4.41-3.81,5.92-6,10.66-13.08,15.47-19.97,3.66-5.26,6.31-11.01,9.44-16.56,4.58-7.72,9.07-15.48,13.62-23.21,3.58-5.7,6.71-11.72,10.89-17.02,3.53-4.95,7.66-9.42,11.3-14.28.36-.48,1.03-1.43,1.74-2.18.05.06.09.12.13.17.16.22.32.43.5.64.06.07.13.12.2.17.03.04.06.07.08.11.14.17.32.3.52.35.05.02.1.04.14.05-.71.91-1.31,1.91-1.93,2.88-4.64,6.86-9.91,13.29-14.35,20.29-6.28,10.69-13.02,21.11-19.22,31.84-2.46,4.04-4.4,8.35-6.72,12.46-3.45,6.17-7.56,11.94-11.8,17.58-2.07,2.83-10.35,13.5-14.24,13.5-.21,0-.41-.03-.6-.1Z"/>
            <path class="cls-2" d="M178.9,322.17c-9.58-2.76-14.07-13.36-18.34-21.49-3.53-7.5-6.87-15.05-10.09-22.65-2.97-6.85-4.85-14.08-6.18-21.39-.32-.8.19-2.7,1.24-1.63.39,1.14.62,2.35.98,3.51,2.42,9.29,6.49,17.96,10.62,26.59,3.61,7.64,6.92,15.44,11.26,22.7,3.14,4.9,11.23,14.19,17.72,9.13,1.36-.73.74,1.22.18,2.39-1.47,2.35-4.7,3.62-7.39,2.84Z"/>
            <path class="cls-4" d="M205.52,166.5c-23.38-13.49-45.88-38.27-44.97-66.84.04-.55,0-1.11.12-1.65.17-.94,1.36-1.16,1.51-.05.02,1.62.2,3.24.33,4.85,1.75,17.97,12.28,33.83,25.04,46.08,5.34,5.36,11.79,9.23,17.89,13.57,1.83-8.22,1.81-16.74,1.49-25.12-.16-10.46-.9-20.86-2.49-31.2-.47-3.85-.59-7.74-.78-11.61-.06-1.89-.17-4.13-2.51-4.39-1.37-.39-2.76-.57-4.16-.65-.28-.04-.57-.09-.85-.13-.22-.03-.43-.07-.65-.1-.1-.02-.2-.03-.31-.05,0,0-.02,0-.03,0-.1-.02-.21-.03-.31-.05-.4-.06-.79-.13-1.19-.2-.84-.14-1.68-.27-2.52-.4-.37-.05-.74-.11-1.11-.16-.04-.12-.08-.25-.11-.37-.05-.2-.1-.4-.15-.6.45-.41.9-.83,1.35-1.25,1.2-1.13,2.35-2.3,3.5-3.47.23-.24.47-.47.71-.7,1.37-1.19,2.72-2.42,4.05-3.66.92-.81,1.83-1.63,2.7-2.48.44-.43.89-.86,1.32-1.3.28-.28.54-.57.82-.84.21-.09.37-.26.46-.47.07-.07.14-.13.2-.2,2.06-6.06,3.58-12.38,5.67-18.46,4.86-16.27,10.68-32.22,17.27-47.86-21.01,15.43-43.01,30.73-58.19,52.3-2.69,3.74-5.04,7.69-7.14,11.78-.49.73-.79,1.63-1.18,2.44-.54.45-1.08.9-1.62,1.36-.12.1-.24.2-.35.3-1.42-.15-1.8-2.57-.87-3.73,1.61-3.33,3.32-6.61,5.28-9.75,8.67-13.84,20.4-25.53,32.97-35.85,7.75-6.09,15.51-12.16,23.37-18.1,3.11-2.27,6.17-4.63,9.49-6.58,2.77-1.78,4.15,1.46,2.86,3.74-7.28,16.94-13.72,34.23-19.18,51.84-1.43,4.5-2.98,8.96-4.18,13.53-.65,2-.89,4.26-2.32,5.9-3.49,3.5-7.29,6.7-10.94,10.03,5.84.27,10.78.99,10.59,8.05.15,5.4.44,10.78,1.24,16.13,1.26,5.45,4.65,56.42-1.84,56.43-.09,0-.19-.01-.29-.03Z"/>
            <path class="cls-2" d="M129.15,224.22c-.38-.42-.49-.98-.64-1.43-.48-1.53-.89-2.86-1.18-4.39-1.15-6.1-1.43-12.34-.88-18.52.81-16.06,5.33-31.6,12.1-46.12.79-1.8,1.49-3.66,2.17-5.53,0,0,.01-.02.02-.03.47-.89.86-1.83,1.27-2.75.42-.93.83-1.86,1.25-2.78.31-.67.62-1.35.94-2.01.22-.44.44-.88.66-1.31,0,0,0,0,0,0,0,0,0,0,0,0,0,0,0,0,0,0,.02-.03.04-.07.05-.1,0,.02-.02.03-.03.05.01-.03.03-.06.04-.08,0,0,0,0,0,0,.06-.12.12-.24.18-.35.46-.89.94-1.78,1.4-2.67.11-.21.22-.43.33-.64.67-1.11,1.35-2.22,2.03-3.32.5-.8,1-1.6,1.5-2.4.45-.73.88-1.47,1.31-2.21,0,0,0,0,0,0,0,0,0,0,0-.01,0,0,0,0,0,0,0,0,0,0,0,0,0,0,0,0,0,0,0,0,0-.01.01-.02,0,0,0,.01,0,.02.01-.02.02-.04.03-.06,0,0,0,0,0,.01,0,0,0-.01.01-.02,0,0,0,0,0-.01,0,0,0,0,0,0,.01-.02.02-.04.03-.06,0,0,0,0,0,.01,0,0,0-.01.01-.02,0,0,0,0,0,0,0,0,.01-.02.02-.03,0,0,0,0,0,0,0,0,0,0,0,0,0,0,0,0,0,0,0,0,0,0,0,0,0,0,0,0,0,0,.07-.12.14-.25.21-.37.92-1.59,1.86-3.17,2.74-4.79.44-.82.89-1.63,1.35-2.44.37-.65.76-1.3,1.16-1.94.46-.74.94-1.47,1.44-2.18.49-.7,1.01-1.37,1.49-2.07,0,0,0,0,0,0,.26-.38.53-.75.73-1.17.02-.04.04-.09.06-.13.09-.02.16-.07.23-.14.1-.1.11-.25.13-.39.02-.24,0-.49-.03-.73-.01-.12-.03-.24-.05-.36.4-.48.87-.83,1.52-.86,2,.86.06,3.09-.59,4.29-2.05,3.45-4.11,6.89-6.17,10.33-3.05,4.98-6.32,9.85-8.61,15.24-1.97,4.32-3.33,8.88-5.11,13.28-5.38,12.06-10.35,24.52-11.6,37.78-1.01,8.02-1.84,16.11-.72,24.14.23,2.42.77,4.94,1.51,7.2.47,1.06-.36,2.55-1.38,2.55h0c-.31,0-.63-.14-.94-.45Z"/>
            <path class="cls-3" d="M124.65,446.72c-1.79-.59-.73-3.03-.62-4.27-.01.07-.02.14-.04.21.02-.12.03-.18.05-.27.01-.07.02-.13.04-.19,0,.02,0,.04-.01.06,0,.02,0,.03,0,.05,1.85-9.36,4.26-18.65,7.32-27.62.18-1.04,1.44-1.87,1.76-.4-2.3,8.33-4.59,16.78-6.19,25.32-.3,1.39-.49,2.8-.69,4.22-.18,1.06-.08,3.02-1.62,2.91Z"/>
            <path class="cls-3" d="M123.94,448.98c.48-4.01,6.87-14.79,9.86-17.62,1.03-.79,1.77,1.05.91,1.65-2.67,4.07-5.12,8.17-7.15,12.58-.64,1.27-1.05,2.63-1.52,3.96-.54,1.15-2.07.58-2.1-.57Z"/>
            <path class="cls-4" d="M156.28,76.56c-1.2-.57-.86-2.39.21-2.91,1.19-.85,2.38-1.74,3.66-2.46.76-.35,1.33.54.92,1.18-.76,1.52-2.19,2.58-3.39,3.73-.34.39-.88.69-1.4.46Z"/>
            <path class="cls-4" d="M111.01,121.22c1.25-2.14,2.49-4.31,4.03-6.26,1.51-1.74,3.11-3.42,4.75-5.04,1.64-1.55,3.18-2.93,4.63-4.62,1.62-1.82,2.91-3.5,4.4-5.33,5.2-5.73,10.37-11.53,16.16-16.69,1.85-1.56,3.67-3.14,5.31-4.91,1.66-1.66,3.51-3.12,5.27-4.66,1.14-.99,2.24-2.04,3.43-2.98.38-.3.85-.77,1.37-.68.47.08.64.62.61,1.02-.13.83-.81,1.46-1.3,2.11-.95,1.14-1.92,2.25-2.94,3.32-1.36,1.32-2.59,2.77-3.94,4.1-.1.1-.19.21-.29.31-.1.09-.19.18-.29.27-1.22,1.14-2.43,2.29-3.62,3.46-.9.88-1.8,1.76-2.7,2.64-.32.29-.64.58-.95.88-2.75,2.67-5.56,5.25-8.37,7.79-.86.82-1.68,1.67-2.52,2.5-1.5,1.44-3.1,2.77-4.51,4.3-1.37,1.5-2.7,3.03-4.14,4.46-2.02,2.07-4.39,3.78-6.48,5.77-2.83,2.57-5.31,5.47-7.93,8.24,0,0,0,0,0,0Z"/>
            <path class="cls-4" d="M152.99,78.68c1.16-.81,2.37-1.7,3.53-2.48,1.17-.9,2.52-1.77,3.13-3.16.18-.3.27-.7.58-.9.26-.14.55-.01.68.24.22.46,0,.95-.22,1.38-.33.28-.67.56-1,.84-1.28,1.08-2.55,2.18-3.81,3.29-1.24,1.08-2.44,2.2-3.64,3.31-.32.3-.64.59-.95.89-.13.11-.27.21-.4.32-2.16,1.88-4.54,3.56-7.01,4.97,2.55-3.38,5.64-6.3,9.13-8.7Z"/>
            <path class="cls-3" d="M105.68,258.19c-1.96-.42-8.29-1.37-8.85-3.42,0-1.49,1.49-.85,2.33-.49,2.58,1.1,5.36,1.71,8.12,2.08.34.06.49.4.5.72.1,1.16-1.23,1.34-2.09,1.11Z"/>
            <path class="cls-3" d="M107.9,256.53c-1.83-.86-3.56-2.16-5.04-3.57-.42-.41-.26-1.48.46-1.36,1.45,1.15,2.9,2.37,4.53,3.31.91-.11.9,1.59.05,1.61Z"/>
            <path class="cls-3" d="M148.59,336.82c-.27,0-.56-.07-.82-.03-.83.09-1.01-1.13-.55-1.63.73-.57,1.82-.03,2.69-.21,1.98-.29,3.97-.86,5.89-1.36,4.83-1.2,9.37-3.29,13.64-5.82,3.82-2.25,7.65-4.56,10.87-7.63.51-.43.84-1.1,1.53-1.24,1.15-.19,1.8,1.23,1.52,2.2-2.28,3.82-8.86,7.11-12.83,9.13-4.89,2.52-9.86,4.46-15.23,5.59-2.21.5-4.44,1.19-6.73,1Z"/>
            <path class="cls-4" d="M220.67,276.12c6.4-.66,12.22-4.96,16.32-9.62,2.6-3.44,4.28-7.58,3.91-11.92-.04-1.68-.38-3.39-1.43-4.75-2.07-2.37-5.82-1.29-6.62,1.68-.58,2.2-.66,4.41-1.5,6.52-.59,1.32-1.26,2.64-2.2,3.76-1.77,2.05-4.2,3.44-6.67,4.48-2.36.87-4.78,1.66-6.89,3.02-2.11,1.61-3.78,3.73-1.16,5.86,1.7,1.01,4.29,1.08,6.23.97ZM217.74,278.41c-1.58-.18-3.31-.37-4.56-1.46-2.52-2.22-2.59-5.84-.17-8.18,1.01-1.14,2.29-1.98,3.68-2.58,2.32-1.06,4.78-1.77,7.1-2.84,3.34-1.59,5.47-5,6.7-8.38.41-1.71.48-3.52,1.21-5.14.7-1.57,2.11-2.81,3.77-3.25,3.65-.73,5.97,1.74,6.83,5.06,1.26,6-.5,11.83-4.24,16.6-5.05,5.79-12.27,10.96-20.31,10.18Z"/>
            <path class="cls-4" d="M301.07,245.96c-3.85-.65-10.76-1.6-12.09-5.88-.06-.99,1.09-1.67,1.72-.74,1.22,1.67,3.26,2.56,5.2,3.07,2.99.82,6.08,1.61,9.21,1.33,3.5-.39,7.09-1.53,9.84-3.79,1.27-1.02,1.31-3.19-.31-3.87-1.12-.54-2.4-.15-3.53.15-3.76,1.14-7.75,2.37-11.68,1.27-4.33-.55-7.18-5.61-9.87-3.92-1.05.72-.51,2.4-1.4,3.15-1.39.11-.45-2.23-.33-2.97.71-2.63,4.05-2.78,5.89-1.23,6.91,5.15,11.24,3.25,18.7,1.34,4.25-.92,6.71,4.17,3.95,7.27-3.93,3.8-9.93,5.43-15.3,4.85Z"/>
            <path class="cls-3" d="M261.71,407.71c-5.71-1.36-4.3-9.36-3.93-13.71-.18-.42.12-1.11.65-.94.92.77.04,2.43.17,3.46-.53,4.53.25,12.36,6.65,8.79,4.34-3.4,7.28-8.45,9.15-13.58,1.1-1.81,2.36.11,1.18,2.1-2.14,5.14-7.33,14.76-13.87,13.88Z"/>
            <path class="cls-3" d="M254.2,422.55c-2.07-.06-3.85-1.53-5.01-3.14-1.16-1.67-1.73-3.67-1.86-5.69-.29-2.96-.16-5.97.03-8.92.19-3.69.61-7.36,1.41-10.97.21-.98.46-1.96.72-2.94.18-.52.51-2.39,1.23-2.03.47.31.15.89.08,1.33-.33,1.33-.63,2.67-.88,4.02-.56,3.16-.91,6.35-1.08,9.55-.2,3.69-.32,7.18.21,10.75.46,2.47,2.09,5.15,4.74,5.59,1.43.09,2.68-.8,3.83-1.54,2.29-1.65,4.36-3.57,6.44-5.46,1.25-1.18,2.4-2.46,3.55-3.74.24-.25.44-.56.78-.68.88-.34,1.56.69,1.42,1.5-.03.41-.25.78-.53,1.07-1.11,1.26-2.24,2.5-3.44,3.68-2.8,2.49-7.83,7.59-11.63,7.63Z"/>
            <path class="cls-4" d="M173.75,137.38c-6.07-6.49-10.65-14.51-12.52-23.25-.71-4.56-.47-9.23-.7-13.82-.07-.64.63-1.35,1.22-.87.49.38.29,1.04.31,1.58.47,3.58.6,7.21,1.16,10.78.45,2.4,1.32,4.69,2.25,6.94,1.27,3.19,2.89,6.23,4.64,9.18,1.48,2.5,3.3,4.79,4.79,7.29.43.87.66,1.84.81,2.8-.7,0-1.39-.22-1.97-.62Z"/>
          </g>
          <g>
            <path class="cls-3" d="M218.79,307.88c-.65-.05-.75-.82-.83-1.3-.28-1.62-.57-3.25-.55-4.9.06-1.98.17-3.97.53-5.92.05-.26.14-.62.45-.67.24-.02.4.12.47.32,0,0,0,0,0,0,.12.48-.12.99-.13,1.48-.26,2.47-.38,5.01.1,7.41.12.65.26,1.3.4,1.95.12.42.26.87.05,1.28-.08.18-.27.36-.48.35Z"/>
            <path class="cls-3" d="M226.3,336.08c-1.76-1.85-3.22-4.13-4.51-6.3-1.34-2.08-2.26-4.38-3.07-6.7-.27-.94-1.5-3.45-.71-4.17.5-.36.82.24.85.68.51,2.03,1.37,3.97,2.16,5.91.74,1.67,1.75,3.2,2.74,4.73.97,1.55,2.08,3,3.34,4.34.74.73.4,2.32-.8,1.51Z"/>
            <path class="cls-3" d="M261.17,351.68c-1.06-.21-.72-1.74.28-1.72,1.68-.13,3.2-.87,4.72-1.55,15.8-9.08,18.43-25.06,16.26-41.81-.55-3.68-1.37-7.32-2.33-10.91-.1-.89-.92-1.9-.39-2.74,1.42-1.91,4.36,11.03,4.66,12.08,3,13.76.27,30.3-10.78,39.86-3.65,3.08-7.54,6.36-12.43,6.8Z"/>
            <path class="cls-3" d="M261.16,341.27c-.58-.13-.63-1.05-.16-1.34,1.15-.65,2.37-1.24,3.54-1.89,5.81-3.03,10.64-8.25,13.17-14.31,2.36-6.73,2.69-14.07,2.86-21.15-.01-1.12-.53-2.42.31-3.36,1.46-1.3,2.46.7,2.38,2.06.35,3.35-.22,6.7-.55,10.02-.61,4.29-1.45,8.62-2.99,12.67-2.23,5.27-6.22,9.56-10.62,13.12-2.32,1.62-4.92,2.87-7.5,4.02-.11.12-.28.19-.44.16Z"/>
            <path class="cls-3" d="M248.13,344.6c-2.68-.35-5.33-1.08-7.8-2.18-1.14-.52-2.41-.88-3.41-1.66-.36-.32-.24-1.19.34-1.1,1.01.42,2.01.86,3.04,1.23,2.6,1.11,5.19,1.82,7.96,2.16.51-.02,1.1.27,1.15.82-.06.61-.75.86-1.29.73Z"/>
            <path class="cls-3" d="M181.94,371.42c-.67-.72-.72-1.97-.15-2.77.53-.74,1.01-1.52,1.51-2.28,3.46-5.54,7.87-10.58,12.3-15.38,1.74-1.88,3.55-3.68,5.36-5.49,1.17-1.08,2.28-2.25,3.67-3.05,1.83-1.24,2.72,1.11,1.25,2.2-1.71,1.42-3.04,3.16-4.39,4.82-1.14,1.45-2.34,2.84-3.53,4.25-2.9,3.48-5.75,7.01-8.69,10.46-1.37,1.77-2.6,3.64-3.93,5.44-.39.54-.8,1.07-1.19,1.6-.48.77-1.61.91-2.22.19Z"/>
            <path class="cls-3" d="M188.69,372.51c-1.25-2.39-3.23-4.25-5.13-6.12-1.16-1.07-2.01-2.37-3.06-3.53-.84-1.03.33-2.7,1.47-1.6,2.26,2.39,4.93,4.35,7.05,6.87.89,1.25,2.75,2.98,1.47,4.54-.48.58-1.43.48-1.81-.16Z"/>
            <path class="cls-3" d="M195.09,367.37c-2.22-2.4-4.15-5.14-6.37-7.57-1.08-1.44-2.56-2.62-3.5-4.15-.34-.8.31-2.01,1.25-1.5.43.26.79.63,1.18.95,3.19,2.87,6.05,6.12,8.78,9.42,1.14.98.33,3.64-1.34,2.85Z"/>
            <path class="cls-3" d="M200.57,359.74c-2.75-3.44-5.07-7.25-7.83-10.7-.67-.65-1.37-2.54.08-2.63,1.56.92,2.71,2.56,3.92,3.91,1.88,2.48,3.91,4.87,5.69,7.41.54,1.12-.61,2.95-1.85,2.01Z"/>
            <path class="cls-3" d="M205.91,352.76c-2.13-3.41-4.88-6.38-7.15-9.67-.61-.69-.6-2.29.6-2.24,1.25.68,2.04,2.1,3.08,3.08,1.94,2.21,3.92,4.42,5.52,6.89.84,1.33-.84,3.53-2.05,1.93Z"/>
            <path class="cls-3" d="M70.9,331.62c-.78-.31-1.02-1.2-1.46-1.84-1.42-2.37-2.53-4.92-3.65-7.44-2.14-4.75-4.38-9.48-5.73-14.53-1.57-5.67-3.32-10.87-4.25-16.63-.45-2.2-.68-4.44-.68-6.69-.04-1.47-.17-2.95-.06-4.42.03-.52.14-1.06.55-1.42.82-.63,1.6.36,1.57,1.18.09,1.11.2,2.23.32,3.34.22,3.45,1,6.81,1.79,10.16.79,3.39,1.87,6.69,2.94,10,1.47,5.35,3.41,10.55,5.7,15.61,1.2,2.78,2.27,5.62,3.73,8.27.41.87,1.15,1.63,1.14,2.64.03,1.01-.83,2.18-1.93,1.79Z"/>
            <path class="cls-3" d="M51,302.84c-1.19-1.45,1.67-4.76,2.29-6.27,2.36-4.18,4.89-8.33,8.24-11.81,1.09-1.43,2.71-2.42,3.32,0,.21,1.89-2.72,3.62-3.7,5.22-1.81,2.28-3.56,4.62-5.17,7.04-1.02,1.57-2.06,3.14-3.06,4.73-.39.67-1.04,1.93-1.91,1.09Z"/>
            <path class="cls-3" d="M54.9,312.39c-.56-3.07,7.15-13.8,9.37-16.66.83-1.02,2.21-.01,2.1,1.11.04.73-.46,1.24-.9,1.76-.92,1.16-1.76,2.38-2.59,3.61-1.63,2.53-3.43,4.94-5.09,7.44-.65.77-1.64,4.71-2.89,2.74Z"/>
            <path class="cls-3" d="M59.38,327.35c-2.18-2.38,5.48-10.85,7.1-12.91,1.24-1.53,2.42-3.1,3.85-4.45.65-.79,1.82-1.29,2.41-.14.62,1.15-.23,2.19-1.14,2.85-2.01,2.06-3.81,4.32-5.74,6.46-1.9,2.18-3.8,4.39-5.11,6.99-.31.53-.55,1.61-1.37,1.22Z"/>
            <path class="cls-3" d="M257.78,287.03c-1.32-.86-1.8-2.61-1.44-4.1.17-.8.91-1.95,1.86-1.55,1.6-.76,3.13.93,3.2,2.47.32,1.89-1.69,4.25-3.62,3.18Z"/>
            <path class="cls-3" d="M301.72,261.21c-1.66-.43-2.06-2.86-1.13-4.14.32-.42.74-.84,1.32-.79,1.37.1,2.2,1.76,1.96,3.01-.17,1-1.03,2.1-2.15,1.92Z"/>
            <path class="cls-3" d="M269.74,268.12c-1.86-.22-3.77-.6-5.62-.85-.69-.06-1.44-.04-1.4-.96.11-1.45,1.85-.55,2.75-.57,1.37.26,2.75.44,4.14.6.41.1.93.02,1.23.37.63.8-.17,1.82-1.11,1.42Z"/>
            <path class="cls-3" d="M270.61,271.07c-2.12-.25-4.2-.76-6.32-1.02-.33-.07-.65-.14-.98-.21-.08-.16-.11-.37-.09-.58.05-.5.4-1,1.04-.85,2.22.23,4.39.79,6.61,1.05.79.19.64,1.61-.15,1.61-.03,0-.07,0-.11,0Z"/>
            <path class="cls-3" d="M293.74,281.38c-.63-.78-.32-1.95-.51-2.88-.18-2.17-.51-4.35-.48-6.53.07-.72,1.04-.68,1.05.04-.01,1.2.16,2.4.26,3.6-.09.81,1.23,6.56-.32,5.77Z"/>
            <path class="cls-3" d="M295.87,283.47c-.72-2.61-.73-5.43-.85-8.14.01-.85,1.12-.81,1.06.04.11,1.79.2,3.59.41,5.37.05.84.41,1.68.32,2.52-.09.48-.67.68-.94.21Z"/>
            <path class="cls-3" d="M297.89,285.87c-.06-1.03-1.26-5.55.2-5.61.72.19.23,2.11.51,2.83-.08.89.84,2.7-.06,3.22-.3.1-.55-.16-.64-.43Z"/>
            <path class="cls-3" d="M278.82,390.66c-1.29-1.34-2.36-2.92-3.5-4.4-.55-.65-1.72-2.23-.29-2.56.73.19,1.07,1.05,1.6,1.54.99,1.18,1.98,2.36,2.96,3.54.8.66.5,2.58-.77,1.88Z"/>
            <path class="cls-3" d="M280.78,387.65c-.49.06-4.51-4.65-4.22-5.1.55-1.79,2.1,1.41,2.73,1.86.42.73,3.23,2.73,1.5,3.25Z"/>
            <path class="cls-3" d="M281.23,384.1c-.87-.74-1.62-1.66-2.31-2.57-.57-.79.47-1.88,1.07-.86.63.99,1.78,1.69,2.16,2.8.18.59-.44.94-.92.63Z"/>
            <path class="cls-3" d="M333.65,309.91c-.91-.75-1.4-1.97-2.14-2.89-.41-.89-2.09-2.21-1.36-3.18.69-.81,2.1,2.28,2.62,2.75.5.92,1.49,1.69,1.62,2.76.03.41-.33.76-.74.57Z"/>
            <path class="cls-3" d="M335.25,306.54c-1.14-.33-3.24-3.66-3.95-4.78-.24-.47.14-1.3.73-1.07.7.65,1.09,1.64,1.72,2.38.35.69,3.05,3.11,1.5,3.48Z"/>
            <path class="cls-3" d="M335.82,304.04c-.5-.66-.97-1.35-1.43-2.04-.32-.57-1.09-1.25-.62-1.93.39-.51.89,0,1.07.42.52.79,1.04,1.58,1.6,2.35.74.64.37,2.22-.62,1.21Z"/>
            <path class="cls-3" d="M119.89,234.45c-1.58-1.39-3.17-3.04-4.6-4.51-.85-.34-1-1.98.16-1.86,1.34,1.32,2.67,2.82,4.09,4.14.29.29.59.58.89.86.6.47.4,1.83-.54,1.37Z"/>
            <path class="cls-3" d="M121.5,232.06c-1.64-1.35-3.22-2.78-4.74-4.27-.78-.76-1.56-1.53-2.25-2.28-.35-.4-.77-.79-.94-1.31-.16-.44.3-1,.69-.56.15.17.31.34.45.5,1.7,1.74,3.49,3.38,5.3,5,.63.56,1.27,1.1,1.92,1.64.17.12.32.28.38.48.22.55-.25,1.18-.82.79Z"/>
            <path class="cls-3" d="M123.16,228.84c-.62-.44-1.13-1.05-1.72-1.54-1.58-1.45-3.21-2.88-4.46-4.62-.24-.36-.52-.94-.18-1.32.16-.2.45-.22.62-.03,0,0,0,0,0,0,1.44,1.89,3.25,3.44,5.01,5.03.44.41.91.79,1.32,1.22.48.51.28,1.63-.58,1.26Z"/>
            <path class="cls-3" d="M124.17,225.11c-1.01-1.06-2.04-2.1-2.96-3.25-.18-.23-.35-.47-.38-.77-.06-.37.29-.82.68-.63.64.47,1.12,1.16,1.67,1.71.47.5.94.99,1.42,1.49.3.29.59.61.58,1.05.02.58-.62.82-1.01.4Z"/>
            <path class="cls-3" d="M136.28,264.79c-1.73-2.03-.05-11.86-.45-15.27.21-1.85-.56-5.59.51-6.87.66-.41,1.1.64.69,1.11.04,4.93.24,9.88.02,14.81-.23,2.02.71,4.56-.76,6.22,0,0,0,0,0,0Z"/>
            <path class="cls-3" d="M133.82,269.75c-1.4-3.14-.97-6.97-1.75-10.34-.22-2.52-1.37-5.38-.38-7.8.21-.3.64-.29.86-.01.4.47-.06.97,0,1.49.05,2.14.49,4.14.84,6.22.49,2.79.7,5.62,1.23,8.41.25.63.31,2.79-.79,2.05Z"/>
            <path class="cls-3" d="M110.07,520.6c-2.81-.11-2.38-4.58-1.38-6.31.9-1.56,2.71-4.84,4.8-4.53.46.1.67.63.53,1.05-.05.18-.21.35-.41.36-.21-.04-.42.05-.63.11-1.28.45-2.89,3.16-3.43,4.41-.33.78-.7,2.95.25,3.37.73.13,1.48.1,2.21.02.57-.03.96-.46,1.2-.94.4-.58.22-1.52.88-1.89.14-.05.25-.01.35.09.45.48.22,1.19.06,1.74-.78,2.45-2.13,2.61-4.44,2.53Z"/>
            <path class="cls-3" d="M102.18,517.07c-1.35-.5-1.47-2.09-1.34-3.32.16-.89-.06-2.1.69-2.74.29-.16.54-.05.69.16,0,.03,0,.06,0,.08-.02.18-.04.37-.07.55-.02.13-.03.26-.05.39,0,.08-.02.16-.03.24h0s0,0,0,0h0s0,.04,0,.06c-.15,1.16-.74,3.72,1.05,3.18.66-.38,1.3-1.55,2.17-.95.07,1.12-1.37,2.46-2.58,2.46-.18,0-.36-.03-.53-.1Z"/>
            <path class="cls-3" d="M106.17,512.01c-.64-2.85-2.9-.46-2.79-2.27.44-1.21,2.28-.64,2.96.08,1.83,1.81.51,4.06-.18,2.2Z"/>
            <path class="cls-3" d="M103.36,536.55c-2.85-.15-2.37-.25-2.12-2.85.54-3.39,1.6-6.82,2.24-10.1,1.71-.59.48,2.4.41,3.18-.55,2.77-1.53,5.48-1.72,8.3,1.84.18,4.23.56,4.88-1.71.18-.51.34-1.09.79-1.43.97.98.11,2.52-.56,3.43-.9,1.22-2.52,1.43-3.93,1.18Z"/>
            <path class="cls-3" d="M108.33,528.52c-.72-.48-.69-1.44-1.24-2.07-.47-.83-2.51-2.05-.97-2.85.63-.14,2.13,2.19,2.44,2.78.35.5.86,2.37-.23,2.14Z"/>
          </g>
          <g>
            <path class="cls-3" d="M102.4,461.62c-1.73-.75-1.57-2.99-2.53-4.35-1.83-2.22-4.3-3.88-5.99-6.2-1.27-2.14-1.23-5.43-4.04-6.27-2.74-.74-5.16,1.45-7.9,1.38-2.71.34-5.61-.58-7.36-2.74-1.85-1.99-1.73-4.88-2.9-7.17-1.92-2.73-5.99-3.05-8.44-.86-.95.85-1.78,1.87-2.22,3.08-.03.26-.17.54-.45.58-1.54-.35.48-2.96,1-3.61.86-1.04,1.94-1.88,3.21-2.35,2.89-1.26,6.5.1,8.02,2.81.85,2.04.84,4.44,2.23,6.25,1.97,2.82,5.71,3.14,8.79,2.4,3.29-1.22,6.91-2.46,9.1,1.29.82,1.53.98,3.23,1.9,4.64,1.89,2.47,4.89,4.05,6.38,6.8.43.96.46,2.12,1.28,2.88.57.3.71,1.39-.08,1.46Z"/>
            <path class="cls-3" d="M80.03,419.94c-1.19-.02-2.1-.93-2.61-1.94-1.32-2.28-.49-4.99-.02-7.4.36-1.61.72-3.22,1.25-4.78.14-.43.28-.94.7-1.18.21-.13.46.02.55.22.22.42-.22.8-.29,1.16-.32.92-.58,1.86-.82,2.81-.24.94-.46,1.88-.67,2.82-.36,1.86-.98,3.94.02,5.7,1.69,3.27,4.92.53,5.09-2.17.06-.63.22-1.26.53-1.8.5.72.46,1.63.28,2.45-.34,1.95-1.85,4.13-4.02,4.1Z"/>
            <path class="cls-3" d="M83.94,410.84c-.12-.13-.15-.3-.19-.44-.42-1.54-.92-2.98-1.96-4.17,0,0,0,0,0,0,0,0,0,0,0,0,0,0,0,0,0,0h0c-.33-.27-.14-1,.33-.92.26.08.44.34.6.54.94,1.22,1.45,2.71,1.85,4.18.04.16.09.33.06.49-.04.36-.39.64-.69.31Z"/>
            <path class="cls-3" d="M61.88,418c-1.38-.41-1.35-1.98-1.43-3.15-.12-1.25-.28-2.51-.52-3.74-.41-1.93-.93-3.84-1.14-5.81-.22-2.27-.21-4.41-.05-6.66.08-1.03.32-2.03.66-3,.2-.45.4-1.61,1.04-1.49.46.12.46.81.14,1.05-.09.19-.16.39-.22.54-.34.96-.6,1.94-.7,2.95-.18,2.32-.14,4.67.14,6.98.33,2.32,1.08,4.67,1.36,6.98.22,1.24.19,2.51.42,3.74.65,1.26,3.41-.18,4.48-.36.66-.19,1.34-.36,2.03-.37.58,0,.96.05,1.3-.52.41-.66.57-1.44.77-2.18.27-1.21.45-2.46.27-3.7-.22-1.13-.35-2.39-1.23-3.23-1.28-1.18-2.8-2.24-3.23-4.04-.13-.91-.52-1.75-1.17-2.41-.31-.3-.67-.55-1.07-.7-.21-.08-.33-.25-.41-.45-.16-.4.19-.84.62-.77.53.15,1.01.49,1.42.85.83.8,1.41,1.85,1.57,2.99.64,2.56,3.69,3.07,4.17,5.78.36,1.31.58,2.68.42,4.04-.27,1.72-.58,4.83-2.4,5.56-.38.1-.77.03-1.15.05-.94.07-1.84.39-2.75.63-1.07.27-2.2.77-3.31.44Z"/>
            <path class="cls-3" d="M69.37,385.07c-1.86-.64-1.21-3.5-1.13-5.01.1-.94.17-1.89.31-2.83.06-.35.07-.77.36-1.01.42-.27.76.31.6.68-.09.48-.13.97-.18,1.45-.07.73-.13,1.45-.21,2.18-.02.8-.51,3.21.51,3.43.27.02.47-.2.64-.38.78-.79,1.08-2.39,2.3-2.57.41-.05.8.1,1.21.07.43-.06.94-.33,1.01-.8.13-1.36-.52-2.73-1.29-3.81-.09-.23-.31-.51-.28-.73.46-.23,1-.03,1.3.37.68.94,1.04,2.12,1.21,3.26.19,1.12-.25,2.41-1.42,2.76-.61.28-1.28-.1-1.89.08-.94.87-1.44,3.12-3.06,2.86Z"/>
            <path class="cls-3" d="M96.91,410.13c-1.42-.54-1.08-2.25-.88-3.43.15-.72-.25-1.32-.83-1.71-.73-.54-1.56-.97-2.11-1.7-1.11-1.36-.15-3.16.93-4.21.26-.26.55-.55.89-.7.69-.16.81,1.03.2,1.18-.74.5-1.41,1.32-1.58,2.21.04,1.38,2.55,1.94,3.16,3.2.29.49.37,1.07.33,1.63-.08,1.38-.86,2.63,1.24,2.47.88-.05,1.79-.16,2.54-.64,1.3-.82,1.97-2.63,1.12-4-.66-1.33-2.5-1.64-2.88-3.14,1.12-.4,2.21.77,2.99,1.45,1.71,1.69,1.66,4.43,0,6.14-1.18,1.28-3.5,1.71-5.14,1.26Z"/>
            <path class="cls-3" d="M61.92,239.22c-.87-.31-1.39-1.21-1.31-2.12.18-1.48,1.29-2.62,2.04-3.85-2.33.47-1.99-1.52-1.56-3.06.19-.77.45-1.67.67-2.4.8-2.34,1.53-4.78,2.75-6.94.14-.23.3-.52.57-.59.28-.05.46.13.52.37-.05.11-.09.21-.14.32-.05.12-.11.23-.16.35-.03.07-.07.14-.08.22-1.09,1.94-1.73,4.2-2.44,6.27-.38,1.4-.95,2.8-1.02,4.26.25.08.52.04.78,0,.32-.05.64-.1.93.08.39.27.4.82.23,1.22-.43,1.35-3.93,4.41-.92,4.85.92.05,1.71-.49,2.23-1.21.8-1.09,1.45-2.23,2.14-3.36.78-1.03.53-1.83.22-2.97-.34-1.4-2-3-.71-4.35.4.48.38,1.12.6,1.67.85,1.43,1.5,3.11,1.34,4.8-.36,1.32-1.34,2.46-2,3.66-.81,1.41-2.04,2.97-3.7,2.97-.31,0-.63-.05-.97-.17Z"/>
            <path class="cls-3" d="M77.19,221.31c-1.43-.26-2-1.94-2.13-3.21-.04-1.65.03-3.31.18-4.96.36-2.44,1.17-4.81,2.14-7.07.1-.27.4-.56.68-.34.4.34.05.8-.12,1.15-1.23,2.81-2.06,5.83-2,8.92,0,.95-.13,1.93.12,2.86.22.6.52,1.38,1.22,1.53.34.02.8.12.9.51-.04.46-.57.73-.99.62Z"/>
            <path class="cls-3" d="M80.43,218.67c-.5-.41-.17-1.14-.26-1.69-.08-1.12-.3-2.23-.76-3.26-.24-.54-.5-1.08-.75-1.62-.12-.24-.19-.52-.06-.77.18-.39.71-.33.79.1.45.99,1.01,1.93,1.31,2.99.21.73.97,4.33-.27,4.26Z"/>
            <path class="cls-3" d="M69.53,199.43c-.36-1.05.11-2.15.29-3.19.55-2.59,1.46-5.09,2.72-7.42.45-.84.94-1.67,1.43-2.49.21-.31.39-.78.81-.8.65.02.67,1.04.14,1.26-1.49,2.21-2.68,4.52-3.49,7.05-.43,1.38-.75,2.79-1,4.12-.04.31-.17.67,0,.95.77.51,2.42-.79,3.13-1.2.43-.22,1.21-1.05,1.58-.37.17.6-.42.92-.85,1.18-.49.32-.96.65-1.46.94-.96.58-2.67,1.39-3.29-.02Z"/>
            <path class="cls-3" d="M76.53,195.04c-.2-1.09.31-2.15.2-3.25-.08-1.67-.51-3.37-.23-5.04.07-.25.32-.56.61-.44.29.12.35.47.23.74-.03.32-.02.65,0,.97,0,1.47,1.15,6.61-.8,7.02Z"/>
            <path class="cls-3" d="M196.38,158.71c-1.27-.2-.93-1.74.27-1.58,1.48,0,3.08-.13,4.11-1.27.52-.66.63-1.52.82-2.31.4-1.78.97-3.54,1.08-5.37.08-1.14.13-2.29.09-3.43-.02-.67-.18-1.35-.63-1.87-.5-.7-1.36-.84-2.11-1.13-.5-.21-.93-.55-1.26-.98-1.23-1.56.05-3.46-.17-5.18-.28-1.76-2.14-1.57-3.49-1.6-1.84-.08-4.16-.45-4.91-2.39-.39-1.01-.58-2.13-.33-3.2.36-1.39,1.19-2.72,1.9-3.88.98-1.58,1.66-3.36,2-5.19.57-2.7.36-5.59-.87-8.08-1.04-1.68-2.76-1.53-4.44-1.05-1.91.63-2.49,1.94-2.54,3.85-.15,2.1-.07,4.15-.44,6.21-.27,1.36-.62,2.71-1.13,4.01-.61,1.33-2.47,4.89-4.29,3.75-.83-.66-.45-1.83-.37-2.73.13-.97-.48-1.24-1.23-1.59-1.81-.85-2.58-2.2-1.61-4.09.6-1.4,2.02-2.64,1.77-4.27-.43-2.1-2.65-4.5-4.93-3.46-1.02.55-1.42,1.71-1.94,2.67-.9,1.53-1.71,3.12-2.76,4.54-.71.97-1.7,1.73-2.89,1.97-.42.54-1.01-.09-.77-.62.18-.43.65-.49,1.05-.61,1.78-.63,2.56-2.54,3.47-4.04.3-.51.61-1.01.9-1.52.59-1.08,1.05-2.26,1.99-3.09,1.74-1.53,4.4-.62,5.61,1.14,1.84,2.31,1.69,4.35.08,6.7-.41.8-1.52,2-.57,2.8,1.48,1.18,3.05,1.04,2.91,3.47,0,.52-.22,1.06-.12,1.57.51.25.95-.37,1.26-.71,1.79-2.22,2.48-5.13,2.73-7.92.33-4.31-.7-8.72,4.89-9.63,2.89-.59,4.49,1.22,5.12,3.87.68,2.14.71,4.43.27,6.62-.33,1.94-.98,3.85-1.97,5.56-.81,1.44-1.95,2.82-2.2,4.51-.02,1.16.34,2.57,1.54,3.01,1.49.61,3.11.47,4.68.55,2.12.1,3.07,2.19,2.72,4.09-.09.78-.38,1.48-.38,2.26.07,1.29,1.56,1.49,2.51,1.88.52.24.95.64,1.3,1.09.82,1.07.86,2.45.83,3.74-.03,1.57-.1,3.15-.38,4.59-.39,1.74-.75,3.5-1.23,5.22-.75,2.51-3.58,3.24-5.92,3.11Z"/>
            <path class="cls-3" d="M174.65,104.67c-1.17-.55-1.29-1.89-1.08-3.02-.01-.16.06-.45-.14-.49-.21,0-.43.01-.65.03-.61.04-1.22.09-1.77-.24-1.26-.67-1.58-2.39-1.05-3.63.46-.97,1.19-1.78,1.83-2.64.36-.41.59-1,1.08-1.28.31-.15.53-.04.65.15-.03.05-.06.1-.08.15-.07.13-.14.27-.21.4-.13.24-.25.47-.38.71-.11.2-.22.39-.32.58-.04.08-.09.16-.13.24-.09.12-.18.24-.28.36-.5.7-1.19,1.35-1.4,2.2-.15.79.29,1.66,1.11,1.83.32.07.64.04.96,0,.24-.02.47-.05.71-.03.72.04,1.03.79,1.01,1.42,0,.72-.36,1.65.41,2.12.8.51,1.79.15,2.57-.23.8-.38,1.36-1.14,1.52-2.01.17-.88-.49-1.62-.8-2.39-.15-.39-.25-.8-.34-1.21,1.44.21,2.36,2.63,2.02,3.92-.23,1.09-.9,2.09-1.89,2.63-.67.37-1.46.69-2.23.69-.37,0-.74-.07-1.1-.25Z"/>
            <path class="cls-3" d="M191.27,101.58c-.8-.27-1.66-.77-2.53-.51-.56.19-1.13.42-1.74.38-1.55-.04-1.9-2-1.29-3.15.28-.62.71-1.12,1.15-1.63.4-.42.75-.95,1.31-1.16.17-.05.31-.03.41.04,0,0,0,0,0,0,0,.05,0,.09,0,.14v-.03s0,.1-.01.15c0,.04-.01.08-.02.11-.02.05-.03.11-.06.16,0,0,0,0,0,0,0,0,0,0,0,0,0,0,0,0,0,0,0,0,0,0,0,0,0,0,0,0,0,0h0,0s0,0,0,0c0,0,0,0,0,0,0,0,0,0,0,0,0,0,0,.01,0,.02,0,0,0,0,0,0,0,0,0,0,0,0,0,0,0,0,0,0,0,0,0,0,0,0,0,0,0,0,0,0,0,0,0,0,0,0,0,0,0,0,0,0,0,0,0,0,0,0,0,0,0,0,0,0,0,0,0,0,0,0,0,0,0,0,0,0-.05.11-.1.22-.16.33-.11.21-.24.42-.36.62-.46.41-.88.96-1.23,1.42-.36.51-.66,1.58.17,1.78.67.13,1.28-.27,1.91-.39,1.08-.22,2.03.44,3.04.64.86-.05,1.08-1.82.91-2.48-.09-.5-.7-.58-.86-1.03-.09-.29.16-.57.43-.66.6-.14,1.04.51,1.26.98.56,1.34-.07,4.35-1.79,4.35-.17,0-.36-.03-.55-.1Z"/>
            <path class="cls-3" d="M203.55,41.71c-.3-.06-.59-.19-.83-.38-1.83-1.8-3.03-1.08-5.22-1.63-2.03-.64-.26-2.63.38-3.71,1.1-1.96,2.41-3.81,3.86-5.52,1.24-1.24,2.57-2.43,3.96-3.52.25-.15.5-.29.75-.42,0,0,0,0,0,0,0,0,.01,0,.02,0,0,0,0,0-.01,0,0,0,0,0,0,0,0,0,0,0,0,0,0,0,0,0,0,0,0,0,.01,0,.02,0,0,0,0,0,0,0,0,0,0,0-.01,0,0,0,0,0,0,0,0,0,0,0,.01,0,0,0,0,0,0,0,0,0,0,0,0,0t0,0s0,0,0,0c.19-.09.38-.18.57-.25,0,0,0,0,0,0,.09-.03.18-.06.28-.08h0s.09-.01.13-.02c.02,0,.04,0,.06,0,0,0,.01,0,.02,0,0,0,0,.01,0,.02,0,.01,0,.03,0,.04,0,0,0,0,0,0,0,0,0,0,0,0,0,0,0,0,0,0,0,.03,0,.06-.01.1,0,0,0-.02,0-.03,0,.03-.01.06-.02.09,0,0,0,0,0,0,0,0,0,0,0,0,0,0,0,0,0,0,0,.02-.01.04-.02.05-.02.04-.05.09-.07.13,0,0,.01-.02.02-.03-.05.07-.1.14-.16.21,0,0,0,0,0,0,0,0,0,0,0,0,0,0,0,0,0,0h0c-.12.13-.24.25-.38.36,0,0,0,0,0,0,0,0-.01.01-.02.02-.1.09-.21.18-.32.27-.27.22-.54.43-.8.66,0,0,0,0,0,0,0,0,0,0,0,0,0,0,0,0,0,0-.22.2-.44.41-.65.63-.1.1-.19.2-.29.31-.09.09-.17.18-.26.27-.92.81-1.86,1.62-2.63,2.59-1.64,2.05-3.01,4.33-4.35,6.56,1.56.52,3.43-.02,4.8,1.08.41.29.73.69,1.17.92.56.29,1.08-.11,1.49-.48.88-.89.84-2.23,1.03-3.38.19-1.52,1.14-2.75,2.03-3.94.4-.63.96-1.22,1.14-1.95.03-.47,0-.93.04-1.4,1.44,1.17.83,2.27-.08,3.53-.79,1.2-1.9,2.28-2.16,3.74-.21,1.4-.26,2.92-1.18,4.06-.49.55-1.17,1.14-1.93,1.14-.12,0-.25-.02-.37-.05Z"/>
            <path class="cls-3" d="M200.49,55.23c.68-2,1.76-8.13-1.47-8.27-.65.08-.75-.93-.26-1.21.14-.09.32-.09.45-.01,2.37.14,3.11,2.83,3.01,4.83-.11,1.11.01,5.03-1.73,4.65Z"/>
            <path class="cls-3" d="M195.8,52.47c-.64-.5-.66-1.42-.5-2.16.14-.6.23-1.35.77-1.74.23-.15.41-.14.54-.04-.04.14-.08.29-.12.43-.12.48-.24.97-.32,1.46-.09.52-.17,1.05-.23,1.57,0,0,0,0,0,.01,0,0,0,0,0,0,0,0,0,0,0,0h0s0,.02,0,.03c-.04.14-.08.28-.13.42,0,0,0,0,0,0h0Z"/>
            <path class="cls-3" d="M183.04,49.08s0,0,0-.01c0,0,0-.02,0-.02,0-.02,0-.03-.01-.05,0-.02,0-.04,0-.07h0s0,0,0,0c0-.06,0-.12.01-.18.02-.1.04-.21.07-.31,0,0,0,0,0,0h0s0,0,0,0c0,0,0,0,0,0t0,0s0,0,0-.01c0,0,0,0,0,0,0,0,0,0,0,0,0,0,0,0,0,0,0,0,0,0,0,0h0s0,0,0,0c0,0,0,0,0,0,0,0,0,0,0,0,0,0,0,0,0,0,0,0,0,0,0,0,0,0,0,0,0,0,0,0,0-.01,0-.02,0,0,0,0,0,0,0,0,0,0,0,0,0,0,0,0,0,0h0s0,0,0-.01c0,0,0,0,0,.01h0s0,0,0-.02c0,0,0,0,0,0,0,0,0,0,0,0,0,0,0-.01,0-.02.1-.27.22-.53.37-.78.53-.67,1.24-1.29,1.55-1.53,1.03-.76,4.24-3.08,5.45-2.64.95.45.65,2.8-.32,3.1-.37-.61-.03-1.31-.09-1.96-1.46.37-2.67,1.28-3.88,2.09-.4.29-.78.58-1.14.91-.07.06-.15.12-.22.17-.36.29-.69.61-1.05.91,0,0,.02-.01.02-.02-.14.11-.28.22-.43.32h0s-.01,0-.02,0c0,0,0,0,0,0-.05.03-.1.06-.15.08,0,0,0,0,0,0,0,0,0,0,0,0,0,0,0,0,0,0-.03.01-.06.02-.09.03-.02,0-.04.01-.07.02,0,0-.01,0-.02,0,0,0,0,0,0,0Z"/>
            <path class="cls-3" d="M183.01,48.91s0,0,0,0h0s0,0,0,.02c0,0,0,0,0,0Z"/>
            <path class="cls-3" d="M184.3,52.42c-.27-.19-.71-.39-.89-.65-.3-.48.32-1.32.77-.76.79.77,1.77.57,2.65.08.61-.35,1.3-.63,1.78-1.16.42-.36.79-.09.73.42-.22.92-1.35,1.27-2.08,1.72-.89.48-2,.89-2.96.35Z"/>
            <path class="cls-3" d="M200.38,310.14c-.59-.91-.21-2.2-.06-3.16.42-2.24.88-4.37,2.03-6.32.83-1.41,1.71.13.78.62-.49.76-.85,1.72-1.13,2.54-.14.5-1.79,6.17-.62,5.56,1.03-.44,1.69-1.35,2.44-2.11,1.29-1.46,2.28-2.06.95-3.99-.21-.32-.15-.91.29-.97.41-.02.55.47.74.75.78,1.4.7,2.74-.42,3.92-.9.93-3.68,4.74-5.01,3.17Z"/>
            <path class="cls-3" d="M208.69,298.41c-1.66-.51-1.16-2.24-.57-3.41.63-1.3,1.25-2.62,2-3.85.16-.25.39-.58.73-.5.52.09.46.94.03,1.08-.79,1.26-1.39,2.63-2.04,3.96-.24.62-.78,1.46.23,1.64,1.37.11,2.71-.54,3.98-.99.78-.68.26-2.51-.46-3.12-.19-.17-.47-.26-.55-.53-.1-.27-.02-.63.24-.79.74-.35,1.63,1.11,1.84,1.69.53,1.41.44,3.68-1.35,4.06-1.3.41-2.7,1.12-4.09.76Z"/>
            <path class="cls-3" d="M214.06,381.58c-.63-.27-.96-.89-1.44-1.33-.56-.51-1.3-.91-1.58-1.65-.48-1.57,1.07-2.88,1.83-4.06.41-.62-.6-1.26-.88-1.77-.56-.75-1.02-1.64-1-2.6.08-1.13.77-2.17,1.51-3,.25-.26.57-.38.88-.13.05.04.09.08.12.13-.07.09-.14.19-.21.28-.26.36-.51.73-.73,1.11,0,0,0,0,0,0,0,0,0,.02-.01.03,0,0,0,0,0,0,0,0,0,0,0,.01,0,0,0,0,0,.01,0,0,0,.01-.01.02,0,0,0,0,0,0-.04.07-.07.13-.11.2-.09.18-.18.36-.25.55-.61,1.38.38,2.14,1.5,3.66.24.38.35.81.32,1.26-.07.82-.72,1.41-1.22,2.01-.31.4-.61.82-.83,1.28-.44.81.98,1.36,1.41,1.9.38.38.66.89,1.18,1.09,1.88.69,3.79-.63,5.16-1.82.99-1.15,1.98-.52,3.19-.29,1.77-.04,1.34-2.29.79-3.35-.19-.44-.25-.93-.18-1.41.56-.11,1,.41,1.16.89.76,1.61.9,4.21-1.08,4.97-.78.31-1.55-.07-2.29-.27-.57-.2-.97.25-1.35.6-1.22.99-2.78,1.99-4.38,1.99-.49,0-.98-.09-1.47-.31Z"/>
            <path class="cls-3" d="M222.01,371.17c-.6-.16-.73-.82-1.11-1.21-.73-.88-1.8-1.48-2.89-1.74-.24-.08-.51-.04-.72-.17-.19-.14-.24-.42-.18-.63.09-.36.39-.5.73-.38,1.03.17,2,.61,2.83,1.23.72.62,1.93,1.73,1.61,2.77-.03.13-.15.16-.27.13Z"/>
            <path class="cls-3" d="M224.92,352.68c-.4-.3-.45-.84-.57-1.29-.28-.84-.75-1.63-1.19-2.37-.25-.34-.49-.91-.98-.9-.79.16-1.31.97-1.29,1.74-.29,1.01-1.43.71-1.32-.3.4-1.24,1.29-2.79,2.79-2.77,1.14.15,1.6,1.43,2.1,2.3.5.97,1.11,2.05.94,3.18-.04.17-.09.44-.26.52-.07,0-.19-.09-.23-.11Z"/>
            <path class="cls-3" d="M218.81,358.96s.02,0,.03,0c-.1,0-.19-.05-.26-.12,0,0,0,0,0,0,.05.05.1.08.16.1h0s.05.01.07.01ZM221.77,362.66c-1.23-.14-1.89-1.24-2.42-2.23-.3-.52-.55-1.07-.8-1.62-.22-.24-.2-.67.02-.9.65-.6.9.52,1.11.95.46.89.8,1.76,1.54,2.4,1.7.81,3.77.22,5.28-.73,1.13-1.02.86-2.75,1.17-4.11-.46.11-.96-.01-1.29-.36.36-.64,1.14-.88,1.83-.85.52.09.56.72.45,1.13-.16.89-.2,1.79-.37,2.68-.19.85-.47,1.74-1.13,2.34-1.51,1.1-3.53,1.66-5.38,1.3Z"/>
            <path class="cls-3" d="M238,360.22c-.59-.11-1-.59-1.47-.91-.2-.16-.54-.13-.75-.09-.52.08-1.04.15-1.56.14-1.11-.02-2.66-.42-2.82-1.72-.18-1.51,2.18-3.61,3.01-4.83.44-.7,1.13.02.8.63-.19.3-.46.55-.68.82-.75.85-1.49,1.7-2.1,2.65-.25.32-.25.78.15.97.83.48,1.83.47,2.75.34.45-.07.95-.2,1.39-.04.5.17.85.63,1.32.85.59.24.84-1.03.96-1.43.14-.55-.2-1.16.09-1.68.34-.23.75.19.85.51.37,1.12-.44,3.99-1.92,3.81Z"/>
            <path class="cls-3" d="M236.79,378.15c-.58-.03-1.09-.43-1.29-.97.35-.13.72-.24,1.09-.29,1.12.07,2.91-.66,2.78-1.98-.09-1.09-1.05-1.66-1.56-2.53-.48-.66-.46-1.59-.92-2.22-1.72-.28-3.48.25-5.13.69-.4.04-.85.38-1.22.15-.43-.33-.21-1.25.38-1.2,2.05-.44,4.16-1.32,6.27-.85,1.17.53.91,2.17,1.77,3.01,1.14,1.03,1.97,2.79,1.21,4.27-.72,1.14-2.02,2.03-3.39,1.92Z"/>
            <path class="cls-3" d="M232.27,377.38c-1.31-.4-1.85-1.91-2.21-3.11-.3-.47,0-1.33.62-1.28.36.05.54.43.54.75-.02.77.4,1.59.94,2.13.73.5,1.66,1.5.11,1.51Z"/>
            <path class="cls-3" d="M146.2,497.72c-.08-.61.33-1.17.49-1.74.62-1.66,1.41-3.34,1.33-5.16-.05-.72-.29-1.84-1.12-1.98-.42.11-.83.27-1.27.31-3.09.1-1.24-3.19-5.91-3.13-2.95.04-5.93-.18-8.44-1.84-.55-.35-1.06-.74-1.54-1.18-.39-.3-.73-.89-.34-1.32.24-.27.6-.09.64.23,1.96,1.94,4.81,2.86,7.51,2.93,1.6.09,3.29-.14,4.82.45.53.25.99.6,1.35,1.05.34.4.52.92.9,1.29.96.79,2.16-.56,3.13.16.84.56,1.22,1.61,1.34,2.58.26,2.31-.79,4.47-1.55,6.59-.18.4-.22.96-.65,1.18-.3.13-.61-.11-.68-.42Z"/>
            <path class="cls-3" d="M212.77,438.99c-1-.74-.96-2.12-.6-3.19.26-.86.6-1.71,1.12-2.46.16-.23.36-.47.63-.59,1.17-.51,1.15,1.44.16,1.17-.62.8-.96,1.79-1.18,2.76-.44,2.28,2.48,1.51,3.75,1.13,1.04-.28,1.97-.41,3-.52.89-.07,1.82-.16,2.54-.74,1.54-1.2,3.1-3.21.84-4.59-.75-.46-1.7-.55-2.37-1.15.94-1.08,2.39-.45,3.32.31,1.11.82,1.5,2.3,1.04,3.59-.53,1.34-1.63,2.46-2.86,3.18-1.13.62-2.47.49-3.71.7-1.85.15-3.91,1.44-5.67.38Z"/>
            <path class="cls-3" d="M220.26,456.5c-5.31-.7-8.15-2.06-4.77-7.57.51-.53,1.96-3.8,2.64-3.21.81.82-1.34,2.87-1.69,3.75-1.24,1.93-2.44,4.56.79,5.11,1.53-.03,3.59,1.44,4.75-.01,2.29-3.52-1.13-6.93,3.34-9.84,1.73-1.61,1.23-2.38-.87-2.96,1.08-2.11,3.74.26,2.84,2-.52,1.75-2.49,2.41-3.29,3.96-.59,1.77.23,3.71-.32,5.52-.34,1.59-1.51,3.63-3.41,3.27Z"/>
            <path class="cls-3" d="M234.65,442.71c-.65-.63-.57-1.59-.67-2.41-.62-1.9-3.12-2.3-2.86-4.92.27-2.32,2.4-3.84,3.73-5.59.64-.53,1.22-2.01,2.17-1.76.26.14.38.43.38.72-.08.1-.16.2-.24.3-.15.19-.3.38-.45.57-.06.07-.11.15-.17.22-1.45,1.7-5.49,4.73-4.07,6.85,2.28,2.4,2.21,1.58,2.83,4.97,1.88.97,3.37-2.71,3.37-4.19.28-.64-.93-4.73.3-3.95,1.12,1.6.82,4.06.38,5.88-.45,1.44-1.88,3.75-3.52,3.75-.39,0-.8-.13-1.2-.45Z"/>
          </g>
        </g>
      </g>
    </g>
  </g>
</svg>